<svg width="25" height="25" viewBox="0 0 25 25" fill="none" xmlns="http://www.w3.org/2000/svg">
<path d="M12.46 9.10002C12.3903 9.03048 12.335 8.94787 12.2972 8.85693C12.2595 8.76598 12.24 8.66849 12.24 8.57002C12.2396 8.47023 12.26 8.37146 12.3 8.28002C12.3379 8.19072 12.3921 8.10932 12.46 8.04002C12.5303 7.96864 12.6157 7.91396 12.71 7.88002C12.8456 7.82278 12.9951 7.80743 13.1395 7.83595C13.2839 7.86446 13.4164 7.93554 13.52 8.04002C13.5909 8.10893 13.6485 8.19028 13.69 8.28002C13.7497 8.41755 13.7654 8.57016 13.7349 8.71696C13.7045 8.86375 13.6294 8.99755 13.52 9.10002C13.4524 9.16956 13.3716 9.22486 13.2823 9.26264C13.1929 9.30043 13.097 9.31994 13 9.32002C12.9002 9.32042 12.8014 9.29998 12.71 9.26002C12.6176 9.22232 12.5329 9.1681 12.46 9.10002ZM10.38 8.57002C10.3804 8.47023 10.36 8.37146 10.32 8.28002C10.2785 8.19028 10.2209 8.10893 10.15 8.04002C10.0633 7.95273 9.95641 7.88819 9.83878 7.85215C9.72116 7.81611 9.59645 7.80967 9.47575 7.83342C9.35504 7.85716 9.24206 7.91035 9.14685 7.98827C9.05165 8.06618 8.97715 8.1664 8.93 8.28002C8.89003 8.37146 8.8696 8.47023 8.87 8.57002C8.87003 8.66849 8.88948 8.76598 8.92723 8.85693C8.96498 8.94787 9.02029 9.03048 9.09 9.10002C9.23154 9.23917 9.42152 9.31803 9.62 9.32002C9.7186 9.32094 9.81638 9.30193 9.90745 9.26412C9.99853 9.22632 10.081 9.1705 10.15 9.10002C10.2935 8.96058 10.3762 8.7701 10.38 8.57002ZM6.85 10.28C6.70893 10.4223 6.62979 10.6146 6.62979 10.815C6.62979 11.0154 6.70893 11.2077 6.85 11.35C6.91954 11.4197 7.00215 11.475 7.09309 11.5128C7.18403 11.5505 7.28153 11.57 7.38 11.57C7.57847 11.568 7.76845 11.4892 7.91 11.35C8.05106 11.2077 8.1302 11.0154 8.1302 10.815C8.1302 10.6146 8.05106 10.4223 7.91 10.28C7.76647 10.1452 7.57694 10.0701 7.38 10.0701C7.18306 10.0701 6.99352 10.1452 6.85 10.28ZM7.66 13.49C7.52355 13.4381 7.37527 13.4256 7.23205 13.4539C7.08884 13.4822 6.95646 13.5501 6.85 13.65C6.70893 13.7923 6.62979 13.9846 6.62979 14.185C6.62979 14.3854 6.70893 14.5777 6.85 14.72C6.91954 14.7897 7.00215 14.845 7.09309 14.8828C7.18403 14.9205 7.28153 14.94 7.38 14.94C7.5288 14.9385 7.67387 14.8932 7.79707 14.8098C7.92027 14.7263 8.01614 14.6084 8.07269 14.4707C8.12924 14.3331 8.14397 14.1818 8.11503 14.0359C8.0861 13.8899 8.01478 13.7557 7.91 13.65C7.83875 13.5798 7.75359 13.5253 7.66 13.49ZM10.94 16.09C10.7965 15.9552 10.6069 15.8801 10.41 15.8801C10.2131 15.8801 10.0235 15.9552 9.88 16.09C9.81029 16.1596 9.75498 16.2422 9.71723 16.3331C9.67948 16.4241 9.66003 16.5216 9.66 16.62C9.66199 16.8185 9.74085 17.0085 9.88 17.15C9.94949 17.2198 10.0321 17.2752 10.123 17.313C10.214 17.3507 10.3115 17.3702 10.41 17.3702C10.5085 17.3702 10.606 17.3507 10.697 17.313C10.7879 17.2752 10.8705 17.2198 10.94 17.15C11.0791 17.0085 11.158 16.8185 11.16 16.62C11.1604 16.5202 11.14 16.4215 11.1 16.33C11.0658 16.2388 11.0111 16.1566 10.94 16.09ZM18.653 9.40002C19.3436 10.1864 19.9197 11.0664 20.364 12.014C20.4485 12.19 20.4826 12.386 20.4625 12.5801C20.4424 12.7743 20.3688 12.9591 20.25 13.114C20.134 13.2689 19.9771 13.3884 19.7969 13.4591C19.6167 13.5297 19.4204 13.5488 19.23 13.514C17.599 13.223 16.588 13.597 16.23 14.634C15.9903 15.3216 15.9618 16.0652 16.1483 16.7692C16.3347 17.4731 16.7274 18.1051 17.276 18.584C17.4102 18.714 17.5077 18.8772 17.5584 19.0571C17.6092 19.2369 17.6115 19.427 17.565 19.608C17.5202 19.7872 17.4281 19.9511 17.2982 20.0825C17.1684 20.2139 17.0056 20.308 16.827 20.355C15.9257 20.6097 14.9935 20.7383 14.057 20.737C12.47 20.7099 10.9065 20.3495 9.46769 19.6794C8.0289 19.0093 6.74697 18.0443 5.705 16.847C3.168 14.179 2.862 10.747 4.926 8.10002C6.11891 6.65706 7.79372 5.69458 9.64105 5.39037C11.4884 5.08615 13.3834 5.46077 14.976 6.44502C15.408 6.68702 15.82 6.95102 16.228 7.23102C16.9987 6.32638 17.8289 5.47416 18.713 4.68002C19.0164 4.40522 19.4135 4.25715 19.8228 4.26627C20.232 4.27538 20.6222 4.44099 20.913 4.72902C21.2165 5.00129 21.4021 5.381 21.4304 5.78773C21.4588 6.19446 21.3277 6.59626 21.065 6.90802C20.3325 7.80501 19.5256 8.63863 18.653 9.40002ZM17.894 10.049C17.0313 10.761 16.0667 11.478 15 12.2C14.9414 12.977 14.5828 13.7008 14 14.218C13.3061 14.7555 12.4485 15.0379 11.571 15.018C11.4675 15.0189 11.364 15.0146 11.261 15.005C11.1487 14.9935 11.0437 14.9444 10.9629 14.8656C10.8821 14.7868 10.8303 14.683 10.816 14.571C10.7175 14.0786 10.7273 13.5707 10.8445 13.0824C10.9618 12.5941 11.1837 12.1371 11.495 11.743C12.0317 11.1655 12.7583 10.8003 13.542 10.714C13.835 10.284 14.576 9.22702 15.575 8.00202C15.218 7.76002 14.857 7.52902 14.475 7.31702C13.0962 6.43437 11.4411 6.08929 9.82441 6.34742C8.20776 6.60556 6.74238 7.44889 5.707 8.71702C4.321 10.494 3.78 13.382 6.421 16.159C10.566 20.517 14.885 19.874 16.551 19.394C15.8821 18.753 15.4076 17.9362 15.1819 17.0377C14.9562 16.1391 14.9884 15.1951 15.275 14.314C15.801 12.782 17.264 12.15 19.397 12.532L19.445 12.432C19.0426 11.5678 18.5204 10.7646 17.894 10.046V10.049ZM12.252 12.408C11.8965 12.864 11.728 13.4383 11.781 14.014C12.354 14.0013 12.908 13.8066 13.363 13.458C13.7484 13.1073 13.9843 12.6218 14.022 12.102L13.64 11.712C13.1106 11.774 12.6196 12.0192 12.252 12.405V12.408ZM20.286 6.28602C20.3877 6.16768 20.4383 6.01381 20.4267 5.85819C20.4151 5.70258 20.3422 5.55793 20.224 5.45602C20.1699 5.39863 20.1049 5.35248 20.033 5.32021C19.961 5.28794 19.8833 5.27018 19.8045 5.26795C19.7256 5.26572 19.6471 5.27906 19.5734 5.30722C19.4997 5.33537 19.4323 5.37778 19.375 5.43202C17.5398 7.14874 15.8968 9.05998 14.475 11.132L14.601 11.261C15.6352 10.5602 16.6319 9.80546 17.587 9.00002L17.598 8.99202C18.5763 8.17457 19.4762 7.26764 20.286 6.28302V6.28602Z" fill="black"/>
</svg>
