<svg width="100" height="100" viewBox="0 0 100 100" fill="none" xmlns="http://www.w3.org/2000/svg">
<path d="M88.49 21.76C87.4459 21.0386 86.3175 20.4475 85.13 20C82.962 19.2241 80.6903 18.7758 78.39 18.67C74.4033 18.4953 70.4112 18.8552 66.52 19.74C65.8399 17.4914 64.9805 15.3011 63.95 13.19C62.5342 10.1917 60.5783 7.47974 58.18 5.18999C56.6993 3.83617 54.947 2.81346 53.04 2.18999C50.8857 1.51024 48.5743 1.51024 46.42 2.18999C44.2918 2.90563 42.3486 4.08385 40.73 5.63999C39.1511 7.12877 37.7638 8.80836 36.6 10.64C34.9237 13.299 33.5263 16.124 32.43 19.07C28.4436 18.3094 24.3683 18.1275 20.33 18.53C17.775 18.7885 15.2898 19.5174 13 20.68C10.5243 21.9247 8.5484 23.9782 7.40001 26.5C6.37619 28.9236 6.09768 31.5974 6.60001 34.18C7.01398 36.4447 7.76215 38.6352 8.82001 40.68C10.6607 44.2189 12.968 47.4948 15.68 50.42C14.0719 52.1329 12.6038 53.9722 11.29 55.92C9.38794 58.6435 8.00478 61.6945 7.21001 64.92C6.76369 66.8933 6.74663 68.9395 7.16001 70.92C7.65182 73.1257 8.81103 75.1264 10.48 76.65C12.1653 78.1388 14.1599 79.2352 16.32 79.86C18.414 80.481 20.5775 80.8371 22.76 80.92C25.899 81.043 29.0423 80.8419 32.14 80.32C33.4768 84.1535 35.3595 87.7741 37.73 91.07C39.2185 93.1447 41.0761 94.9277 43.21 96.33C45.5242 97.8676 48.2923 98.5728 51.06 98.33C52.4082 98.173 53.722 97.7981 54.95 97.22C56.0834 96.6834 57.1477 96.0119 58.12 95.22C59.876 93.7278 61.3994 91.9819 62.64 90.04C64.7814 86.6758 66.463 83.0402 67.64 79.23C69.9426 79.7512 72.2836 80.0856 74.64 80.23C77.9602 80.5079 81.3032 80.1688 84.5 79.23C86.4188 78.6337 88.1882 77.6348 89.69 76.3C91.3534 74.771 92.5056 72.7668 92.99 70.56C93.4364 68.3569 93.3885 66.0823 92.85 63.9C92.3409 61.7787 91.5682 59.7294 90.55 57.8C89.0867 55.0212 87.3408 52.4007 85.34 49.98C87.9749 46.8917 90.1507 43.4395 91.8 39.73C92.85 37.405 93.4635 34.9068 93.61 32.36C93.7748 29.5867 92.9919 26.8398 91.39 24.57C90.5815 23.4828 89.6021 22.5338 88.49 21.76ZM47.79 6.33999C49.1016 5.85862 50.5295 5.79228 51.88 6.14999C53.2552 6.54926 54.5323 7.23037 55.63 8.14999C57.7907 10.0437 59.6075 12.2969 61 14.81C62.0482 16.6207 62.9768 18.4981 63.78 20.43C61.069 21.1458 58.3984 22.007 55.78 23.01C54.15 23.64 52.59 24.3 51.11 25.01C50.22 24.62 49.33 24.23 48.42 23.86C44.8404 22.3979 41.1652 21.1817 37.42 20.22C38.2866 17.7903 39.378 15.4469 40.68 13.22C42.55 9.99999 45 7.31999 47.79 6.33999ZM40 32.6C40.1541 32.8708 40.401 33.0768 40.6951 33.1797C40.9892 33.2826 41.3107 33.2756 41.6 33.16C43.66 32.16 46.02 31.01 48.6 29.9C56.0224 33.1465 63.0428 37.244 69.52 42.11C72.5787 44.4223 75.4723 46.9451 78.18 49.66C76.0068 51.8786 73.7062 53.9688 71.29 55.92C71.29 54.13 71.29 52.45 71.24 50.92C71.1739 50.6056 71.0016 50.3236 70.7522 50.1212C70.5027 49.9187 70.1913 49.8083 69.87 49.8083C69.5488 49.8083 69.2373 49.9187 68.9879 50.1212C68.7384 50.3236 68.5662 50.6056 68.5 50.92C68.36 53.22 68.15 55.82 67.81 58.65C61.2973 63.4482 54.2503 67.4751 46.81 70.65C43.2725 72.1178 39.637 73.3374 35.93 74.3C35.0871 71.3081 34.4193 68.2696 33.93 65.2C35.46 66.12 36.93 66.94 38.29 67.66C38.595 67.7662 38.9273 67.7637 39.2307 67.6529C39.534 67.5421 39.7897 67.3299 39.9545 67.0521C40.1193 66.7744 40.1829 66.4482 40.1347 66.1289C40.0865 65.8096 39.9294 65.5167 39.69 65.3C37.77 64.02 35.62 62.54 33.34 60.83C32.4563 52.7946 32.5067 44.6838 33.49 36.66C33.9639 32.8565 34.7023 29.0907 35.7 25.39C38.7093 26.1636 41.671 27.1119 44.57 28.23C43.01 29.1 41.57 29.95 40.26 30.78C40.1234 30.8824 40.0084 31.0108 39.9214 31.1577C39.8344 31.3046 39.7772 31.4671 39.7531 31.6361C39.7289 31.8051 39.7383 31.9773 39.7807 32.1426C39.8231 32.308 39.8976 32.4634 40 32.6ZM11.49 33.41C11.1916 31.7951 11.3795 30.1279 12.03 28.62C13.25 25.82 16.87 24.24 20.89 23.87C24.1593 23.5863 27.4518 23.741 30.68 24.33C29.5924 28.1576 28.777 32.0573 28.24 36C27.3438 42.6266 27.0826 49.3237 27.46 56L26.46 55.09C23.8998 52.8052 21.5007 50.346 19.28 47.73C16.8581 44.9489 14.8107 41.8627 13.19 38.55C12.3878 36.9264 11.8253 35.1951 11.52 33.41H11.49ZM22.93 76.13C19.2 76.08 15.63 75.26 13.41 73.38C12.3367 72.4841 11.5651 71.2796 11.2 69.93C10.8389 68.5426 10.7708 67.0952 11 65.68C11.5567 62.8554 12.5988 60.1486 14.08 57.68C15.1217 55.8663 16.2808 54.1225 17.55 52.46C19.5293 54.4653 21.6192 56.3583 23.81 58.13C25.17 59.23 26.52 60.25 27.81 61.2C27.91 62.2 28.02 63.14 28.15 64.1C28.6759 67.9428 29.4644 71.745 30.51 75.48C28.0086 75.9288 25.4713 76.1464 22.93 76.13ZM58.65 87.24C57.6282 88.7451 56.3918 90.0927 54.98 91.24C54.3154 91.7676 53.5903 92.214 52.82 92.57C52.0995 92.8878 51.3335 93.0902 50.55 93.17C48.9328 93.2784 47.3273 92.8303 46 91.9C44.4375 90.8175 43.0825 89.4625 42 87.9C40.1219 85.2097 38.6118 82.2805 37.51 79.19C41.3624 78.2245 45.1418 76.9881 48.82 75.49C55.0323 72.9455 60.9862 69.8112 66.6 66.13C66.51 66.58 66.43 67.03 66.33 67.48C65.6285 70.8391 64.6997 74.1467 63.55 77.38C62.3534 80.8662 60.7061 84.181 58.65 87.24ZM88.65 69.64C88.4118 71.0175 87.7554 72.2884 86.77 73.28C85.736 74.2725 84.5065 75.0388 83.16 75.53C80.4379 76.4584 77.5756 76.9084 74.7 76.86C72.6068 76.8633 70.5157 76.7297 68.44 76.46C69.1853 73.741 69.7828 70.9836 70.23 68.2C70.5 66.47 70.71 64.8 70.87 63.2C71.66 62.63 72.44 62.05 73.21 61.45C76.2733 59.071 79.1701 56.4849 81.88 53.71C83.5349 55.6663 85.0045 57.772 86.27 60C88.09 63.26 89.17 66.77 88.65 69.64ZM86.91 37.64C85.5215 40.61 83.7424 43.3812 81.62 45.88C78.8576 43.0246 75.8969 40.368 72.76 37.93C67.4491 33.8213 61.7564 30.2315 55.76 27.21L57.07 26.76C60.3184 25.6835 63.636 24.8282 67 24.2C70.6213 23.4944 74.3194 23.2658 78 23.52C79.8176 23.6486 81.6066 24.0428 83.31 24.69C84.0983 25.0001 84.8469 25.403 85.54 25.89C86.1734 26.3537 86.7301 26.9138 87.19 27.55C88.0825 28.898 88.4881 30.5102 88.34 32.12C88.1964 34.0177 87.712 35.8741 86.91 37.6V37.64Z" fill="black"/>
<path d="M53.12 54.0001C52.5178 54.4909 51.8201 54.8511 51.0712 55.0576C50.3223 55.2642 49.5386 55.3127 48.77 55.2001C47.3405 54.9874 46.031 54.2795 45.07 53.2001C44.2581 52.2874 43.6844 51.1881 43.4 50.0001C43.4 49.8601 42.69 49.7501 41.92 49.7501C41.15 49.7501 40.68 49.9101 40.66 50.1001C40.4513 51.9527 40.859 53.8225 41.82 55.4201C43.1302 57.6212 45.2587 59.214 47.74 59.8501C49.1576 60.2183 50.6379 60.2763 52.08 60.0201C53.62 59.7398 55.0765 59.1141 56.34 58.1901C57.6666 57.2209 58.7457 55.9524 59.4897 54.4875C60.2336 53.0227 60.6213 51.403 60.6213 49.7601C60.6213 48.1172 60.2336 46.4975 59.4897 45.0327C58.7457 43.5678 57.6666 42.2993 56.34 41.3301C55.0787 40.4107 53.6258 39.7885 52.09 39.5101C50.6472 39.2572 49.1668 39.3186 47.75 39.6901C45.2734 40.3314 43.1519 41.9279 41.85 44.1301C40.8975 45.7233 40.4968 47.5861 40.71 49.4301C40.71 49.6401 41.38 49.7801 42.13 49.7701C42.88 49.7601 43.34 49.6501 43.38 49.5301C43.6578 48.3617 44.2135 47.2777 45 46.3701C45.9651 45.2906 47.2777 44.5831 48.71 44.3701C49.4809 44.258 50.2667 44.3077 51.0174 44.516C51.768 44.7244 52.4671 45.0867 53.07 45.5801C53.696 46.0843 54.2011 46.7224 54.5482 47.4475C54.8952 48.1726 55.0753 48.9662 55.0753 49.7701C55.0753 50.574 54.8952 51.3676 54.5482 52.0927C54.2011 52.8178 53.696 53.4559 53.07 53.9601L53.12 54.0001Z" fill="black"/>
</svg>
