<svg width="26" height="26" viewBox="0 0 26 26" fill="none" xmlns="http://www.w3.org/2000/svg">
<g clip-path="url(#clip0_809_2)">
<path d="M0 17.5801C0 20.3047 2.44141 22.3457 5.42969 22.3457C8.4082 22.3457 10.8398 20.3047 10.8398 17.5801V15.0801C11.3184 14.8945 11.8945 14.7871 12.4707 14.7871C13.1055 14.7871 13.6523 14.8555 14.0918 15.0117V17.5801C14.0918 20.3047 16.5234 22.3457 19.502 22.3457C22.4805 22.3457 24.9316 20.3047 24.9316 17.5801C24.9316 16.8672 24.8242 16.2031 24.4238 15.2754L20.3711 5.82227C19.8145 4.55273 18.6523 3.81055 17.1875 3.81055C15.3125 3.81055 14.0918 5.00195 14.0918 6.78906V7.73633C13.6035 7.60938 13.0664 7.54102 12.4707 7.54102C11.9043 7.54102 11.3574 7.62891 10.8398 7.79492V6.78906C10.8398 5.00195 9.61914 3.81055 7.74414 3.81055C6.2793 3.81055 5.10742 4.55273 4.56055 5.82227L0.498047 15.2754C0.0976562 16.2031 0 16.8672 0 17.5801ZM1.5332 17.5801C1.5332 15.6172 3.22266 14.2793 5.42969 14.2793C7.62695 14.2793 9.375 15.6172 9.375 17.5801C9.375 19.543 7.62695 20.8809 5.42969 20.8809C3.22266 20.8809 1.5332 19.543 1.5332 17.5801ZM15.5566 17.5801C15.5566 15.6172 17.2949 14.2793 19.502 14.2793C21.6992 14.2793 23.3887 15.6172 23.3887 17.5801C23.3887 19.543 21.6992 20.8809 19.502 20.8809C17.2949 20.8809 15.5566 19.543 15.5566 17.5801ZM10.8398 12.1016V10.7734C11.3574 10.6074 11.9043 10.5293 12.4707 10.5293C13.0664 10.5293 13.6035 10.5879 14.0918 10.7148V12.0234C13.6523 11.877 13.1152 11.8086 12.4707 11.8086C11.8945 11.8086 11.3184 11.916 10.8398 12.1016Z" fill="black" fill-opacity="0.85"/>
</g>
<defs>
<clipPath id="clip0_809_2">
<rect width="25.293" height="25.29" fill="white"/>
</clipPath>
</defs>
</svg>
