<svg width="90" height="89" viewBox="0 0 90 89" fill="none" xmlns="http://www.w3.org/2000/svg">
<g clip-path="url(#clip0_506_346)">
<path d="M13.5453 24.1L4.84531 39.7C3.84531 41.1 3.04531 42.6001 2.44531 44.1001C2.44531 44.2001 2.34531 44.3001 2.34531 44.4001C1.44531 46.7001 0.945312 49.2 0.945312 51.8C0.945312 63.4 10.3453 72.8 21.9453 72.8C31.4453 72.8 39.4454 66.5 42.0454 57.8H48.1453C50.7453 66.5 58.7453 72.8 68.2453 72.8C79.8453 72.8 89.2453 63.4 89.2453 51.8C89.2453 49.2 88.7453 46.7001 87.8453 44.4001C87.8453 44.3001 87.7453 44.2001 87.7453 44.1001C87.1453 42.5001 86.3453 41 85.3453 39.7L76.4453 23.8C76.4453 23.7 76.3453 23.7 76.3453 23.6C73.4453 18.6 68.0453 15.5 62.2453 15.5C55.3453 15.5 49.4454 19.8 47.0454 25.8H43.0454C40.6454 19.8 34.7454 15.5 27.8454 15.5C22.0454 15.5 16.6453 18.6 13.7453 23.6C13.7453 23.7 13.6453 23.7 13.6453 23.8L13.5453 24.1ZM53.2453 51.9001C53.2453 43.6001 59.9453 36.9001 68.2453 36.9001C76.5453 36.9001 83.2453 43.6001 83.2453 51.9001C83.2453 60.2001 76.5453 66.9 68.2453 66.9C59.9453 66.9 53.2453 60.1001 53.2453 51.9001ZM7.04526 51.9001C7.04526 43.6001 13.7453 36.9001 22.0453 36.9001C30.3453 36.9001 37.0454 43.6001 37.0454 51.9001C37.0454 60.2001 30.3453 66.9 22.0453 66.9C13.7453 66.9 7.04526 60.1001 7.04526 51.9001ZM18.8454 27C18.8454 26.9 18.9453 26.9 18.9453 26.8C20.7453 23.6 24.2453 21.6 27.9453 21.6C33.6453 21.6 38.2453 26.2001 38.2453 31.9001C38.2453 32.3001 38.2453 32.7001 38.1453 33.1001C38.1453 33.2001 38.1453 33.2 38.1453 33.3L37.8454 38.2C33.9454 33.7 28.3453 30.9001 21.9453 30.9001C19.9453 30.9001 18.0453 31.2 16.1453 31.7L18.8454 27ZM46.0454 31.9001C46.0454 32.5001 46.0453 33.1 46.1453 33.8L46.9453 45.9001H43.4453L44.1453 33.7C44.2453 33 44.2453 32.4 44.2453 31.8H46.0454V31.9001ZM62.3453 21.5C66.0453 21.5 69.4453 23.5 71.3453 26.7L71.4453 26.8L71.5453 26.9001L74.1453 31.6001C72.3453 31.1001 70.3453 30.8 68.3453 30.8C62.0453 30.8 56.3453 33.6001 52.4453 38.1001L52.1453 33.2C52.1453 33.1 52.1453 33.1 52.1453 33C52.0453 32.5 52.0454 32.1 52.0454 31.8C52.0454 26.2 56.6453 21.5 62.3453 21.5Z" fill="black"/>
</g>
<defs>
<clipPath id="clip0_506_346">
<rect width="88.2999" height="88.3" fill="white" transform="translate(0.945312)"/>
</clipPath>
</defs>
</svg>
