<svg width="99" height="99" viewBox="0 0 99 99" fill="none" xmlns="http://www.w3.org/2000/svg">
<path d="M0.266113 66.8458C0.266113 77.7833 10.0806 85.8887 21.8482 85.8887C33.6157 85.8887 43.3814 77.7833 43.3814 66.8458V24.5118C43.3814 17.2852 38.3521 12.4512 30.8325 12.4512C24.8267 12.4512 20.0903 15.4298 17.8931 20.5567L2.31689 57.4219C0.656693 61.2305 0.266113 63.9649 0.266113 66.8458ZM12.815 49.6094L23.8501 23.5352C25.0708 20.5567 27.561 18.7989 30.5396 18.7989C34.3482 18.7989 36.8872 21.3868 36.8872 25.1954V53.1739C32.9321 49.8048 27.4634 47.8028 21.8482 47.8028C18.8696 47.8028 15.647 48.4376 12.815 49.6094ZM7.10209 66.8458C7.10209 59.3751 13.5474 54.2969 21.8482 54.2969C30.1489 54.2969 36.8872 59.3751 36.8872 66.8458C36.8872 74.3165 30.1489 79.3946 21.8482 79.3946C13.5474 79.3946 7.10209 74.3165 7.10209 66.8458ZM98.6055 66.8458C98.6055 63.9649 98.2155 61.2305 96.5555 57.4219L80.9302 20.5567C78.7329 15.4298 73.9966 12.4512 68.0396 12.4512C60.4712 12.4512 55.4907 17.2852 55.4907 24.5118V66.8458C55.4907 77.7833 65.2075 85.8887 77.0239 85.8887C88.7915 85.8887 98.6055 77.7833 98.6055 66.8458ZM86.0571 49.6094C83.1763 48.4376 79.9536 47.8028 77.0239 47.8028C71.4087 47.8028 65.94 49.8048 61.9849 53.1739V25.1954C61.9849 21.3868 64.4751 18.7989 68.3325 18.7989C71.311 18.7989 73.7525 20.5567 75.022 23.5352L86.0571 49.6094ZM91.7705 66.8458C91.7705 74.3165 85.3247 79.3946 77.0239 79.3946C68.7232 79.3946 61.9849 74.3165 61.9849 66.8458C61.9849 59.3751 68.7232 54.2969 77.0239 54.2969C85.3247 54.2969 91.7705 59.3751 91.7705 66.8458ZM40.354 59.0821C42.5513 57.6661 45.9204 56.7384 49.436 56.7384C53.9282 56.7384 56.6138 57.3243 58.811 58.9844V52.5391C56.272 51.5137 53.2446 51.0743 49.436 51.0743C46.1646 51.0743 43.0884 51.7091 40.354 52.7833V59.0821ZM40.354 46.9727C42.5513 45.5567 45.9204 44.629 49.436 44.629C53.9282 44.629 56.6138 45.2637 58.811 46.8751V40.4786C56.272 39.4532 53.2446 39.0137 49.436 39.0137C46.1646 39.0137 43.0884 39.6485 40.354 40.7227V46.9727ZM40.354 34.9122C42.5513 33.4962 45.9204 32.5684 49.436 32.5684C53.9282 32.5684 56.6138 33.1544 58.811 34.8145V28.418C56.272 27.3438 53.2446 26.9044 49.436 26.9044C46.1646 26.9044 43.0884 27.5391 40.354 28.6134V34.9122Z" fill="black"/>
</svg>
