<svg width="99" height="99" viewBox="0 0 99 99" fill="none" xmlns="http://www.w3.org/2000/svg">
<path d="M0.605469 66.8458C0.605469 77.7833 10.4199 85.8887 22.1875 85.8887C33.955 85.8887 43.7207 77.7833 43.7207 66.8458V57.6661C45.4785 57.0802 47.6269 56.7384 49.7753 56.7384C52.2168 56.7384 54.2187 56.8848 55.83 57.3731V66.8458C55.83 77.7833 65.5469 85.8887 77.3633 85.8887C89.1309 85.8887 98.9449 77.7833 98.9449 66.8458C98.9449 63.9649 98.5549 61.2305 96.8949 57.4219L81.2696 20.5567C79.0723 15.4298 74.336 12.4512 68.379 12.4512C60.8106 12.4512 55.83 17.2852 55.83 24.5118V27.4415C54.0234 27.0997 52.0214 26.9044 49.7753 26.9044C47.6757 26.9044 45.625 27.1973 43.7207 27.6856V24.5118C43.7207 17.2852 38.6914 12.4512 31.1718 12.4512C25.166 12.4512 20.4296 15.4298 18.2324 20.5567L2.65625 57.4219C0.996048 61.2305 0.605469 63.9649 0.605469 66.8458ZM7.44145 66.8458C7.44145 59.3751 13.8867 54.2969 22.1875 54.2969C30.4882 54.2969 37.2265 59.3751 37.2265 66.8458C37.2265 74.3165 30.4882 79.3946 22.1875 79.3946C13.8867 79.3946 7.44145 74.3165 7.44145 66.8458ZM62.3242 66.8458C62.3242 59.3751 69.0626 54.2969 77.3633 54.2969C85.6641 54.2969 92.1098 59.3751 92.1098 66.8458C92.1098 74.3165 85.6641 79.3946 77.3633 79.3946C69.0626 79.3946 62.3242 74.3165 62.3242 66.8458ZM43.7207 45.6055V39.795C45.625 39.2579 47.6757 39.0137 49.7753 39.0137C52.0214 39.0137 54.0234 39.1602 55.83 39.5509V45.3126C54.2187 44.8243 52.2656 44.629 49.7753 44.629C47.6269 44.629 45.4785 45.0196 43.7207 45.6055Z" fill="black"/>
</svg>
