<svg width="1625" height="1625" viewBox="0 0 1625 1625" fill="none" xmlns="http://www.w3.org/2000/svg">
<path d="M31 878.5C31 852.5 52.5 836 71.5 836C209 836 462.2 835 473 835C479 825.5 499.5 812.5 517 814C523.167 677.333 533 507.533 533 457.033C533 431.5 553 415 576.5 415C600 415 617.5 435 617.5 457.033C617.5 502.033 616 716.5 618.5 776C626 762.5 627.036 745 644 720C653.5 706 672.5 697.5 688.5 700C704.5 702.5 724.109 715.5 729 738C735.63 768.5 739 816 747.5 840.5C781.167 841.5 815.2 842.3 824 841.5C835 826 854 812.5 869.5 812.5C875.5 676.5 884 529.533 888 455.033C889.156 433.5 906.5 415 930 415C953.5 415 972.5 432.5 972.5 455.033C972.5 533.59 952.5 726 963.5 794C970 787.5 988.5 735 1005.5 717C1027.37 693.844 1065.5 698.5 1083.5 728.5C1098.4 753.335 1102 823.5 1104 836C1104.89 841.586 1130 843.625 1155 843C1177 842.45 1199.5 859.5 1199.5 885C1199.5 910.5 1177 927.5 1155 927.5C1113.5 927.5 1062.38 923.5 1038.5 894.5C1023.5 876.286 1027.5 862 1023.5 862C1019.5 862 1009 893.5 993.5 905.5C991.5 920 993.5 986 990 1007C984.75 1038.5 967 1062 938 1062C909 1062 894 1039 890 1020C887.068 1006.08 882.5 951 882.5 923.5C880 922 878.5 921 877.5 919C873.5 920 869 918.5 867.5 917.5C863.5 922 854 925 848.5 925C843.5 925 738.5 924 731 924C718 924 699 918.645 688.5 909.5C673 896 669.5 867 667.5 867C665.5 867 658.5 889 641.5 902C641.5 941 632 1000 620 1030C616 1040 604.5 1059.76 580.5 1058C556.5 1056.24 539.75 1040.5 538 1019.5C537 1007.5 535 978 536 937C530.5 936 515.5 922 514.5 917.5C513 917.5 512 917 511.5 916.5C510 917 502 920.5 497.5 920.5L71.5 920.5C52.5 920.5 31 904.5 31 878.5Z" fill="black" stroke="black"/>
<path d="M89.5 610.999C89.5 659.999 89.5 672.499 98.5 723.498C104.48 757.385 144 774.998 173 767.498C202 759.998 222.312 727.958 216.5 691.498C211 656.999 209.5 641.499 209.5 612.499C209.5 467.499 311.5 294 499.5 294C712.5 294 760 424.999 807 577.499C859 428.499 913 294.5 1117 294.5C1299.5 294.5 1415.87 458 1410.5 602.499C1402.73 811.498 1319.5 935.498 1165 1086.5C1095 1154.91 923 1270 803.5 1324C684.5 1267 521.5 1179.5 347.5 975.998C325.781 950.596 286.5 943.498 260 964.998C233.5 986.498 232.136 1025.99 252 1052C412 1261.5 686 1409 803.5 1455.5C932.5 1405.5 1132 1277 1248.5 1172.5C1382.54 1052.26 1532 857.5 1532 614.031C1532 397.032 1370.5 173.5 1129.5 173.5C991 173.5 890 218 809.5 303.5C731 213.5 620.5 172.5 495 172.5C247.978 172.5 89.5 403 89.5 610.999Z" fill="black" stroke="black"/>
</svg>
