<svg width="100" height="100" viewBox="0 0 100 100" fill="none" xmlns="http://www.w3.org/2000/svg">
<g clip-path="url(#clip0_3_10)">
<path d="M44.3 43.4C34.3 40.7 25.3 35.4 18.1 28.3L17.8 28C10.2 36 5.59998 46.8 5.59998 58.6C5.59998 77 16.8 92.8 32.7 99.5H32.6C41.6 89.2 47 75.8 47 61.1C47.1 54.9 46.1 49 44.3 43.4Z" fill="black"/>
<path d="M82.2 28L81.9 28.4C74.8 35.5 65.8 40.8 55.7 43.5C53.9 49.1 53 55 53 61.2C53 75.9 58.4 89.3 67.4 99.6H67.3C83.2 92.8 94.4 77 94.4 58.6C94.4 46.7 89.7 35.9 82.2 28Z" fill="black"/>
<path d="M73.5 20.9C70.2 18.8 66.6 17.2 62.7 16L71.4 5.09996C72.4 3.89996 72.2 2.09996 70.9 1.09996C69.7 0.0999583 67.9 0.299958 66.9 1.59996L56.6 14.7C54.5 14.4 52.3 14.2 50 14.2C47.8 14.2 45.6 14.4 43.4 14.7L33.1 1.59996C32.1 0.399958 30.4 0.199958 29.1 1.09996C27.9 2.09996 27.7 3.79996 28.6 5.09996L37.3 16C33.5 17.1 29.8 18.8 26.5 20.9C31.7 28.3 40.3 33.1 50 33.1C59.7 33.1 68.3 28.3 73.5 20.9Z" fill="black"/>
</g>
<defs>
<clipPath id="clip0_3_10">
<rect width="100" height="100" fill="white"/>
</clipPath>
</defs>
</svg>
