<svg xmlns="http://www.w3.org/2000/svg" xmlns:xlink="http://www.w3.org/1999/xlink" viewBox="0 0 24 24" version="1.1" x="0px" y="0px"><title>icon/continous</title><desc>Created with Sketch.</desc><g stroke="none" stroke-width="1" fill="none" fill-rule="evenodd"><path d="M18,16 L14.5,16 C14.2238576,16 14,15.7761424 14,15.5 L14,12 L5,12 L5,20.5 C5,20.7761424 4.77614237,21 4.5,21 C4.22385763,21 4,20.7761424 4,20.5 L4,11.5 C4,11.2238576 4.22385763,11 4.5,11 L14.5,11 C14.6326082,11 14.7597852,11.0526784 14.8535534,11.1464466 L18.8535534,15.1464466 C18.9473216,15.2402148 19,15.3673918 19,15.5 L19,20.5 C19,20.7761424 18.7761424,21 18.5,21 C18.2238576,21 18,20.7761424 18,20.5 L18,16 L18,16 Z M17.2928932,15 L15,12.7071068 L15,15 L17.2928932,15 L17.2928932,15 Z M18,9 L18,2.5 C18,2.22385763 18.2238576,2 18.5,2 C18.7761424,2 19,2.22385763 19,2.5 L19,9.5 C19,9.77614237 18.7761424,10 18.5,10 L4.5,10 C4.22385763,10 4,9.77614237 4,9.5 L4,2.5 C4,2.22385763 4.22385763,2 4.5,2 C4.77614237,2 5,2.22385763 5,2.5 L5,9 L18,9 Z" fill="#000000" fill-rule="nonzero"></path></g></svg>