<svg width="132" height="132" viewBox="0 0 132 132" fill="none" xmlns="http://www.w3.org/2000/svg">
<path d="M109 52.5V17.75C109 14.8505 106.649 12.5 103.75 12.5C100.851 12.5 98.5 14.8505 98.5 17.75V47.5C98.5 50.2614 96.2614 53 93.5 53H40C37.2386 53 35 50.7614 35 48L35 18.5C35 15.4624 32.5376 13 29.5 13C26.4624 13 24 15.4624 24 18.5V53C24 59.0751 28.9249 64 35 64H97C103.075 64 109 58.5751 109 52.5Z" fill="black" stroke="black"/>
<path fill-rule="evenodd" clip-rule="evenodd" d="M24 116.75V85C24 78.3726 29.3726 73 36 73H79.8431C80.904 73 81.9214 73.4214 82.6716 74.1716L107.828 99.3284C108.579 100.079 109 101.096 109 102.157V116.75C109 119.649 106.649 122 103.75 122C100.851 122 98.5 119.649 98.5 116.75V111H76C73.2386 111 71 108.761 71 106V83.5H39.5C36.7386 83.5 34.5 85.7386 34.5 88.5V116.75C34.5 119.649 32.1495 122 29.25 122C26.3505 122 24 119.649 24 116.75ZM81.5 87.7071V98.5C81.5 99.6046 82.3954 100.5 83.5 100.5H94.2929C94.7383 100.5 94.9614 99.9614 94.6464 99.6464L82.3536 87.3536C82.0386 87.0386 81.5 87.2617 81.5 87.7071Z" fill="black"/>
<path d="M82.6716 74.1716L82.318 74.5251L82.318 74.5251L82.6716 74.1716ZM107.828 99.3284L108.182 98.9749L108.182 98.9749L107.828 99.3284ZM98.5 111H99V110.5H98.5V111ZM71 83.5H71.5V83H71V83.5ZM94.6464 99.6464L95 99.2929L95 99.2929L94.6464 99.6464ZM82.3536 87.3536L82.7071 87L82.7071 87L82.3536 87.3536ZM23.5 85V116.75H24.5V85H23.5ZM36 72.5C29.0964 72.5 23.5 78.0964 23.5 85H24.5C24.5 78.6487 29.6487 73.5 36 73.5V72.5ZM79.8431 72.5H36V73.5H79.8431V72.5ZM83.0251 73.818C82.1812 72.9741 81.0366 72.5 79.8431 72.5V73.5C80.7714 73.5 81.6616 73.8687 82.318 74.5251L83.0251 73.818ZM108.182 98.9749L83.0251 73.818L82.318 74.5251L107.475 99.682L108.182 98.9749ZM109.5 102.157C109.5 100.963 109.026 99.8188 108.182 98.9749L107.475 99.682C108.131 100.338 108.5 101.229 108.5 102.157H109.5ZM109.5 116.75V102.157H108.5V116.75H109.5ZM103.75 122.5C106.926 122.5 109.5 119.926 109.5 116.75H108.5C108.5 119.373 106.373 121.5 103.75 121.5V122.5ZM98 116.75C98 119.926 100.574 122.5 103.75 122.5V121.5C101.127 121.5 99 119.373 99 116.75H98ZM98 111V116.75H99V111H98ZM76 111.5H98.5V110.5H76V111.5ZM70.5 106C70.5 109.038 72.9624 111.5 76 111.5V110.5C73.5147 110.5 71.5 108.485 71.5 106H70.5ZM70.5 83.5V106H71.5V83.5H70.5ZM39.5 84H71V83H39.5V84ZM35 88.5C35 86.0147 37.0147 84 39.5 84V83C36.4624 83 34 85.4624 34 88.5H35ZM35 116.75V88.5H34V116.75H35ZM29.25 122.5C32.4256 122.5 35 119.926 35 116.75H34C34 119.373 31.8734 121.5 29.25 121.5V122.5ZM23.5 116.75C23.5 119.926 26.0744 122.5 29.25 122.5V121.5C26.6266 121.5 24.5 119.373 24.5 116.75H23.5ZM82 98.5V87.7071H81V98.5H82ZM83.5 100C82.6716 100 82 99.3284 82 98.5H81C81 99.8807 82.1193 101 83.5 101V100ZM94.2929 100H83.5V101H94.2929V100ZM94.2929 100L94.2929 100V101C95.1838 101 95.63 99.9229 95 99.2929L94.2929 100ZM82 87.7071L94.2929 100L95 99.2929L82.7071 87L82 87.7071ZM82 87.7071L82 87.7071L82.7071 87C82.0771 86.37 81 86.8162 81 87.7071H82Z" fill="black"/>
</svg>
