<svg width="1773" height="2216" viewBox="0 0 1773 2216" fill="none" xmlns="http://www.w3.org/2000/svg">
<path d="M804.141 348H437.48C394.159 348 359 383.159 359 426.481V792.519C359 835.841 394.159 871 437.48 871H803.513C846.835 871 881.994 835.841 881.994 792.519L881.992 426.481C882.619 383.159 847.46 348 804.139 348H804.141ZM515.961 818.888H437.48C423.039 818.888 411.112 806.959 411.112 792.52L411.11 714.666H515.96L515.961 818.888ZM515.961 661.926H411.739V557.702H516.589L516.591 661.926H515.961ZM515.961 504.963H411.739V426.481C411.739 412.04 423.668 400.113 438.107 400.113H516.588L516.59 504.964L515.961 504.963ZM672.922 818.888H568.7V714.665H673.55L673.552 818.888H672.922ZM672.922 661.926H568.7V557.702H673.55L673.552 661.926H672.922ZM672.922 504.963H568.7V400.739H673.55L673.552 504.963H672.922ZM829.883 793.146C829.883 807.588 817.953 819.515 803.514 819.515L725.662 819.517V714.666H830.512L830.514 793.147L829.883 793.146ZM829.883 661.926H725.661V557.702H830.511L830.513 661.926H829.883ZM829.883 504.963H725.661V400.739H804.141C818.583 400.739 830.51 412.669 830.51 427.108L830.512 504.962L829.883 504.963Z" fill="black"/>
<path d="M332.259 2216H1440.72C1624.14 2216 1772.99 2067.2 1772.99 1883.86L1773 664.264C1773 563.291 1733.13 467.638 1661.36 395.9L1374.28 111.593C1302.51 39.8561 1206.81 0 1105.8 0H332.272C148.856 0 0 148.794 0 332.134V1881.21C0 2067.2 148.865 2216 332.272 2216L332.259 2216ZM1217.43 268.36L1504.52 555.324H1329.08C1267.94 555.324 1217.44 504.838 1217.44 443.731L1217.43 268.36ZM220.616 332.132C220.616 271.015 271.123 220.539 332.255 220.539H996.799V443.734C996.799 627.074 1145.65 775.868 1329.07 775.868H1549.7V1883.87C1549.7 1944.99 1499.2 1995.46 1438.07 1995.46L332.264 1995.47C271.121 1995.47 220.625 1944.98 220.625 1883.88L220.616 332.132Z" fill="black"/>
<path d="M573.15 1730.5C512.484 1730.5 465.317 1715.67 431.65 1686C397.984 1656 381.15 1611.67 381.15 1553C381.15 1494 397.317 1449.67 429.65 1420C462.317 1390.33 508.817 1375.5 569.15 1375.5C596.484 1375.5 620.817 1378.17 642.15 1383.5C663.484 1388.83 681.317 1396.33 695.65 1406C699.65 1409 701.65 1412.33 701.65 1416C701.65 1419 700.15 1423.17 697.15 1428.5L672.15 1471.5C669.484 1476.17 666.317 1478.5 662.65 1478.5C660.317 1478.5 656.484 1477.17 651.15 1474.5C641.817 1469.83 631.984 1466.17 621.65 1463.5C611.65 1460.83 599.817 1459.5 586.15 1459.5C558.484 1459.5 537.317 1467.5 522.65 1483.5C507.984 1499.5 500.65 1522.67 500.65 1553C500.65 1583 508.65 1606.17 524.65 1622.5C540.65 1638.5 562.484 1646.5 590.15 1646.5C614.15 1646.5 636.15 1641.5 656.15 1631.5C661.484 1628.83 665.317 1627.5 667.65 1627.5C671.317 1627.5 674.484 1629.83 677.15 1634.5L702.15 1677.5C705.15 1682.83 706.65 1687 706.65 1690C706.65 1693.67 704.65 1697 700.65 1700C686.317 1709.67 668.317 1717.17 646.65 1722.5C624.984 1727.83 600.484 1730.5 573.15 1730.5ZM879.482 1730.5C849.149 1730.5 820.982 1727.33 794.982 1721C768.982 1714.67 747.982 1705.83 731.982 1694.5C725.316 1689.83 721.982 1685.33 721.982 1681C721.982 1678 723.149 1674.83 725.482 1671.5L754.482 1626C757.482 1621.67 760.482 1619.5 763.482 1619.5C766.149 1619.5 769.316 1620.67 772.982 1623C784.982 1630.33 798.649 1636.17 813.982 1640.5C829.649 1644.5 844.816 1646.5 859.482 1646.5C871.816 1646.5 880.649 1644.83 885.982 1641.5C891.649 1638.17 894.482 1633 894.482 1626C894.482 1618.33 890.816 1612.17 883.482 1607.5C876.149 1602.83 863.482 1597 845.482 1590C811.816 1577 785.316 1562.33 765.982 1546C746.649 1529.33 736.982 1507.33 736.982 1480C736.982 1445.33 748.982 1419.33 772.982 1402C797.316 1384.33 829.982 1375.5 870.982 1375.5C899.649 1375.5 923.982 1378 943.982 1383C964.316 1388 981.982 1395.83 996.982 1406.5C1003.65 1411.17 1006.98 1415.67 1006.98 1420C1006.98 1423 1005.82 1426.17 1003.48 1429.5L974.482 1475C971.482 1479.67 968.482 1482 965.482 1482C963.482 1482 960.316 1480.67 955.982 1478C947.982 1472.67 938.482 1468.33 927.482 1465C916.482 1461.33 904.649 1459.5 891.982 1459.5C880.316 1459.5 871.482 1461.17 865.482 1464.5C859.482 1467.83 856.482 1473.17 856.482 1480.5C856.482 1486.5 858.482 1491.5 862.482 1495.5C866.816 1499.5 872.149 1503 878.482 1506C884.816 1508.67 895.816 1513.17 911.482 1519.5C936.482 1529.5 956.149 1539.17 970.482 1548.5C984.816 1557.5 995.649 1568.5 1002.98 1581.5C1010.32 1594.17 1013.98 1610.33 1013.98 1630C1013.98 1660 1002.65 1684.33 979.982 1703C957.649 1721.33 924.149 1730.5 879.482 1730.5ZM1155.14 1723C1147.81 1723 1142.14 1721.67 1138.14 1719C1134.47 1716 1131.31 1711 1128.64 1704L1009.14 1404.5C1007.47 1400.17 1006.64 1396.5 1006.64 1393.5C1006.64 1386.5 1010.31 1383 1017.64 1383H1111.64C1121.97 1383 1128.47 1387.5 1131.14 1396.5L1182.14 1559.5L1233.14 1396.5C1235.81 1387.5 1242.31 1383 1252.64 1383H1346.64C1353.97 1383 1357.64 1386.5 1357.64 1393.5C1357.64 1396.5 1356.81 1400.17 1355.14 1404.5L1236.14 1704C1233.47 1711 1230.14 1716 1226.14 1719C1222.47 1721.67 1216.97 1723 1209.64 1723H1155.14Z" fill="black"/>
</svg>
