<svg xmlns="http://www.w3.org/2000/svg" data-name="Layer 4" viewBox="0 0 24 24" x="0px" y="0px"><g data-name="Dark and Light Mode"><path d="M12,5a1,1,0,0,1-1-1V3a1,1,0,0,1,2,0V4A1,1,0,0,1,12,5Z"></path><path d="M12,22a1,1,0,0,1-1-1V20a1,1,0,0,1,2,0v1A1,1,0,0,1,12,22Z"></path><path d="M4,13H3a1,1,0,0,1,0-2H4a1,1,0,0,1,0,2Z"></path><path d="M12,5a1,1,0,0,1-1-1V3a1,1,0,0,1,2,0V4A1,1,0,0,1,12,5Z"></path><path d="M12,22a1,1,0,0,1-1-1V20a1,1,0,0,1,2,0v1A1,1,0,0,1,12,22Z"></path><path d="M4,13H3a1,1,0,0,1,0-2H4a1,1,0,0,1,0,2Z"></path><path d="M6.343,7.343a1,1,0,0,1-.707-.293l-.707-.707A1,1,0,0,1,6.343,4.929l.707.707a1,1,0,0,1-.707,1.707Z"></path><path d="M18.364,19.364a.993.993,0,0,1-.707-.293l-.707-.707a1,1,0,0,1,1.414-1.414l.707.707a1,1,0,0,1-.707,1.707Z"></path><path d="M5.636,19.364a1,1,0,0,1-.707-1.707l.707-.707A1,1,0,0,1,7.05,18.364l-.707.707A.993.993,0,0,1,5.636,19.364Z"></path><path d="M6.343,7.343a1,1,0,0,1-.707-.293l-.707-.707A1,1,0,0,1,6.343,4.929l.707.707a1,1,0,0,1-.707,1.707Z"></path><path d="M18.364,19.364a.993.993,0,0,1-.707-.293l-.707-.707a1,1,0,0,1,1.414-1.414l.707.707a1,1,0,0,1-.707,1.707Z"></path><path d="M5.636,19.364a1,1,0,0,1-.707-1.707l.707-.707A1,1,0,0,1,7.05,18.364l-.707.707A.993.993,0,0,1,5.636,19.364Z"></path><path d="M12,18A6,6,0,0,1,10.8,6.119a1,1,0,0,1,.4,1.961A4,4,0,0,0,12,16a3.927,3.927,0,0,0,2.4-.8A1,1,0,0,1,15.6,16.8,5.91,5.91,0,0,1,12,18Z"></path><path d="M17.866,14a4.824,4.824,0,0,1-3.327-1.414A5.06,5.06,0,0,1,13,9a5.109,5.109,0,0,1,4.35-4.988,1,1,0,0,1,1,1.521,3.123,3.123,0,0,0-.01,3.363,3.205,3.205,0,0,0,2.624,1.327.946.946,0,0,1,.917.524,1,1,0,0,1-.061,1.052A5.175,5.175,0,0,1,17.96,14Zm-2-7.089A3.006,3.006,0,0,0,15,9a3.048,3.048,0,0,0,.937,2.156A2.735,2.735,0,0,0,17.915,12a2.3,2.3,0,0,0,.913-.217,4.8,4.8,0,0,1-2.164-1.79A5.028,5.028,0,0,1,15.861,6.911Z"></path></g></svg>