<svg width="35" height="35" viewBox="0 0 35 35" fill="none" xmlns="http://www.w3.org/2000/svg">
<path d="M11.4746 19.2695C11.2598 19.2695 11.0762 19.1953 10.9238 19.0469C10.7715 18.8984 10.6953 18.7168 10.6953 18.502C10.6953 18.2832 10.7715 18.0996 10.9238 17.9512C11.0762 17.7988 11.2598 17.7227 11.4746 17.7227H14.4512L13.3613 18.5781L14.7266 12.2148C14.7695 12.0195 14.8613 11.873 15.002 11.7754C15.1426 11.6777 15.2969 11.6309 15.4648 11.6348C15.6367 11.6348 15.7891 11.6855 15.9219 11.7871C16.0547 11.8848 16.1367 12.0332 16.168 12.2324L17.9141 22.9902H16.707L18.4824 15.0215C18.5215 14.8301 18.6113 14.6855 18.752 14.5879C18.8965 14.4863 19.0547 14.4355 19.2266 14.4355C19.3984 14.4316 19.5547 14.4766 19.6953 14.5703C19.8398 14.6641 19.9336 14.8066 19.9766 14.998L20.7852 18.6719L19.8652 17.7227H22.4082C22.6309 17.7227 22.8164 17.7969 22.9648 17.9453C23.1172 18.0938 23.1934 18.2793 23.1934 18.502C23.1934 18.7168 23.1172 18.8984 22.9648 19.0469C22.8125 19.1953 22.627 19.2695 22.4082 19.2695H20.0996C19.6387 19.2695 19.3633 19.041 19.2734 18.584L18.7109 15.5957L19.8594 15.6191L18.1367 23.8809C18.0977 24.0801 18.0039 24.2285 17.8555 24.3262C17.7109 24.4277 17.5488 24.4766 17.3691 24.4727C17.1934 24.4727 17.0352 24.4219 16.8945 24.3203C16.7539 24.2227 16.666 24.0742 16.6309 23.875L14.8672 13.1055H16.1094L14.9141 18.6543C14.8164 19.0645 14.543 19.2695 14.0938 19.2695H11.4746Z" fill="black"/>
<path d="M3.48633 13.2598C3.48633 12.0475 3.67773 10.9401 4.06055 9.9375C4.45247 8.92578 4.99935 8.05078 5.70117 7.3125C6.40299 6.57422 7.22331 6.00456 8.16211 5.60352C9.11003 5.20247 10.1354 5.00195 11.2383 5.00195C12.5052 5.00195 13.64 5.27995 14.6426 5.83594C15.6452 6.39193 16.4518 7.13021 17.0625 8.05078C17.6823 7.13021 18.4889 6.39193 19.4824 5.83594C20.485 5.27995 21.6198 5.00195 22.8867 5.00195C23.9987 5.00195 25.0241 5.20247 25.9629 5.60352C26.9108 6.00456 27.7311 6.57422 28.4238 7.3125C29.1257 8.05078 29.668 8.92578 30.0508 9.9375C30.4427 10.9401 30.6387 12.0475 30.6387 13.2598C30.6387 15.2012 30.1237 17.1243 29.0938 19.0293C28.0729 20.9251 26.6191 22.7754 24.7324 24.5801C22.8548 26.3757 20.6309 28.0938 18.0605 29.7344C17.9147 29.8255 17.7461 29.9076 17.5547 29.9805C17.3724 30.0625 17.2083 30.1035 17.0625 30.1035C16.9258 30.1035 16.7617 30.0625 16.5703 29.9805C16.388 29.9076 16.224 29.8255 16.0781 29.7344C13.5078 28.0938 11.2793 26.3757 9.39258 24.5801C7.50586 22.7754 6.04753 20.9251 5.01758 19.0293C3.99674 17.1243 3.48633 15.2012 3.48633 13.2598ZM5.6875 13.2598C5.6875 14.5267 5.99284 15.8118 6.60352 17.1152C7.21419 18.4095 8.04362 19.681 9.0918 20.9297C10.14 22.1784 11.3249 23.3724 12.6465 24.5117C13.9772 25.6419 15.3581 26.681 16.7891 27.6289C16.9349 27.7383 17.026 27.793 17.0625 27.793C17.099 27.793 17.1947 27.7383 17.3496 27.6289C18.7806 26.681 20.1569 25.6419 21.4785 24.5117C22.8092 23.3724 23.9941 22.1784 25.0332 20.9297C26.0814 19.681 26.9108 18.4095 27.5215 17.1152C28.1322 15.8118 28.4375 14.5267 28.4375 13.2598C28.4375 12.0475 28.196 10.9902 27.7129 10.0879C27.2389 9.17643 26.5827 8.47005 25.7441 7.96875C24.9147 7.45833 23.9714 7.20312 22.9141 7.20312C22.0573 7.20312 21.319 7.35807 20.6992 7.66797C20.0885 7.96875 19.5599 8.35156 19.1133 8.81641C18.6758 9.27214 18.3021 9.72331 17.9922 10.1699C17.7917 10.4342 17.6276 10.6165 17.5 10.7168C17.3724 10.8171 17.2266 10.8672 17.0625 10.8672C16.8984 10.8672 16.748 10.8216 16.6113 10.7305C16.4837 10.6302 16.3242 10.4434 16.1328 10.1699C15.8411 9.71419 15.4766 9.25846 15.0391 8.80273C14.6016 8.34701 14.0684 7.96875 13.4395 7.66797C12.8105 7.35807 12.0677 7.20312 11.2109 7.20312C10.1536 7.20312 9.20573 7.45833 8.36719 7.96875C7.53776 8.47005 6.88151 9.17643 6.39844 10.0879C5.92448 10.9902 5.6875 12.0475 5.6875 13.2598Z" fill="black"/>
</svg>
