<svg width="1024" height="1024" viewBox="0 0 1024 1024" fill="none" xmlns="http://www.w3.org/2000/svg">
<path d="M466.9 758.6C479.5 790.3 496.1 819 518.5 844.8C534.6 863.3 553.6 879.4 574.1 892.8C587.8 901.7 602.3 908.9 617.5 914.9C629.9 919.9 643.3 919.9 656.6 920C699 920.3 740.8 911 778.7 891.8C811.4 875.2 840.4 850.6 863.7 822.4C887.9 793.1 907.4 760.8 923 726.2C938.5 691.7 950.9 656 960.5 619.4C968.6 588.6 974.8 557.2 979.5 525.7C983.4 499.4 986.6 473 988.6 446.5C989.4 435.4 990 424.2 990.4 413.1C990.7 402.5 990.1 391.4 986.2 381.4C981.2 368.4 973.4 357.3 961.2 350.1C949.7 343.3 935.4 340.8 922.2 342.1C902.8 344 885.8 350.2 867.9 357.9C870.3 356.9 872.7 355.9 875.1 354.9C864.1 359.5 852.5 362.2 840.8 363.8C843.5 363.4 846.1 363.1 848.8 362.7C825.5 365.8 801.8 364.7 778.5 361.6C781.2 362 783.8 362.3 786.5 362.7C753.2 358.2 720.3 349.4 689.3 336.4C691.7 337.4 694.1 338.4 696.5 339.4C683.5 333.9 670.8 327.7 658.9 320.2C656.4 318.6 653.9 317 651.4 315.2C650.2 314.3 648.9 313.4 647.7 312.5C644 309.8 653.2 316.9 651 315.1C650.5 314.7 650 314.3 649.5 313.9C645.2 310.4 641.1 306.6 637.4 302.4C626.9 290.7 605.5 290.9 595 302.4C583.5 314.9 583.8 332.3 595 344.8C607 358.2 622.6 368.8 638.2 377.6C657.4 388.3 678 396.8 698.8 403.7C718.8 410.4 739.3 415.5 760 418.9C782.7 422.6 805.7 425.1 828.7 424.3C841.5 423.8 854.4 422.4 866.9 419.9C878.9 417.5 889.8 413.3 901 408.5C898.6 409.5 896.2 410.5 893.8 411.5C904.8 406.9 916.1 402.9 928 401.2C925.3 401.6 922.7 401.9 920 402.3C924.7 401.7 929.4 401.5 934.1 402.1C931.4 401.7 928.8 401.4 926.1 401C929 401.4 931.9 402.1 934.6 403.2C932.2 402.2 929.8 401.2 927.4 400.2C929.1 400.9 930.7 401.9 932.3 402.8C935.7 404.8 925.2 396.6 928.8 400.1C929.3 400.6 929.9 401.1 930.4 401.7C932.4 403.6 933 406.9 927.5 397.8C927.9 398.5 928.5 399.1 928.9 399.8C929.8 401.2 930.5 402.7 931.1 404.2C930.1 401.8 929.1 399.4 928.1 397C929.5 400.4 930.4 403.9 930.9 407.6C930.5 404.9 930.2 402.3 929.8 399.6C930.9 407.5 930.2 415.8 929.8 423.8C929.1 438.2 928 452.6 926.6 467C925.4 478.8 924.1 490.7 922.5 502.5C922.9 499.8 923.2 497.2 923.6 494.5C916.7 545.8 906.1 596.8 889.9 646.1C884.8 661.6 879.2 676.8 872.9 691.9C873.9 689.5 874.9 687.1 875.9 684.7C863.9 713.2 849.5 740.7 831.7 766C829.5 769.2 827.2 772.3 824.9 775.4C824.4 776.1 823.8 776.7 823.3 777.4C823.8 776.8 828.7 770.4 825.9 774C824.7 775.6 823.4 777.1 822.2 778.7C817.5 784.5 812.5 790.2 807.3 795.6C802.1 801.1 796.6 806.4 790.9 811.4C788.2 813.8 785.4 816.2 782.5 818.5C781.7 819.1 781 819.7 780.2 820.3C776.6 823.1 783 818.1 783.6 817.7C782 818.8 780.5 820.1 778.9 821.2C765.1 831.2 750.3 839.7 734.6 846.4C737 845.4 739.4 844.4 741.8 843.4C723.5 851.1 704.3 856.2 684.7 858.9C687.4 858.5 690 858.2 692.7 857.8C673.1 860.4 653.3 860.6 633.6 859C636.3 859.4 638.9 859.7 641.6 860.1C637.8 859 634.1 857.5 630.5 855.9C632.9 856.9 635.3 857.9 637.7 858.9C622.6 852.5 608.4 844.2 595.1 834.6C594 833.8 593 833 591.9 832.2C587 828.5 596.8 836.1 593.9 833.8C591.5 831.9 589.2 830 586.9 828.1C582.3 824.2 577.8 820.1 573.5 815.8C568.7 811.1 564.1 806.1 559.7 801C557.6 798.5 555.6 796 553.6 793.5C551.4 790.8 558 799.2 555.9 796.4C555.4 795.7 554.8 795 554.3 794.3C553.1 792.7 551.9 791 550.7 789.4C540.2 774.5 531.4 758.4 524.3 741.6C525.3 744 526.3 746.4 527.3 748.8C526.5 746.8 525.7 744.8 524.9 742.8C521.9 735.3 518.4 729.1 511.1 724.9C504.7 721.1 495.2 719.5 488 721.9C480.7 724.2 473.7 728.7 470.1 735.7C466.4 742.2 464 751.2 466.9 758.6Z" fill="black"/>
<path d="M612.8 545.7C600.1 536 589.571 525.96 579.871 513.26C577.413 510.091 576.634 505.434 579 502C579.115 501.833 579.23 501.666 579.346 501.5C589.635 486.756 604.502 475.963 622.4 472.7C628.4 471.6 634.5 471 640.6 471.4C643 471.5 645.3 471.8 647.7 472.2C648 472.2 650.4 472.6 648.9 472.4C646.6 472.1 652.4 472.9 653 473C653.9 473.2 654.7 473.3 655.6 473.5C657.4 473.8 659.3 474.3 661.1 474.8C664.5 475.8 667.9 477.1 671.1 478.6C677 481.3 682.5 485.2 687.1 489.8C694.7 497.6 699.9 507.6 702.6 518.1C704.3 524.9 705.3 532.2 705 539.2C704.5 550.7 690.8 558.4 681.1 562.3C657.4 571.8 631.8 560.2 612.8 545.7Z" fill="black"/>
<path d="M692.1 724.1C648.8 709.7 603.2 714.5 560.6 731.4C555.721 733.352 549.889 729.399 548.402 724.747C547.427 722.345 547.482 719.507 549.2 716.6C558.5 702 571.1 688.6 584.2 677.3C606.3 658.4 632.8 644.4 662.3 642.3C693.4 640.2 725 652.7 747.2 674.4C772.9 699.5 788.4 737.6 790.9 773.4C791.2 777.7 787.6 781.9 783.6 783C778.945 784.287 775.075 782.044 772.378 778.503C775.338 782.421 771.791 777.89 770.8 776.7C768.1 773.5 765.2 770.4 762.2 767.5C758.4 763.7 754.4 760.1 750.2 756.6C749 755.6 747.7 754.6 746.5 753.6L745.3 752.7C745.34 752.74 745.572 752.924 745.778 753.085C745.785 753.09 745.793 753.095 745.8 753.1C746.34 753.52 746.088 753.328 745.778 753.085C745.183 752.688 744.493 752.194 743.9 751.7C741.1 749.6 738.3 747.6 735.4 745.7C728.8 741.2 721.9 737.2 714.8 733.6C706.6 729.4 701 727.1 692.1 724.1Z" fill="black"/>
<path d="M809.3 599.8C784.9 600.9 763 589.4 752.9 566.6C752.764 566.291 752.639 565.979 752.526 565.665C751.692 563.987 751.375 561.983 751.83 559.723C751.939 558.972 752.131 558.241 752.411 557.541C754.289 551.245 757.472 545.085 761 539.7C768.2 528.7 777.9 520 790.2 515.1C803.3 509.9 817.1 511 830.6 513.9C856.5 519.6 877.2 539 883.6 564.9C884.7 569.3 882.9 573.8 879 576.2C875.2 578.6 871.1 580.7 867.1 582.7C849.1 591.6 829.5 598.8 809.3 599.8Z" fill="black"/>
<path d="M490 146.6C476 115.4 442 131.4 410 167.4C356 228.1 189.9 238.4 126.3 209.9C63.1 181.6 63.6 232.4 63.6 232.4C67.5 781.8 384.6 737.3 384.6 737.3C698.2 627.1 490 146.6 490 146.6ZM165.5 412.4C172.2 371.8 211 363.4 211 363.4C263.7 346.4 281.6 398.6 281.6 398.6C258.9 462.5 165.5 412.4 165.5 412.4ZM364.3 632.5C280.4 652.1 224.9 559.5 224.9 559.5C369.7 622.7 458 512.7 458 512.7C458 512.7 448.2 612.9 364.3 632.5ZM353.4 389.6C353.4 389.6 344.7 335.1 399.2 325.3C399.2 325.3 437.3 314.4 462.4 347.1C462.3 347.1 403.5 435.4 353.4 389.6Z" fill="black"/>
<path d="M363 387C363.6 391 363.1 387.8 363 385.7C362.8 382.7 362.8 379.6 363 376.6C363.1 375.6 363.2 374.6 363.3 373.7C363.5 371.1 363.1 374.5 363.4 372.9C363.8 370.7 364.2 368.4 364.8 366.2C365.4 363.9 366.2 361.5 367.1 359.3C366.3 361.2 367.5 358.5 367.9 357.8C368.6 356.5 369.3 355.2 370 354C370.6 353 371.3 352 372 351C370.9 352.4 373.3 349.4 373.7 349.1C374.7 348 375.7 347 376.8 346C378.2 344.7 378.9 344.2 379.5 343.8C385.2 339.9 390.3 337.7 397 336.1C399.7 335.4 402.5 334.9 405.3 334.3C405.6 334.2 406 334.2 406.3 334.1C408.3 333.6 404.3 334.3 405.7 334.2C406.6 334.1 407.5 334 408.5 333.9C411.1 333.7 413.8 333.6 416.4 333.7C422.4 333.9 428.4 335 434.5 337.6C442.9 341.2 449.6 347.2 455.2 354.3C454.7 350.3 454.2 346.2 453.6 342.2C453.1 342.9 452.6 343.6 452.1 344.3C451.6 345.1 451 345.8 450.4 346.6C450.1 347.1 449.7 347.5 449.4 348C447.8 350.2 449.9 347.5 449 348.5C444.1 354.6 439.1 360.5 433.6 366C426.3 373.3 420.1 378.6 412.1 383.6C410.1 384.8 408.1 386 406.1 387.1C405.1 387.6 404 388.1 403 388.6C402.4 388.9 401.8 389.2 401.2 389.4C402.2 389 401.4 389.3 400.9 389.5C398.6 390.3 396.3 391.1 394 391.7C392.9 392 391.8 392.2 390.7 392.4C390.1 392.5 389.4 392.6 388.8 392.7C389.9 392.6 389.4 392.6 388.6 392.7C385.9 392.9 383.2 392.9 380.5 392.7C379.3 392.6 380.6 392.7 380.8 392.8C380 392.7 379.2 392.5 378.4 392.3C376.9 392 375.5 391.6 374.1 391.1C372.3 390.5 372.8 390.7 371.7 390.2C370.4 389.6 369.1 388.9 367.9 388.2C364.9 386.5 362.9 384.9 360.4 382.7C350.8 374.1 336.6 388.2 346.3 396.8C356.3 405.8 368 411.7 381.6 412.8C393.2 413.7 404.7 410.2 415 405.1C433.2 396 448.6 380.9 461.3 365.3C464.7 361.1 468 356.9 471 352.4C473.7 348.4 472.1 343.7 469.4 340.3C451.9 318 423.6 310.1 396.5 315.9C381.5 319.1 367.3 325.4 357.5 337.5C349.4 347.5 345.1 359.4 343.5 372C342.7 378.8 342.7 385.6 343.7 392.4C344.5 397.7 351.2 400.7 356 399.4C361.7 397.7 363.9 392.3 363 387Z" fill="black"/>
<path d="M361.6 622.9C334.1 629.2 307.8 622.2 284.6 607.1C274.9 600.8 266.6 593.8 258 585C254.4 581.3 250.8 577.5 247.5 573.5C246.1 571.9 244.8 570.2 243.4 568.5C243.2 568.2 241.3 565.8 242.3 567.1C243.2 568.3 241.3 565.7 241 565.3C238.4 561.8 235.8 558.2 233.5 554.5C228.9 559.1 224.4 563.6 219.8 568.2C266.8 588.5 318.6 595.9 368.3 581.2C399.5 572 428.4 555.2 452.2 533.1C456.7 528.9 461.2 524.6 465.1 519.8C459.4 517.4 453.7 515.1 448 512.7C448 512.9 447.9 513.2 447.9 513.3C448 513.5 447.8 513.9 447.8 514.1C447.8 515 448.3 510.8 448 512.9C447.6 515.3 447.2 517.7 446.8 520.1C445.2 528.3 443 536.4 440.3 544.3C436.7 555 433.4 562.6 427.1 573.2C420.3 584.6 413.5 593.2 403.1 602.2C391.7 612 377 619.2 361.6 622.9C349.1 625.9 354.4 645.2 366.9 642.2C397.7 634.8 423.2 615.6 440.6 589.3C452.7 570.9 460.9 549.6 465.5 528.1C466.6 523 467.5 517.9 468 512.7C468.8 504.4 456.2 499 450.9 505.6C448 509.2 444.7 512.6 441.3 515.8C437.6 519.4 433.7 522.9 429.7 526.2C428.6 527.1 427.5 528 426.4 528.9C425.7 529.4 424.2 530.6 425.8 529.4C425.1 529.9 424.4 530.5 423.7 531C420.9 533.1 418.1 535.1 415.2 537.1C401.2 546.5 386.5 554 371.7 559.1C352.3 565.9 333.3 569.1 313.1 569.1C284.5 569.1 256.1 562.2 229.9 550.9C225.7 549.1 221.2 549.1 217.8 552.5C214.7 555.6 214 560.8 216.2 564.6C223.3 576.4 232.4 587.3 241.9 597.2C261 617.1 284.7 634 311.6 641.3C329.7 646.3 348.6 646.4 366.9 642.2C379.5 639.3 374.2 620 361.6 622.9Z" fill="black"/>
<path d="M175.1 415C176.4 407.4 178.7 400.7 182.9 394.2C184.5 391.8 185.4 390.6 187.8 388.1C188.9 387 190 385.9 191.1 384.9C191.7 384.4 192.3 383.8 193 383.3C194.3 382.2 192.8 383.4 193.6 382.8C197.6 379.8 202 377.3 206.6 375.3C208.1 374.6 204.8 375.9 207.1 375.1C207.9 374.8 208.6 374.5 209.3 374.3C210.4 373.9 211.5 373.6 212.6 373.3C223.8 370.1 233.7 368.7 243.9 372.1C244.5 372.3 245.1 372.5 245.7 372.8C247.4 373.4 243.7 371.8 246.4 373.1C247.5 373.6 248.6 374.2 249.7 374.8C250.9 375.5 252 376.2 253.2 377C253.8 377.4 254.4 377.8 255 378.3C253.9 377.5 254.8 378.1 255.4 378.6C257.2 380.2 258.9 381.8 260.6 383.5C261.5 384.5 262.4 385.5 263.2 386.5C263.5 386.9 263.8 387.3 264.2 387.7C263.2 386.4 263.8 387.2 264.4 388.1C266.7 391.5 268.9 394.9 270.6 398.6C270.9 399.2 271.2 399.9 271.5 400.5C272.6 402.8 271 399.1 271.3 399.9C271.4 400.4 271.7 400.8 271.8 401.3C271.8 399.5 271.8 397.8 271.8 396C268.4 405.3 263 412.1 254.8 416.4C253.9 416.9 252.9 417.3 252 417.8C250.6 418.4 253.4 417.3 251.9 417.8C251.3 418 250.8 418.2 250.2 418.4C247.8 419.2 245.3 419.9 242.8 420.3C242.3 420.4 239.6 420.8 240.5 420.7C241.4 420.6 238.7 420.9 238.2 420.9C235.6 421.1 232.9 421.1 230.3 421.1C228 421 225.6 420.9 223.3 420.7C222.9 420.7 219.2 420.2 221.3 420.5C219.9 420.3 218.5 420.1 217.1 419.8C212.4 419 207.8 417.9 203.2 416.6C198.8 415.4 194.5 414 190.3 412.4C188.4 411.7 186.5 411 184.6 410.2C183.8 409.9 183.1 409.6 182.3 409.3C179.5 408.2 182.5 409.4 181.4 408.9C177.7 407.3 174 405.6 170.4 403.7C159.1 397.6 148.9 414.9 160.3 421C173.5 428.1 188.1 433.5 202.7 437.1C227 443.1 255.3 444 275.2 426.4C280.1 422 284.3 416.4 287.2 410.5C289.6 405.7 292.4 400.4 290.8 395C288.5 387.5 283.6 380.2 278.8 374.1C271.3 364.6 261.6 357.2 250.1 353.1C236.3 348.2 221.8 349.9 208 353.8C181.5 361.3 160.6 382.1 155.8 409.7C154.9 415 157.2 420.5 162.8 422C167.7 423.3 174.2 420.4 175.1 415Z" fill="black"/>
<path d="M498.6 141.5C493.3 130.1 483.8 121.7 471.1 120.2C459 118.7 446.8 124 436.8 130.4C423.4 138.9 412.4 150.1 401.7 161.7C394.9 169 389.5 173.1 381.4 178.3C345 201.3 298.7 210.3 255.9 213.7C233 215.5 209.9 215.7 187 213.6C169.9 212 151.5 209.1 134.2 202.5C133.4 202.2 132.7 201.9 131.9 201.6C134.2 202.5 131 201.2 130.6 201C126.7 199.3 122.8 197.6 118.7 196.2C112.6 194.1 106.5 192.6 100.1 191.8C90.9999 190.7 81.6999 191.7 73.4999 196C62.6999 201.7 56.1999 213.4 54.2999 225.2C53.4999 230 53.5999 234.4 53.5999 239.3C53.7999 255.1 54.1999 270.9 54.9999 286.6C56.3999 314.7 58.6999 342.8 62.1999 370.7C68.1999 417.4 77.2 463.8 91.9 508.6C103.3 543.2 117.8 577 137 608C152.2 632.6 170.3 655.7 191.4 675.6C208.8 691.9 228.2 706.2 249.2 717.5C266.6 726.8 285.1 734.3 304.1 739.4C319 743.4 334.3 746.1 349.7 747.4C359 748.2 368.3 748.4 377.6 747.9C391.7 747.1 404.4 740.7 417 734.7C450.9 718.8 481.7 695.7 505.1 666.3C527.1 638.7 542.8 606.8 552.6 572.9C562.5 538.8 566.8 503 567.4 467.5C568.1 431.7 565 396 559.7 360.6C554.9 328.6 548.2 296.9 539.9 265.6C533.3 240.5 525.7 215.7 517.3 191.2C512.4 177.1 507.3 163.1 501.6 149.3C500.8 146.7 499.7 144.1 498.6 141.5C496.5 136.5 489.2 135.4 484.9 137.9C479.8 140.9 479.2 146.6 481.3 151.6C482.2 153.7 481.1 151.1 480.9 150.8C481.5 152.2 482.1 153.7 482.7 155.1C484.9 160.5 487 165.9 489.1 171.4C496.4 190.7 503 210.2 509.1 229.8C517.6 257.5 525.1 285.6 531.1 313.9C534.5 329.9 537.5 346.1 540 362.3C541.5 371.9 542.1 376.6 543.2 385.7C544.2 394.2 545.1 402.8 545.7 411.3C548.4 445.6 548.5 480.2 544.3 514.3C544.2 515.4 544 516.5 543.9 517.5C544.1 515.6 543.8 518.5 543.7 519C543.4 521.2 543.1 523.3 542.7 525.5C542 529.6 541.3 533.7 540.5 537.9C538.9 546.2 537 554.5 534.7 562.6C532.5 570.7 530 578.7 527.1 586.6C523.9 595.5 522 599.8 518.1 608.1C514.5 615.6 510.5 623 506.2 630.1C502.1 636.8 496.6 644.9 492.5 650.2C488.3 655.6 481.8 663.1 476.2 668.8C470.1 675.1 463.6 681 456.8 686.5C452.9 689.7 451.5 690.7 447.1 693.9C443.4 696.5 439.7 699.1 435.8 701.5C427.7 706.6 419.3 711.3 410.7 715.5C401.3 720.1 393.7 723.2 383.9 726.8C378.1 728.9 385.9 727.1 383.7 727.3C378 727.8 372.4 728.1 366.7 728.1C361.5 728.1 356.2 727.8 351 727.4C347.9 727.2 344.8 726.9 341.7 726.5C340.9 726.4 340.1 726.3 339.4 726.2C337 725.9 342.1 726.6 339.1 726.2C337.3 725.9 335.6 725.7 333.8 725.4C317.6 722.7 301.6 718.4 286.2 712.6C284.1 711.8 281.9 710.9 279.8 710.1C279.4 709.9 277.4 709.1 279.1 709.8C280.7 710.5 279 709.8 278.6 709.6C277.4 709.1 276.2 708.6 275 708C270.5 706 266 703.8 261.6 701.5C252.2 696.6 243.1 691.1 234.4 685C232 683.4 229.7 681.7 227.4 679.9C226.3 679.1 225.2 678.3 224.1 677.4C224 677.3 225.4 678.5 223.9 677.2C223.2 676.7 222.6 676.1 221.9 675.6C217.3 671.9 212.8 668 208.4 664C198.8 655.2 189.8 645.8 181.4 635.8C179.1 633.1 176.9 630.3 174.7 627.5C174.2 626.8 173.3 625.7 174.4 627.1C173.8 626.4 173.3 625.7 172.8 624.9C171.7 623.4 170.6 622 169.5 620.5C165.1 614.5 160.9 608.3 156.9 602C148.2 588.2 140.3 573.9 133.3 559.1C129.3 550.8 126.1 543.3 123.2 536C119.6 527.2 116.3 518.2 113.2 509.2C106.4 489.3 100.8 469.1 96 448.7C84.6 399.3 78.3999 348.9 75.4999 298.4C74.5999 283.5 73.9999 268.5 73.6999 253.6C73.4999 245.8 72.9999 238 73.4999 230.2C73.4999 229.6 73.8999 227.2 73.5999 229.4C73.1999 231.7 73.7999 228.5 73.9 227.9C74.4 225.7 75.1 223.6 75.8 221.5C75.9 221.3 74.7 223.6 75.8 221.7C76.1 221.2 76.2999 220.7 76.5999 220.2C77.1999 219 77.9999 217.9 78.6999 216.9C76.9999 219.4 79.6 216.1 80.3 215.4C80.7 215 81.1999 214.6 81.6999 214.2C79.9999 215.6 81.4 214.5 82.3 213.9C82.9 213.6 83.4999 213.3 84.0999 212.9C85.3999 212.1 82.4999 213.3 84.5999 212.7C86.3999 212.2 88 211.7 89.9 211.4C91.4 211.1 88.2 211.5 89.8 211.4C90.2 211.4 90.6999 211.3 91.0999 211.3C92 211.3 93 211.2 93.9 211.2C95.1 211.2 96.2 211.3 97.4 211.4C99.3 211.5 98.1999 211.4 100.2 211.8C111.2 213.9 120.8 218.8 131.2 222.5C149 228.9 168.2 231.8 186.9 233.5C232.4 237.7 279.6 233.9 324 222.7C345 217.4 365.8 210.1 384.7 199.5C393.1 194.8 401.1 189.3 408.3 183C418.2 174.4 426.2 163.9 436.3 155.5C444.5 148.6 454.6 141.2 465.5 140C464.1 140.2 467.2 140 467.6 140C468.1 140 470.4 140.2 469.8 140.1C471.5 140.4 471.9 140.6 473.9 141.7C475.2 142.4 476.2 143.2 477.8 145.3C478.6 146.3 480.4 149.7 481.4 151.7C483.7 156.6 490.7 157.8 495.1 155.3C500 152.3 500.9 146.5 498.6 141.5Z" fill="black"/>
</svg>
