<svg width="132" height="132" viewBox="0 0 132 132" fill="none" xmlns="http://www.w3.org/2000/svg">
<path d="M32 29.5H70.75C73.3734 29.5 75.5 31.6266 75.5 34.25C75.5 36.8734 73.3734 39 70.75 39H31.5C28.7386 39 26.5 41.2386 26.5 44V100.5C26.5 103.261 28.7386 105.5 31.5 105.5H88C90.7614 105.5 93 103.261 93 100.5V61.5C93 58.7386 95.2386 56.5 98 56.5C100.761 56.5 103 58.7386 103 61.5V100.5C103 108.784 96.2843 115.5 88 115.5H32C23.7157 115.5 17 108.784 17 100.5V44.5C17 36.2157 23.7157 29.5 32 29.5Z" fill="black"/>
<path d="M105.5 33.5L63.0121 75.526C61.0906 77.4267 57.9776 77.3605 56.1386 75.38C54.3867 73.4934 54.441 70.559 56.2615 68.7385L99 26H84.75C82.1266 26 80 23.8734 80 21.25C80 18.6266 82.1266 16.5 84.75 16.5H110.5C113.261 16.5 115.5 18.7386 115.5 21.5V46.5C115.5 49.2614 113.261 51.5 110.5 51.5C107.739 51.5 105.5 49.2614 105.5 46.5V33.5Z" fill="black"/>
<path d="M32 29.5H70.75C73.3734 29.5 75.5 31.6266 75.5 34.25C75.5 36.8734 73.3734 39 70.75 39H31.5C28.7386 39 26.5 41.2386 26.5 44V100.5C26.5 103.261 28.7386 105.5 31.5 105.5H88C90.7614 105.5 93 103.261 93 100.5V61.5C93 58.7386 95.2386 56.5 98 56.5C100.761 56.5 103 58.7386 103 61.5V100.5C103 108.784 96.2843 115.5 88 115.5H32C23.7157 115.5 17 108.784 17 100.5V44.5C17 36.2157 23.7157 29.5 32 29.5Z" stroke="black"/>
<path d="M105.5 33.5L63.0121 75.526C61.0906 77.4267 57.9776 77.3605 56.1386 75.38C54.3867 73.4934 54.441 70.559 56.2615 68.7385L99 26H84.75C82.1266 26 80 23.8734 80 21.25C80 18.6266 82.1266 16.5 84.75 16.5H110.5C113.261 16.5 115.5 18.7386 115.5 21.5V46.5C115.5 49.2614 113.261 51.5 110.5 51.5C107.739 51.5 105.5 49.2614 105.5 46.5V33.5Z" stroke="black"/>
</svg>
