<svg width="24" height="24" viewBox="0 0 24 24" fill="none" xmlns="http://www.w3.org/2000/svg">
<path d="M1.70564 1.70828C2.09543 1.31702 2.7286 1.31584 3.11985 1.70564L20.2619 18.7838C20.6531 19.1736 20.6543 19.8067 20.2645 20.198C19.8747 20.5892 19.2416 20.5904 18.8503 20.2006L1.70828 3.12249C1.31702 2.73269 1.31584 2.09953 1.70564 1.70828Z" fill="black"/>
<path d="M2.7701 5.59279C2.25689 6.43555 2.00029 7.40457 2.00029 8.49985C2.00029 10.4165 2.71279 12.1707 4.13779 13.7624C5.56279 15.354 7.15862 16.9582 8.92529 18.5749L10.6503 20.1499C10.8336 20.3332 11.0461 20.4665 11.2878 20.5499C11.5295 20.6332 11.767 20.6749 12.0003 20.6749C12.2336 20.6749 12.4711 20.6332 12.7128 20.5499C12.9545 20.4665 13.167 20.3332 13.3503 20.1499L15.0503 18.5999C15.1871 18.477 15.3228 18.3542 15.4573 18.2314L2.7701 5.59279Z" fill="black"/>
<path d="M18.3289 15.4459C18.8675 14.8879 19.383 14.3309 19.8753 13.7749C21.292 12.1749 22.0003 10.4165 22.0003 8.49985C22.0003 6.93318 21.4753 5.62485 20.4253 4.57485C19.3753 3.52485 18.067 2.99985 16.5003 2.99985C15.617 2.99985 14.7836 3.18735 14.0003 3.56235C13.217 3.93735 12.5503 4.44985 12.0003 5.09985C11.4503 4.44985 10.7836 3.93735 10.0003 3.56235C9.21696 3.18735 8.38362 2.99985 7.50029 2.99985C6.97534 2.99985 6.47939 3.0588 6.01244 3.17669L18.3289 15.4459Z" fill="black"/>
</svg>
