<svg width="24" height="24" viewBox="0 0 24 24" fill="none" xmlns="http://www.w3.org/2000/svg">
<path d="M1.70564 1.70828C2.09543 1.31702 2.7286 1.31584 3.11985 1.70564L20.2619 18.7838C20.6531 19.1736 20.6543 19.8067 20.2645 20.198C19.8747 20.5892 19.2416 20.5904 18.8503 20.2006L1.70828 3.12249C1.31702 2.73269 1.31584 2.09953 1.70564 1.70828Z" fill="black"/>
<path d="M2.7701 5.59279C2.25689 6.43555 2.00029 7.40457 2.00029 8.49985C2.00029 10.4165 2.71279 12.1707 4.13779 13.7624C5.56279 15.354 7.15862 16.9582 8.92529 18.5749L10.6503 20.1499C10.8336 20.3332 11.0461 20.4665 11.2878 20.5499C11.5295 20.6332 11.767 20.6749 12.0003 20.6749C12.2336 20.6749 12.4711 20.6332 12.7128 20.5499C12.9545 20.4665 13.167 20.3332 13.3503 20.1499L15.0503 18.5999C15.1871 18.477 15.3228 18.3542 15.4573 18.2314L14.0441 16.8236C13.2127 17.5568 12.5315 18.1656 12.0003 18.6499C11.4336 18.1332 10.6961 17.4749 9.78779 16.6749C8.87946 15.8749 7.99612 15.0165 7.13779 14.0999C6.27946 13.1832 5.54196 12.2374 4.92529 11.2624C4.30862 10.2874 4.00029 9.36652 4.00029 8.49985C4.00029 7.98343 4.08919 7.51146 4.26698 7.08394L2.7701 5.59279Z" fill="black"/>
<path d="M16.9181 14.0406C17.7528 13.1424 18.4719 12.2163 19.0753 11.2624C19.692 10.2874 20.0003 9.36652 20.0003 8.49985C20.0003 7.49985 19.667 6.66652 19.0003 5.99985C18.3336 5.33318 17.5003 4.99985 16.5003 4.99985C15.717 4.99985 15.0503 5.17902 14.5003 5.53735C13.9503 5.89568 13.4336 6.41652 12.9503 7.09985C12.8336 7.26652 12.692 7.39152 12.5253 7.47485C12.3586 7.55819 12.1836 7.59985 12.0003 7.59985C11.817 7.59985 11.642 7.55819 11.4753 7.47485C11.3086 7.39152 11.167 7.26652 11.0503 7.09985C10.567 6.41652 10.0503 5.89568 9.50029 5.53735C9.03539 5.23447 8.48714 5.05959 7.85554 5.01272L6.01244 3.17669C6.47939 3.0588 6.97534 2.99985 7.50029 2.99985C8.38362 2.99985 9.21696 3.18735 10.0003 3.56235C10.7836 3.93735 11.4503 4.44985 12.0003 5.09985C12.5503 4.44985 13.217 3.93735 14.0003 3.56235C14.7836 3.18735 15.617 2.99985 16.5003 2.99985C18.067 2.99985 19.3753 3.52485 20.4253 4.57485C21.4753 5.62485 22.0003 6.93318 22.0003 8.49985C22.0003 10.4165 21.292 12.1749 19.8753 13.7749C19.383 14.3309 18.8675 14.8879 18.3289 15.4459L16.9181 14.0406Z" fill="black"/>
</svg>
