<svg width="100" height="100" viewBox="0 0 100 100" fill="none" xmlns="http://www.w3.org/2000/svg">
<path d="M54.0169 61.821C57.7799 60.463 55.6699 54.815 51.9839 56.178C42.5229 59.591 31.8359 59.124 23.5399 59.014C25.6949 55.723 28.1369 52.631 30.7869 49.731C31.4869 50.043 32.0829 49.999 32.0149 49.999C66.1079 49.82 86.8349 44.04 91.9119 15.016C92.5449 11.384 89.6889 8.05901 85.9529 8.02301C32.2009 7.45301 10.9999 22.555 10.9999 71C10.9999 71.064 11.0319 71.117 11.0359 71.179C9.13589 76.943 8.10389 82.883 7.99989 88.95C7.97389 90.605 9.29189 91.971 10.9499 92C10.9679 92 10.9819 92 10.9999 92C12.6349 92 13.9709 90.69 13.9999 89.05C14.1509 80.19 16.4249 72.19 20.0779 65C29.2319 64.924 42.0889 66.125 54.0169 61.821ZM36.6389 43.912C53.0109 29.065 74.1159 20.334 85.3009 17.288C80.8429 36.056 67.8299 43.137 36.6389 43.912ZM75.5179 14.088C53.4419 21.973 30.1659 36.944 17.6999 57.014C21.3129 24.314 40.5489 15.264 75.5179 14.088Z" fill="black"/>
<path d="M92 89C92 90.657 90.657 92 89 92H26C24.343 92 23 90.657 23 89C23 87.343 24.343 86 26 86H89C90.657 86 92 87.343 92 89Z" fill="black"/>
<path d="M83 71C84.657 71 86 72.343 86 74C86 75.657 84.657 77 83 77H38C36.343 77 35 75.657 35 74C35 72.343 36.343 71 38 71H83Z" fill="black"/>
</svg>
