<svg width="118" height="118" viewBox="0 0 118 118" fill="none" xmlns="http://www.w3.org/2000/svg">
<path fill-rule="evenodd" clip-rule="evenodd" d="M26.2943 32.062C30.9818 32.062 34.7416 28.3022 34.7416 23.5659C34.7416 18.8784 30.9818 15.1187 26.2943 15.1187C21.6068 15.1187 17.7982 18.8784 17.7982 23.5659C17.7982 28.3022 21.6068 32.062 26.2943 32.062ZM26.2943 69.8062C27.8568 69.8062 28.4428 70.8805 29.3705 73.6637C30.1888 76.0882 32.004 83.2907 33.5786 89.5384L33.5787 89.5386L33.5788 89.5388C34.541 93.3568 35.4134 96.8183 35.9135 98.6148C36.5971 101.105 37.8666 102.082 39.6732 102.082C42.2123 102.082 43.7748 99.7867 43.0424 97.3453C42.7494 96.3199 37.1342 72.7359 36.3529 67.8531C35.6693 63.7515 35.5228 55.5972 35.5228 51.105C35.5228 50.4702 36.2064 50.2261 36.5971 50.7632C37.5804 52.1368 38.7782 53.8296 39.9865 55.5372L39.9869 55.5378C40.3019 55.9829 40.6177 56.4291 40.9305 56.8709C41.1699 55.715 41.741 54.6137 42.6028 53.6931C43.7292 52.4229 45.2907 51.7879 46.8487 51.7477L40.7963 42.7555C37.7689 38.3609 34.1068 35.9683 26.2943 35.9683C18.433 35.9683 14.7709 38.3609 11.7924 42.7555L1.48957 57.9897C1.41853 58.1014 1.34539 58.2151 1.27145 58.3301C0.989627 58.7683 0.696274 59.2245 0.464168 59.6499C-0.365862 61.1147 0.0735871 63.2632 2.12437 64.3862C3.63807 65.2651 5.49347 65.0211 6.66537 63.7027C7.73957 62.482 12.9154 55.1089 15.9428 50.7632C16.2846 50.2749 17.0658 50.4702 17.0658 51.1539C17.0658 55.646 16.9193 63.7515 16.2357 67.8531C15.4057 72.7359 9.83917 96.3199 9.54627 97.3453C8.81387 99.7867 10.3764 102.082 12.8666 102.082C14.7221 102.082 15.9916 101.105 16.6264 98.6148C17.1024 96.9044 17.916 93.685 18.8255 90.0855L18.8256 90.0854C20.4348 83.7171 22.3447 76.1593 23.2182 73.6637C24.1459 70.8805 24.7318 69.8062 26.2943 69.8062ZM76.4043 56.8873C76.1701 55.7254 75.5976 54.618 74.7317 53.6931C73.586 52.428 72.0318 51.793 70.4856 51.7482L76.5385 42.7555C79.517 38.3609 83.2279 35.9683 91.04 35.9683C98.853 35.9683 102.564 38.3609 105.542 42.7555L115.796 57.9897C116.187 58.5269 116.578 59.1128 116.87 59.6499C117.701 61.1147 117.261 63.2632 115.21 64.3862C113.648 65.2651 111.841 65.0211 110.669 63.7027C109.897 62.8253 107.006 58.7448 104.299 54.9234L104.299 54.9227C103.239 53.4273 102.208 51.9717 101.343 50.7632C101.001 50.2261 100.269 50.4702 100.269 51.105C100.269 55.5972 100.415 63.7515 101.099 67.8531C101.88 72.7359 107.496 96.3199 107.788 97.3453C108.521 99.7867 106.958 102.082 104.468 102.082C102.613 102.082 101.343 101.105 100.66 98.6148C100.173 96.8676 99.3414 93.5456 98.4165 89.8523L98.4163 89.8514L98.4161 89.8509C96.8339 83.5328 94.9796 76.1287 94.117 73.6637C93.1889 70.8805 92.603 69.8062 91.04 69.8062C89.4779 69.8062 88.892 70.8805 87.9641 73.6637C87.1005 76.1312 85.2431 83.5482 83.6598 89.8706L83.6597 89.8708C82.7366 93.5567 81.9067 96.8705 81.4212 98.6148C80.7376 101.105 79.4682 102.082 77.6127 102.082C75.1225 102.082 73.56 99.7867 74.2924 97.3453C74.5853 96.3199 80.2006 72.7359 80.9818 67.8531C81.6654 63.7515 81.8119 55.646 81.8119 51.1539C81.8119 50.4702 81.0795 50.2749 80.7377 50.7632C80.3113 51.3656 79.8446 52.0261 79.354 52.7203C78.4192 54.0433 77.3979 55.4887 76.4043 56.8873ZM91.04 32.062C95.728 32.062 99.5369 28.3022 99.5369 23.5659C99.5369 18.8784 95.728 15.1187 91.04 15.1187C86.3529 15.1187 82.5443 18.8784 82.5443 23.5659C82.5443 28.3022 86.3529 32.062 91.04 32.062Z" fill="black"/>
<path d="M58.6672 58.8198C62.0851 58.8198 64.966 55.9878 64.966 52.521C64.966 49.103 62.0851 46.271 58.6672 46.271C55.2004 46.271 52.4172 49.103 52.4172 52.521C52.4172 55.9878 55.2004 58.8198 58.6672 58.8198ZM50.4152 102.082C51.9289 102.082 53.1496 101.203 53.6379 99.2495C54.468 96.3686 56.8605 86.31 57.6418 83.8686C58.1789 82.2573 58.2766 82.1597 58.6672 82.1597C59.0578 82.1597 59.1555 82.2573 59.6926 83.8686C60.4738 86.31 62.8664 96.3686 63.6965 99.2495C64.1848 101.203 65.4055 102.082 66.9191 102.082C69.1652 102.082 70.4348 99.9819 69.8976 97.98C69.7023 97.2964 66.3332 82.8432 65.7961 79.8159C65.4055 77.4233 65.3078 72.5405 65.3078 70.5874C65.3078 69.4643 65.6496 68.7319 66.2844 67.9995C69.1164 64.4839 72.632 60.48 73.0715 59.7964C73.9992 58.478 73.6574 56.8179 72.5832 55.6948C71.3625 54.3276 69.3117 54.3765 68.2375 55.4995L64.1359 59.894C62.4269 61.7495 61.0109 62.5796 58.6672 62.5796C56.3234 62.5796 54.9074 61.7495 53.1984 59.894L49.0969 55.4995C48.0226 54.3765 45.923 54.3276 44.7512 55.6948C43.6769 56.8179 43.3351 58.478 44.2629 59.7964C44.7023 60.48 48.218 64.4839 51.05 67.9995C51.6848 68.7319 52.0266 69.4643 52.0266 70.5874C52.0266 72.5405 51.9289 77.4233 51.5383 79.8159C51.0012 82.8432 47.5832 97.2964 47.3879 97.98C46.8508 99.9819 48.1691 102.082 50.4152 102.082Z" fill="black"/>
</svg>
