<svg width="28" height="28" viewBox="0 0 28 28" fill="none" xmlns="http://www.w3.org/2000/svg">
<path d="M16.0333 7.54931C17.215 7.54931 18.1622 6.60205 18.1622 5.42041C18.1622 4.23877 17.215 3.2915 16.0333 3.2915C14.8517 3.2915 13.9044 4.23877 13.9044 5.42041C13.9044 6.60205 14.8517 7.54931 16.0333 7.54931ZM12.6935 16.0454L16.4337 18.145L14.0216 20.2153C13.504 20.6548 13.5138 21.231 13.8263 21.5825C14.1486 21.9438 14.7247 22.0317 15.2619 21.5727L18.631 18.7017C19.09 18.311 19.0216 17.4712 18.465 17.1099L14.8029 14.7075L15.5255 12.1782C15.6232 11.8169 16.0431 11.7681 16.2579 12.0806L17.3322 13.6528C17.5861 14.0142 18.0451 14.1606 18.465 13.9653L21.5607 12.5884C22.1076 12.3442 22.3126 11.8657 22.0783 11.3677C21.8341 10.8794 21.3654 10.7329 20.8185 10.9771L18.3673 12.061L16.6779 9.72705C15.799 8.51611 14.7052 8.01806 12.9083 8.15478L9.48061 8.39892C8.93373 8.43798 8.56264 8.78955 8.48451 9.35595L8.02553 12.8325C7.93764 13.438 8.24037 13.8579 8.77748 13.9165C9.32436 13.9653 9.67592 13.6528 9.75404 13.0474L10.174 10.2056L11.5509 10.1079C11.8536 10.0786 12.1564 10.2935 12.049 10.6743L11.2482 13.4673C10.7794 15.1177 11.8536 15.5669 12.6935 16.0454ZM6.16029 24.4829C6.52162 24.7856 7.07826 24.8247 7.57631 24.3462L10.7404 21.2114C11.004 20.9477 11.0626 20.8892 11.2286 20.479L12.5568 17.0415L12.2345 16.8657C11.4923 16.4653 10.9747 16.0552 10.6232 15.6157L9.46107 19.727L6.17982 22.9985C5.66224 23.5063 5.7599 24.1313 6.16029 24.4829Z" fill="black" fill-opacity="0.85"/>
</svg>
