<svg width="21" height="21" viewBox="0 0 21 21" fill="none" xmlns="http://www.w3.org/2000/svg">
<path d="M7.5 15V10.5H6V9H9V15H7.5ZM10.5 21C9.25 21 8.07917 20.7625 6.9875 20.2875C5.89583 19.8125 4.94583 19.1708 4.1375 18.3625C3.32917 17.5542 2.6875 16.6042 2.2125 15.5125C1.7375 14.4208 1.5 13.25 1.5 12C1.5 10.75 1.7375 9.57917 2.2125 8.4875C2.6875 7.39583 3.32917 6.44583 4.1375 5.6375C4.94583 4.82917 5.89583 4.1875 6.9875 3.7125C8.07917 3.2375 9.25 3 10.5 3H10.65L9.1 1.45L10.5 0L14.5 4L10.5 8L9.1 6.55L10.65 5H10.5C8.55 5 6.89583 5.67917 5.5375 7.0375C4.17917 8.39583 3.5 10.05 3.5 12C3.5 13.95 4.17917 15.6042 5.5375 16.9625C6.89583 18.3208 8.55 19 10.5 19C12.45 19 14.1042 18.3208 15.4625 16.9625C16.8208 15.6042 17.5 13.95 17.5 12H19.5C19.5 13.25 19.2625 14.4208 18.7875 15.5125C18.3125 16.6042 17.6708 17.5542 16.8625 18.3625C16.0542 19.1708 15.1042 19.8125 14.0125 20.2875C12.9208 20.7625 11.75 21 10.5 21Z" fill="black"/>
<path d="M10 13.5V15H13.5C13.7833 15 14.0208 14.9042 14.2125 14.7125C14.4042 14.5208 14.5 14.2833 14.5 14V12.5C14.5 12.2167 14.4042 11.9792 14.2125 11.7875C14.0208 11.5958 13.7833 11.5 13.5 11.5H11.5V10.5H14.5V9H10V12.5H13V13.5H10Z" fill="black"/>
</svg>
