<svg width="84" height="87" viewBox="0 0 84 87" fill="none" xmlns="http://www.w3.org/2000/svg">
<path d="M57.81 83.6387V10.4453C57.81 4.09768 54.3432 0.679688 48.0444 0.679688H16.5991C10.2514 0.679688 6.93112 4.14648 6.93112 10.4453V83.6387H57.81ZM18.2593 35.543C15.4272 35.543 13.7671 33.9805 13.7671 31.4414V11.666C13.7671 9.07809 15.4272 7.51559 18.2593 7.51559H46.3843C49.2163 7.51559 50.9253 9.07809 50.9253 11.666V31.4414C50.9253 33.9805 49.2163 35.543 46.3843 35.543H18.2593ZM0.48584 83.248C0.48584 85.2012 2.04832 86.8125 3.95262 86.8125H60.6909C62.5952 86.8125 64.2065 85.2012 64.2065 83.248C64.2065 81.3926 62.5952 79.7812 60.6909 79.7812H3.95262C2.09722 79.7812 0.48584 81.3437 0.48584 83.248ZM72.3608 77.291C79.5386 77.291 83.6401 72.5058 83.6401 63.9609C83.6401 54.293 81.7358 43.1602 78.1225 25.582L77.3901 22.0664C76.56 17.916 75.1929 14.4004 72.8003 11.4219L68.6499 6.24609C66.4526 3.46289 62.2046 6.63668 64.5972 9.56638L69.9194 16.3047C70.2612 16.7441 70.31 17.3789 69.9682 17.9648L66.8432 23.7266C65.9155 25.4844 66.062 26.6562 67.6245 28.3652L74.6069 35.7871C76.9995 46.3828 78.4155 56.4902 78.4155 63.9609C78.4155 69.1855 76.2671 72.1152 72.3608 72.1152C68.9429 72.1152 66.7456 69.918 66.7456 66.3535C66.7456 60.543 67.6733 53.0234 67.6733 46.0898C67.6733 39.1562 64.353 33.9316 55.7104 31.1484L53.6108 35.8848C60.0561 37.7402 62.4975 41.5 62.4975 46.0898C62.4975 52.2422 61.5698 59.8105 61.5698 66.3535C61.5698 73.0918 65.769 77.291 72.3608 77.291Z" fill="black"/>
</svg>
