<svg width="87" height="87" viewBox="0 0 87 87" fill="none" xmlns="http://www.w3.org/2000/svg">
<path d="M25.1854 27.2535C21.3446 31.4368 19 37.0159 19 43.1426C19 49.1701 21.2692 54.6675 25 58.8273L29 53.289C27.108 50.5483 26 47.2248 26 43.6426C26 39.9048 27.2063 36.4488 29.2508 33.6426L25.1854 27.2535Z" fill="black" fill-opacity="0.5"/>
<path d="M42.5 19.6426C40.7842 19.6426 39.1113 19.8265 37.5 20.1756L41.2725 26.7293C41.8406 26.6719 42.4169 26.6426 43 26.6426C49.8964 26.6426 55.8337 30.7491 58.5 36.6503H65.0917C62.2746 26.8293 53.2265 19.6426 42.5 19.6426Z" fill="black" fill-opacity="0.5"/>
<path d="M42.5 66.6426C53.1019 66.6426 62.0641 59.6219 64.991 49.9761H58.781C56.2695 56.2282 50.1502 60.6426 43 60.6426C42.3234 60.6426 41.656 60.6031 41 60.5262L38 66.2122C39.4565 66.4946 40.961 66.6426 42.5 66.6426Z" fill="black" fill-opacity="0.5"/>
<path d="M43.1641 80.3239C44.043 80.3239 44.9219 80.275 45.8008 80.2262L47.9981 84.4254C48.4864 85.402 49.5118 85.8903 50.6348 85.695C51.709 85.4508 52.5391 84.6207 52.6368 83.4977L53.3692 78.9078C55.0782 78.4684 56.6895 77.7848 58.3496 77.15L61.7676 80.1774C62.5489 80.9098 63.7696 81.1539 64.795 80.568C65.7227 79.9821 66.211 78.859 65.918 77.7848L64.9903 73.2926C66.3575 72.2184 67.7735 71.0953 68.9942 69.9235L73.2422 71.6813C74.4141 72.1696 75.4883 71.8278 76.2696 70.9C76.9043 70.07 77.002 68.8981 76.4649 67.9704L73.9746 64.0153C74.9512 62.5505 75.7813 61.0368 76.6114 59.3766L81.25 59.5719C82.3243 59.6208 83.3985 59.0348 83.7403 57.9118C84.1309 56.8864 83.6914 55.7634 82.8614 55.0798L79.2481 52.1989C79.6875 50.5387 79.9805 48.7809 80.127 46.9743L84.4727 45.5583C85.6446 45.1676 86.377 44.3376 86.377 43.1657C86.377 41.9938 85.6446 41.1637 84.4727 40.7731L80.127 39.3571C79.9805 37.5505 79.6875 35.8415 79.2481 34.1325L82.8614 31.2516C83.6914 30.568 84.1309 29.4938 83.7403 28.4684C83.3985 27.3454 82.3243 26.7594 81.25 26.8083L76.6114 26.9548C75.7813 25.2946 74.9512 23.8298 73.9746 22.3161L76.4649 18.361C77.002 17.4821 76.9043 16.3102 76.2696 15.4801C75.4883 14.5524 74.4141 14.2594 73.2911 14.6989L68.9942 16.4079C67.7735 15.2848 66.3575 14.113 64.9903 13.0876L65.918 8.59536C66.1621 7.42346 65.7227 6.34926 64.795 5.81216C63.7696 5.22616 62.5489 5.37267 61.7676 6.20277L58.3496 9.18127C56.6895 8.54657 55.0782 7.91176 53.3692 7.42346L52.6368 2.88246C52.5391 1.75936 51.709 0.929366 50.6348 0.685166C49.5118 0.489866 48.4864 0.978161 47.9981 1.90586L45.8008 6.10506C44.9219 6.05626 44.043 6.00746 43.1641 6.00746C42.2364 6.00746 41.4063 6.05626 40.4786 6.10506L38.2813 1.90586C37.793 0.978161 36.7676 0.489866 35.6446 0.685166C34.5703 0.929366 33.8379 1.75936 33.6426 2.88246L32.9102 7.42346C31.25 7.91176 29.5899 8.54657 27.9786 9.18127L24.5606 6.20277C23.7305 5.37267 22.5586 5.22616 21.4844 5.81216C20.5567 6.34926 20.1661 7.42346 20.4102 8.59536L21.2891 13.0876C19.9707 14.113 18.5059 15.2848 17.2852 16.4079L12.9883 14.6989C11.9141 14.2594 10.8399 14.5524 10.0586 15.4801C9.42386 16.3102 9.27736 17.4821 9.86326 18.361L12.3047 22.3161C11.377 23.8298 10.5469 25.2946 9.66796 26.9548L5.02926 26.8083C4.00386 26.7594 2.92968 27.3454 2.58789 28.4684C2.24609 29.4938 2.58789 30.568 3.41796 31.2516L7.03126 34.1325C6.59176 35.8415 6.29886 37.5505 6.20116 39.3571L1.75781 40.7731C0.63476 41.1149 0 41.9938 0 43.1657C0 44.3376 0.63476 45.2165 1.75781 45.5583L6.20116 46.9743C6.29886 48.7809 6.59176 50.5387 7.03126 52.1989L3.41796 55.0798C2.58789 55.7634 2.24609 56.8864 2.58789 57.9118C2.92968 59.0348 4.00386 59.6208 5.02926 59.5719L9.66796 59.3766C10.5469 61.0368 11.377 62.5505 12.3047 64.0153L9.86326 67.9704C9.27736 68.8981 9.42386 70.07 10.0586 70.9C10.8399 71.8278 11.9141 72.1696 13.0371 71.6813L17.2852 69.9235C18.5059 71.0953 19.9707 72.2184 21.2891 73.2926L20.4102 77.7848C20.2149 78.859 20.5567 79.9821 21.4844 80.568C22.5586 81.1539 23.7305 80.9098 24.5606 80.1774L27.9786 77.15C29.5899 77.7848 31.25 78.4684 32.9102 78.9078L33.6426 83.4977C33.8379 84.6207 34.5703 85.4508 35.6446 85.695C36.7676 85.8903 37.793 85.402 38.2813 84.4254L40.4786 80.2262C41.4063 80.275 42.2364 80.3239 43.1641 80.3239ZM43.1641 73.2926C26.3184 73.2926 13.4278 59.9137 13.4278 43.2145C13.4278 26.4665 26.3184 13.0387 43.1641 13.0387C60.0098 13.0387 72.9493 26.4665 72.9493 43.2145C72.9493 59.9137 60.0098 73.2926 43.1641 73.2926ZM35.9864 37.2087L41.1133 33.986L28.4668 12.3063L23.0957 15.2848L35.9864 37.2087ZM52.0508 46.1442H77.2461V40.1872H52.0508V46.1442ZM41.0645 52.5407L36.0352 49.1716L22.6563 70.9977L27.9297 74.0739L41.0645 52.5407ZM43.0176 53.7614C48.877 53.7614 53.5645 49.0739 53.5645 43.2634C53.5645 37.4528 48.877 32.7165 43.0176 32.7165C37.2071 32.7165 32.5684 37.4528 32.5684 43.2634C32.5684 49.0739 37.2071 53.7614 43.0176 53.7614ZM43.0176 47.2673C40.7715 47.2673 39.0625 45.5583 39.0625 43.2634C39.0625 40.9684 40.7715 39.2106 43.0176 39.2106C45.3125 39.2106 47.0703 40.9684 47.0703 43.2634C47.0703 45.5583 45.3125 47.2673 43.0176 47.2673Z" fill="black"/>
</svg>
