<svg width="40" height="40" viewBox="0 0 40 40" fill="none" xmlns="http://www.w3.org/2000/svg">
<path d="M36.1499 16.08C36.4189 16.0584 36.6807 15.9826 36.9195 15.8571C37.1584 15.7316 37.3694 15.5591 37.5399 15.35C37.7224 15.1272 37.8573 14.8695 37.9365 14.5926C38.0156 14.3157 38.0372 14.0255 37.9999 13.74C37.5799 10.74 36.2399 9 34.2199 8.92C33.5713 8.85892 32.9172 8.941 32.3038 9.16045C31.6904 9.3799 31.1326 9.73135 30.6699 10.19C30.4625 10.4453 30.1783 10.627 29.8594 10.7081C29.5406 10.7891 29.2041 10.7653 28.8999 10.64C28.1199 10.44 27.7199 9.48 27.1399 7.92C26.1899 5.43 24.9199 2 19.9999 2C15.0799 2 13.8199 5.42 12.8899 7.92C12.3199 9.49 11.8899 10.46 11.1499 10.61C10.8006 10.7206 10.4271 10.7295 10.0729 10.6357C9.71873 10.5418 9.3986 10.3491 9.14991 10.08C8.69936 9.66045 8.1656 9.34036 7.58329 9.14052C7.00098 8.94067 6.38315 8.86554 5.76991 8.92C4.62991 9 2.63991 9.63 1.99991 13.5C1.94841 13.8113 1.96944 14.1302 2.06137 14.432C2.15329 14.7338 2.31364 15.0103 2.52991 15.24C2.74038 15.4639 2.99962 15.6364 3.2875 15.7439C3.57539 15.8514 3.88418 15.8911 4.18991 15.86C4.99066 15.7386 5.8029 15.7117 6.60992 15.78C9.15992 16.24 10.3999 17.02 10.3999 18.17C10.3999 18.62 10.1499 18.92 9.70992 19.43C9.00746 20.1039 8.59803 21.0269 8.56991 22C8.54559 22.6747 8.74953 23.3378 9.14875 23.8822C9.54798 24.4266 10.1191 24.8204 10.7699 25C11.1021 25.0911 11.4102 25.2538 11.6728 25.4766C11.9354 25.6995 12.146 25.9771 12.2899 26.29C12.5579 26.9232 12.6003 27.6293 12.4099 28.29C12.2229 28.8156 12.2032 29.3862 12.3536 29.9234C12.504 30.4606 12.8171 30.938 13.2499 31.29C13.9072 31.8318 14.692 32.1966 15.5299 32.35C16.3699 32.57 16.7899 32.69 17.0799 33.22C17.4756 34.2019 17.7053 35.2428 17.7599 36.3C17.8 36.6827 17.9497 37.0456 18.1909 37.3454C18.4321 37.6452 18.7547 37.869 19.1199 37.99C19.3246 38.066 19.5416 38.1033 19.7599 38.1C20.286 38.0951 20.789 37.8832 21.1599 37.51L21.9499 36.75C22.7539 36.1066 23.432 35.32 23.9499 34.43C24.1937 33.8839 24.3061 33.2884 24.2783 32.691C24.2506 32.0936 24.0833 31.5111 23.7899 30.99C23.4399 30.17 23.2999 29.78 23.6599 29.16C23.8599 28.83 24.1899 28.68 24.7599 28.45C25.3179 28.3157 25.829 28.0325 26.2386 27.6305C26.6483 27.2285 26.9411 26.7228 27.0858 26.1675C27.2306 25.6121 27.2218 25.0278 27.0605 24.477C26.8992 23.9262 26.5914 23.4296 26.1699 23.04C25.5199 22.24 25.1699 21.84 25.8799 20.6C26.2199 19.97 26.4299 19.94 27.0599 19.84C27.6331 19.7868 28.1885 19.6132 28.69 19.3306C29.1914 19.048 29.6276 18.6627 29.9699 18.2C31.5499 16.2 33.8599 16.2 35.3899 16.2L36.1499 16.08ZM28.3899 16.82C28.2 17.0904 27.9508 17.3138 27.6614 17.4732C27.372 17.6327 27.0499 17.7239 26.7199 17.74C26.1634 17.7782 25.627 17.963 25.1651 18.2756C24.7031 18.5883 24.3322 19.0176 24.0899 19.52C23.6052 20.2292 23.3892 21.088 23.4809 21.9422C23.5725 22.7963 23.9658 23.5898 24.5899 24.18C25.0299 24.72 25.1999 24.97 25.1599 25.28C25.0599 26 24.7999 26.14 23.9699 26.48C23.1274 26.7316 22.3989 27.2691 21.9099 28C21.5922 28.5503 21.4249 29.1746 21.4249 29.81C21.4249 30.4454 21.5922 31.0697 21.9099 31.62C22.2499 32.41 22.3899 32.82 22.1099 33.41C21.6953 34.0675 21.175 34.652 20.5699 35.14C20.2899 35.4 19.9999 35.67 19.7499 35.95C19.6671 34.6469 19.3592 33.368 18.8399 32.17C18.5413 31.6608 18.1301 31.2266 17.6378 30.9008C17.1456 30.5749 16.5853 30.366 15.9999 30.29C15.4778 30.2119 14.9831 30.0057 14.5599 29.69C14.1899 29.35 14.1999 29.28 14.3399 28.62C14.6078 27.5696 14.5271 26.4605 14.1099 25.46C13.8758 24.9025 13.5241 24.4022 13.0788 23.9932C12.6335 23.5841 12.1052 23.2761 11.5299 23.09C10.6899 22.73 10.5299 22.64 10.5299 21.97C10.5299 21.54 10.7599 21.26 11.2099 20.75C11.9251 20.0771 12.3486 19.1511 12.3899 18.17C12.3899 15.92 10.5599 14.46 6.95992 13.81C6.57904 13.7563 6.1945 13.7329 5.80991 13.74C5.28991 13.74 4.67991 13.74 3.95991 13.81C4.12991 12.75 4.58991 10.97 5.80991 10.92C6.17623 10.8776 6.5474 10.9205 6.89437 11.0454C7.24133 11.1703 7.55469 11.3738 7.80992 11.64C8.28901 12.1092 8.88315 12.4439 9.53264 12.6107C10.1821 12.7775 10.8641 12.7703 11.5099 12.59C13.4199 12.22 14.0899 10.4 14.7399 8.64C15.6399 6.26 16.4699 4 19.9999 4C23.5299 4 24.3799 6.23 25.2599 8.59C25.8999 10.32 26.5599 12.1 28.3999 12.59C29.0219 12.7974 29.6899 12.8248 30.3268 12.6691C30.9637 12.5134 31.5437 12.1809 31.9999 11.71C32.2763 11.4201 32.616 11.1979 32.9924 11.0609C33.3688 10.9238 33.7718 10.8756 34.1699 10.92C35.4899 10.97 35.9199 13.1 36.0499 14.08C35.8334 14.0911 35.6164 14.0911 35.3999 14.08C33.6799 14.11 30.5599 14.13 28.3899 16.82Z" fill="black"/>
<path d="M17.2999 10.8999C16.709 10.9276 16.1487 11.1709 15.7249 11.5836C15.3012 11.9963 15.0432 12.5499 14.9999 13.1399C14.9971 13.3625 15.0394 13.5834 15.1242 13.7893C15.209 13.9951 15.3346 14.1817 15.4935 14.3377C15.6523 14.4938 15.8411 14.616 16.0484 14.6972C16.2557 14.7783 16.4773 14.8167 16.6999 14.8099C17.8599 14.8099 18.9699 14.0999 18.9699 13.1399C18.9999 11.9999 18.1099 10.8999 17.2999 10.8999Z" fill="black"/>
<path d="M22.7 10.8999C21.89 10.8999 21 12.0199 21 13.1399C21 14.1399 22.11 14.8099 23.27 14.8099C23.495 14.8208 23.7199 14.7856 23.9307 14.7063C24.1416 14.6271 24.334 14.5054 24.4961 14.349C24.6582 14.1925 24.7865 14.0045 24.8732 13.7966C24.9598 13.5886 25.003 13.3652 25 13.1399C24.9567 12.5499 24.6987 11.9963 24.2749 11.5836C23.8512 11.1709 23.2909 10.9276 22.7 10.8999Z" fill="black"/>
</svg>
