<svg width="22" height="22" viewBox="0 0 22 22" fill="none" xmlns="http://www.w3.org/2000/svg">
<g clip-path="url(#clip0_961_7)">
<path d="M1 11.8545C1 17.3037 5.52148 21.8155 10.9609 21.8155C16.4102 21.8155 20.9219 17.3037 20.9219 11.8545C20.9219 7.04983 17.416 2.97756 12.8457 2.07912V0.692405C12.8457 -0.00095427 12.3672 -0.186501 11.8398 0.194358L8.72461 2.37209C8.27539 2.68459 8.26562 3.15334 8.72461 3.47561L11.8301 5.66311C12.3672 6.05373 12.8457 5.86819 12.8457 5.16506V3.77834C16.5371 4.61819 19.252 7.89944 19.252 11.8545C19.252 16.4639 15.5703 20.1553 10.9609 20.1553C6.35156 20.1553 2.65039 16.4639 2.66016 11.8545C2.66992 9.08108 4.01758 6.62991 6.09766 5.14553C6.49805 4.8428 6.625 4.38381 6.38086 3.97366C6.13672 3.57326 5.59961 3.46584 5.16992 3.79787C2.66016 5.62405 1 8.57326 1 11.8545Z" fill="black" fill-opacity="0.85"/>
<path d="M10.8144 15.9268C12.3379 15.9268 13.2851 14.8037 13.2851 13.2803C13.2851 11.9717 12.5429 10.8487 11.2539 10.8487C10.6094 10.8487 10.0625 11.1514 9.79882 11.6494H9.75972L9.93552 9.42285H12.416C12.7383 9.42285 12.9531 9.20801 12.9531 8.87598C12.9531 8.54395 12.748 8.3291 12.416 8.3291H9.58402C9.07622 8.3291 8.84182 8.59278 8.81252 9.11035L8.59765 11.9522C8.56836 12.3916 8.79292 12.7139 9.22262 12.7139C9.53512 12.7139 9.67192 12.5869 9.86722 12.3526C10.1015 12.0401 10.4336 11.8447 10.8242 11.8447C11.5957 11.8447 11.9765 12.5381 11.9765 13.3194C11.9765 14.1494 11.5566 14.8428 10.8144 14.8428C10.2285 14.8428 9.83792 14.4619 9.64262 13.9541C9.51562 13.6807 9.32032 13.5342 9.05662 13.5342C8.71482 13.5342 8.5 13.7588 8.5 14.1006C8.5 14.2178 8.51953 14.335 8.54883 14.4424C8.79292 15.3799 9.86722 15.9268 10.8144 15.9268Z" fill="black" fill-opacity="0.85"/>
</g>
<defs>
<clipPath id="clip0_961_7">
<rect width="21.8" height="21.8" fill="white"/>
</clipPath>
</defs>
</svg>
