<svg width="22" height="22" viewBox="0 0 22 22" fill="none" xmlns="http://www.w3.org/2000/svg">
<g clip-path="url(#clip0_961_17)">
<path d="M1 11.8514C1 17.3006 5.52148 21.8123 10.9609 21.8123C16.4102 21.8123 20.9219 17.3006 20.9219 11.8514C20.9219 8.57011 19.2617 5.62089 16.752 3.79472C16.3223 3.46269 15.7852 3.57011 15.541 3.9705C15.2969 4.38065 15.4238 4.83964 15.8242 5.14237C17.9043 6.62675 19.252 9.07792 19.2617 11.8514C19.2715 16.4607 15.5703 20.1521 10.9609 20.1521C6.35156 20.1521 2.66992 16.4607 2.66992 11.8514C2.66992 7.89628 5.38477 4.61503 9.07617 3.77519V5.17167C9.07617 5.86503 9.55469 6.05058 10.0918 5.66972L13.207 3.48222C13.6465 3.17948 13.6562 2.71073 13.207 2.38847L10.1016 0.200966C9.55469 -0.189659 9.07617 -0.00411147 9.07617 0.699013V2.07597C4.50586 2.9744 1 7.04667 1 11.8514Z" fill="black" fill-opacity="0.85"/>
<path d="M10.9144 15.9238C12.4378 15.9238 13.3851 14.8008 13.3851 13.2773C13.3851 11.9687 12.6527 10.8457 11.3539 10.8457C10.7093 10.8457 10.1624 11.1484 9.89883 11.6465H9.85973L10.0355 9.41992H12.516C12.8382 9.41992 13.0531 9.20507 13.0531 8.87304C13.0531 8.54101 12.848 8.32617 12.516 8.32617H9.68393C9.17613 8.32617 8.94173 8.58984 8.91243 9.10742L8.69764 11.9492C8.66834 12.3887 8.89293 12.7109 9.32263 12.7109C9.63513 12.7109 9.77183 12.584 9.96713 12.3496C10.2015 12.0371 10.5335 11.8418 10.9242 11.8418C11.6957 11.8418 12.0765 12.5352 12.0765 13.3164C12.0765 14.1465 11.6566 14.8398 10.9144 14.8398C10.3285 14.8398 9.93783 14.459 9.74253 13.9512C9.61563 13.6777 9.42033 13.5312 9.15663 13.5312C8.81483 13.5312 8.59998 13.7559 8.59998 14.0977C8.59998 14.2148 8.61951 14.332 8.64881 14.4394C8.89293 15.3769 9.96713 15.9238 10.9144 15.9238Z" fill="black" fill-opacity="0.85"/>
</g>
<defs>
<clipPath id="clip0_961_17">
<rect width="21.8" height="21.8" fill="white"/>
</clipPath>
</defs>
</svg>
