<svg xmlns="http://www.w3.org/2000/svg" xmlns:xlink="http://www.w3.org/1999/xlink" version="1.1" x="0px" y="0px" viewBox="0 0 100 100" style="enable-background:new 0 0 100 100;" xml:space="preserve"><g><path d="M64.7,31c0,1.5,0.6,2.9,1.7,4.1l14.7,14.7L66.5,64.3c-2.2,2.2-2.2,5.9,0,8.1c2.2,2.2,5.9,2.2,8.1,0   l18.6-18.6c2.2-2.2,2.2-5.9,0-8.1L74.5,27c-2.2-2.2-5.9-2.2-8.1,0C65.3,28.1,64.7,29.6,64.7,31z M33.9,73.2c2.2-2.2,2.2-5.9,0-8.1   L19.4,50.6L34,36.1c2.2-2.2,2.2-5.9,0-8.1c-2.2-2.2-5.9-2.2-8.1,0L7.3,46.6c-1.1,1.1-1.7,2.5-1.7,4.1c0,1.5,0.6,3,1.7,4.1   l18.6,18.6C28.1,75.5,31.7,75.5,33.9,73.2z M56.4,63.5V36.8c0-3.2-2.3-5.7-5.5-5.7s-5.5,2.6-5.5,5.7v26.8c0,3.2,2.3,5.7,5.5,5.7   S56.4,66.7,56.4,63.5z"></path></g></svg>