<svg width="26" height="26" viewBox="0 0 26 26" fill="none" xmlns="http://www.w3.org/2000/svg">
<g clip-path="url(#clip0_826_14)">
<path d="M19.6212 4.90916L20.1004 7.624H18.5052L18.088 5.26072C17.9122 4.26463 17.2774 3.85447 16.3302 4.01072L3.24422 6.31541C2.27742 6.49119 1.83797 7.09666 2.01375 8.10252L3.58601 17.0087C3.76179 18.0048 4.38679 18.4247 5.34383 18.2587L5.80281 18.1779V19.7753L5.59773 19.8115C3.57625 20.163 2.39461 19.3427 2.05281 17.3603L0.451251 8.28806C0.0996879 6.30564 0.929766 5.13377 2.94148 4.77244L16.086 2.45798C18.088 2.10642 19.2794 2.92673 19.6212 4.90916Z" fill="black" fill-opacity="0.85"/>
<path d="M8.85938 22.8876H22.209C24.2402 22.8876 25.2656 21.872 25.2656 19.8603V10.6513C25.2656 8.63962 24.2402 7.62399 22.209 7.62399H8.85938C6.81837 7.62399 5.80273 8.63962 5.80273 10.6513V19.8603C5.80273 21.8818 6.81837 22.8876 8.85938 22.8876ZM8.88867 21.3154C7.91211 21.3154 7.375 20.7978 7.375 19.7822V10.7392C7.375 9.7236 7.91211 9.19626 8.88867 9.19626H22.1797C23.1465 9.19626 23.6933 9.7236 23.6933 10.7392V19.7822C23.6933 20.7978 23.1465 21.3154 22.1797 21.3154H8.88867ZM8.89843 22.37H21.9648C23.6738 22.37 24.5722 21.5107 24.5722 19.8017V19.1767L20.0508 14.8993C19.6699 14.5478 19.2011 14.372 18.7226 14.372C18.2441 14.372 17.8144 14.5282 17.4043 14.8896L13.459 18.3857L11.8965 16.9697C11.5156 16.6279 11.125 16.4716 10.7051 16.4716C10.3242 16.4716 9.95312 16.6279 9.58203 16.9501L6.29101 19.8115C6.29101 21.5107 7.19921 22.37 8.89843 22.37Z" fill="black" fill-opacity="0.85"/>
<path d="M12.7558 15.1142C13.8984 15.1142 14.8261 14.1669 14.8261 13.0243C14.8261 11.9013 13.8984 10.9541 12.7558 10.9541C11.6133 10.9541 10.6953 11.9013 10.6953 13.0243C10.6953 14.1669 11.6133 15.1142 12.7558 15.1142Z" fill="black" fill-opacity="0.85"/>
</g>
<defs>
<clipPath id="clip0_826_14">
<rect width="25.2546" height="21.2423" fill="white" transform="translate(0.372803 2.37885)"/>
</clipPath>
</defs>
</svg>
