<svg width="28" height="28" viewBox="0 0 28 28" fill="none" xmlns="http://www.w3.org/2000/svg">
<g clip-path="url(#clip0_832_20)">
<path fill-rule="evenodd" clip-rule="evenodd" d="M0 7C0 3.13401 3.13401 0 7 0H21C24.866 0 28 3.13401 28 7V21C28 24.866 24.866 28 21 28H7C3.13401 28 0 24.866 0 21V7ZM9.54688 20.8184H22.8867C23.3262 20.8184 23.6777 20.4766 23.6777 20.0371C23.6777 19.5879 23.3262 19.2461 22.8867 19.2461H9.54688C9.09766 19.2461 8.75586 19.5879 8.75586 20.0371C8.75586 20.4766 9.09766 20.8184 9.54688 20.8184ZM5.225 21.25C5.90155 21.25 6.45 20.7015 6.45 20.025C6.45 19.3485 5.90155 18.8 5.225 18.8C4.54845 18.8 4 19.3485 4 20.025C4 20.7015 4.54845 21.25 5.225 21.25ZM9.54688 14.9199H22.8867C23.3262 14.9199 23.6777 14.5684 23.6777 14.1289C23.6777 13.6894 23.3262 13.3477 22.8867 13.3477H9.54688C9.09766 13.3477 8.75586 13.6894 8.75586 14.1289C8.75586 14.5684 9.09766 14.9199 9.54688 14.9199ZM5.225 15.35C5.90155 15.35 6.45 14.8016 6.45 14.125C6.45 13.4485 5.90155 12.9 5.225 12.9C4.54845 12.9 4 13.4485 4 14.125C4 14.8016 4.54845 15.35 5.225 15.35ZM9.54688 9.01172H22.8867C23.3262 9.01172 23.6777 8.66992 23.6777 8.23047C23.6777 7.78125 23.3262 7.43945 22.8867 7.43945H9.54688C9.09766 7.43945 8.75586 7.78125 8.75586 8.23047C8.75586 8.66992 9.09766 9.01172 9.54688 9.01172ZM5.225 9.45C5.90155 9.45 6.45 8.90155 6.45 8.225C6.45 7.54845 5.90155 7 5.225 7C4.54845 7 4 7.54845 4 8.225C4 8.90155 4.54845 9.45 5.225 9.45Z" fill="black"/>
</g>
<defs>
<clipPath id="clip0_832_20">
<rect width="28" height="28" fill="white"/>
</clipPath>
</defs>
</svg>
