<svg width="1772" height="2216" viewBox="0 0 1772 2216" fill="none" xmlns="http://www.w3.org/2000/svg">
<path d="M435.686 1723C424.686 1723 416.852 1720.67 412.186 1716C407.852 1711.33 405.686 1704.17 405.686 1694.5V1411C405.686 1401.33 407.852 1394.33 412.186 1390C416.852 1385.33 424.852 1383 436.186 1383H493.686C501.019 1383 506.852 1384 511.186 1386C515.519 1387.67 518.852 1391.17 521.186 1396.5L579.686 1543L638.186 1396.5C640.519 1391.17 643.852 1387.67 648.186 1386C652.519 1384 658.352 1383 665.686 1383H723.186C734.519 1383 742.352 1385.33 746.686 1390C751.352 1394.33 753.686 1401.33 753.686 1411V1694.5C753.686 1704.17 751.352 1711.33 746.686 1716C742.352 1720.67 734.686 1723 723.686 1723H675.686C664.686 1723 656.852 1720.67 652.186 1716C647.519 1711.33 645.186 1704.17 645.186 1694.5V1558L615.686 1626C611.686 1635.67 607.352 1642.67 602.686 1647C598.019 1651 590.352 1653 579.686 1653C569.019 1653 561.352 1651 556.686 1647C552.019 1642.67 547.686 1635.67 543.686 1626L514.186 1558V1694.5C514.186 1704.17 511.852 1711.33 507.186 1716C502.852 1720.67 495.019 1723 483.686 1723H435.686ZM818.498 1723C807.498 1723 799.665 1720.67 794.998 1716C790.665 1711.33 788.498 1704.17 788.498 1694.5V1411.5C788.498 1401.83 790.665 1394.67 794.998 1390C799.665 1385.33 807.498 1383 818.498 1383H937.998C987.998 1383 1024.33 1393 1047 1413C1070 1432.67 1081.5 1462.5 1081.5 1502.5C1081.5 1542.5 1070 1572.33 1047 1592C1024.33 1611.67 988.165 1621.5 938.498 1621.5H908.498V1694.5C908.498 1704.17 906.165 1711.33 901.498 1716C897.165 1720.67 889.331 1723 877.998 1723H818.498ZM927.498 1536.5C938.165 1536.5 946.498 1533.67 952.498 1528C958.831 1522.33 961.998 1513.83 961.998 1502.5C961.998 1490.83 958.831 1482.17 952.498 1476.5C946.498 1470.83 938.165 1468 927.498 1468H893.498V1536.5H927.498ZM1225.6 1730.5C1197.94 1730.5 1172.27 1727.83 1148.6 1722.5C1125.27 1717.17 1106.6 1709.67 1092.6 1700C1088.6 1697 1086.6 1693.67 1086.6 1690C1086.6 1687 1088.1 1682.83 1091.1 1677.5L1116.1 1634.5C1118.77 1629.83 1121.94 1627.5 1125.6 1627.5C1127.94 1627.5 1131.77 1628.83 1137.1 1631.5C1145.77 1635.83 1156.27 1639.5 1168.6 1642.5C1181.27 1645.17 1193.77 1646.5 1206.1 1646.5C1222.77 1646.5 1235.1 1644 1243.1 1639C1251.44 1634 1255.6 1626.33 1255.6 1616C1255.6 1600 1244.77 1592 1223.1 1592H1184.6C1173.6 1592 1165.77 1589.67 1161.1 1585C1156.77 1580.33 1154.6 1573.17 1154.6 1563.5V1536.5C1154.6 1526.83 1156.77 1519.67 1161.1 1515C1165.77 1510.33 1173.6 1508 1184.6 1508H1215.1C1226.1 1508 1234.1 1506 1239.1 1502C1244.1 1498 1246.6 1491.83 1246.6 1483.5C1246.6 1467.5 1232.77 1459.5 1205.1 1459.5C1182.77 1459.5 1161.6 1464.5 1141.6 1474.5C1136.27 1477.17 1132.44 1478.5 1130.1 1478.5C1126.44 1478.5 1123.27 1476.17 1120.6 1471.5L1095.6 1428.5C1092.6 1423.17 1091.1 1419 1091.1 1416C1091.1 1412.33 1093.1 1409 1097.1 1406C1111.44 1396.33 1129.27 1388.83 1150.6 1383.5C1171.94 1378.17 1196.27 1375.5 1223.6 1375.5C1252.6 1375.5 1277.77 1379.83 1299.1 1388.5C1320.77 1396.83 1337.27 1408.83 1348.6 1424.5C1360.27 1440.17 1366.1 1458.67 1366.1 1480C1366.1 1509.33 1355.94 1532 1335.6 1548C1361.94 1563.33 1375.1 1587.67 1375.1 1621C1375.1 1654.67 1362.27 1681.33 1336.6 1701C1310.94 1720.67 1273.94 1730.5 1225.6 1730.5Z" fill="black"/>
<path d="M332.072 2216H1439.91C1623.22 2216 1771.99 2067.2 1771.99 1883.86L1772 664.264C1772 563.291 1732.15 467.638 1660.42 395.9L1373.5 111.593C1301.78 39.8561 1206.13 0 1105.18 0H332.085C148.772 0 0 148.794 0 332.134V1881.21C0 2067.2 148.781 2216 332.085 2216L332.072 2216ZM1216.75 268.36L1503.67 555.324H1328.33C1267.22 555.324 1216.75 504.838 1216.75 443.731L1216.75 268.36ZM220.491 332.132C220.491 271.015 270.97 220.539 332.067 220.539H996.237V443.734C996.237 627.074 1145.01 775.868 1328.32 775.868H1548.83V1883.87C1548.83 1944.99 1498.35 1995.46 1437.25 1995.46L332.076 1995.47C270.968 1995.47 220.5 1944.98 220.5 1883.88L220.491 332.132Z" fill="black"/>
<path d="M763.907 356.525C754.077 348.255 741.362 345.864 729.405 349.958L535.474 416.505C514.452 423.718 500.282 443.877 500.282 466.573V752.195C500.282 759.262 494.487 765.058 487.607 764.466C475.58 763.428 462.303 765.399 449.268 770.812C414.983 785.051 395.489 817.534 405.725 843.364C415.962 869.197 452.055 878.594 486.343 864.354C514.26 852.76 532.361 829.071 532.6 806.727H532.611V527.003C532.611 522.531 535.453 518.555 539.686 517.102L730.786 451.529C737.59 449.194 744.671 454.243 744.671 461.429V663.749C744.671 670.816 738.874 676.614 731.994 676.02C719.963 674.98 706.678 676.949 693.638 682.365C659.353 696.603 639.859 729.086 650.095 754.917C660.331 780.747 696.426 790.147 730.713 775.907C758.858 764.218 776.998 740.238 776.943 717.732C776.951 717.679 777 717.647 777 717.592V387.002C777.004 375.412 772.661 363.874 763.914 356.516L763.907 356.525Z" fill="black"/>
</svg>
