<svg xmlns:dc="http://purl.org/dc/elements/1.1/" xmlns:cc="http://creativecommons.org/ns#" xmlns:rdf="http://www.w3.org/1999/02/22-rdf-syntax-ns#" xmlns:svg="http://www.w3.org/2000/svg" xmlns="http://www.w3.org/2000/svg" xmlns:sodipodi="http://sodipodi.sourceforge.net/DTD/sodipodi-0.dtd" xmlns:inkscape="http://www.inkscape.org/namespaces/inkscape" viewBox="0 0 16.933333 16.933334" version="1.1" x="0px" y="0px"><g><path d="M 8.4441135,2.2703044e-4 A 0.52924514,0.52923315 0 0 0 8.121636,0.12683793 C 5.6962702,2.2056579 3.2924492,3.5743762 0.9124033,4.254353 A 0.52924514,0.52923315 0 0 0 0.5315284,4.8129912 c 0.3856677,4.0163502 2.869184,8.0135038 7.594242,11.9959948 a 0.52924514,0.52923315 0 0 0 0.6816472,0 C 13.550702,12.814435 16.012232,8.8182798 16.40166,4.8145417 A 0.52924514,0.52923315 0 0 0 16.020785,4.254353 C 13.647563,3.5746973 11.244401,2.2136921 8.8115519,0.12683793 A 0.52924514,0.52923315 0 0 0 8.4751211,2.2703044e-4 a 0.52924514,0.52923315 0 0 0 -0.031008,0 z M 8.4673695,1.1779667 C 10.722368,3.0530297 12.98896,4.341835 15.266787,5.0724144 14.816601,8.5009298 12.675622,12.030788 8.4658187,15.67414 4.2705582,12.040499 2.1138339,8.508952 1.6664012,5.0724144 3.9516175,4.3404154 6.2186237,3.0470501 8.4673695,1.1779667 Z m -0.00156,4.1135621 c -0.9002064,0 -1.6874649,0.5065911 -2.0919695,1.2485385 L 5.6219079,5.9380197 A 0.52919222,0.52918023 0 0 0 5.2818593,5.8207107 0.52919222,0.52918023 0 0 0 4.877729,6.0196706 a 0.52919222,0.52918023 0 0 0 0.08372,0.744162 l 1.1235034,0.8997127 c -1.69e-5,0.00365 -5.292e-4,0.00719 -5.292e-4,0.010853 V 7.937956 H 5.2916663 A 0.52919222,0.52918023 0 0 0 4.7624724,8.4671379 0.52919222,0.52918023 0 0 0 5.2916663,8.9963196 h 0.792757 v 0.2640742 c 0,0.00349 5.027e-4,0.00685 5.292e-4,0.010335 L 4.9614491,10.170441 a 0.52919222,0.52918023 0 0 0 -0.08372,0.744162 0.52919222,0.52918023 0 0 0 0.7441789,0.08217 l 0.7519304,-0.602047 c 0.4045671,0.741737 1.1919186,1.248538 2.0919695,1.248538 0.900051,0 1.6878591,-0.506801 2.0930031,-1.248538 l 0.752448,0.602047 a 0.52919222,0.52918023 0 0 0 0.744179,-0.08217 0.52919222,0.52918023 0 0 0 -0.08372,-0.744162 L 10.848214,9.2707288 c 1.5e-5,-0.00349 5.29e-4,-0.00684 5.29e-4,-0.010335 V 8.9963196 h 0.792758 A 0.52919222,0.52918023 0 0 0 12.170694,8.4671379 0.52919222,0.52918023 0 0 0 11.641501,7.937956 H 10.848743 V 7.6743988 c 0,-0.00366 -5.02e-4,-0.0072 -5.29e-4,-0.010853 l 1.123503,-0.899713 a 0.52919222,0.52918023 0 0 0 0.08372,-0.744162 0.52919222,0.52918023 0 0 0 -0.429454,-0.1968926 0.52919222,0.52918023 0 0 0 -0.314725,0.1152417 L 10.558811,6.5395505 C 10.153666,5.7978146 9.3658576,5.2915288 8.4658079,5.2915288 Z m 0,1.0583637 c 0.7420893,0 1.324018,0.5824327 1.324018,1.3245052 v 0.7793029 a 0.52919222,0.52918023 0 0 0 0,0.013435 v 0.7932565 c 0,0.7420729 -0.5819284,1.3239879 -1.324018,1.3239879 -0.7420889,0 -1.3224677,-0.581916 -1.3224677,-1.3239879 V 8.4805729 a 0.52919222,0.52918023 0 0 0 0,-0.013435 V 7.674398 c 0,-0.742072 0.5803788,-1.3245052 1.3224677,-1.3245055 z" style="color:#000000;font-style:normal;font-variant:normal;font-weight:normal;font-stretch:normal;font-size:medium;line-height:normal;font-family:sans-serif;font-variant-ligatures:normal;font-variant-position:normal;font-variant-caps:normal;font-variant-numeric:normal;font-variant-alternates:normal;font-variant-east-asian:normal;font-feature-settings:normal;font-variation-settings:normal;text-indent:0;text-align:start;text-decoration:none;text-decoration-line:none;text-decoration-style:solid;text-decoration-color:#000000;letter-spacing:normal;word-spacing:normal;text-transform:none;writing-mode:lr-tb;direction:ltr;text-orientation:mixed;dominant-baseline:auto;baseline-shift:baseline;text-anchor:start;white-space:normal;shape-padding:0;shape-margin:0;inline-size:0;clip-rule:nonzero;display:inline;overflow:visible;visibility:visible;opacity:1;isolation:auto;mix-blend-mode:normal;color-interpolation:sRGB;color-interpolation-filters:linearRGB;solid-color:#000000;solid-opacity:1;vector-effect:none;fill:#000000;fill-opacity:1;fill-rule:evenodd;stroke:none;stroke-width:1.05833;stroke-linecap:butt;stroke-linejoin:round;stroke-miterlimit:4;stroke-dasharray:none;stroke-dashoffset:0;stroke-opacity:1;color-rendering:auto;image-rendering:auto;shape-rendering:auto;text-rendering:auto;enable-background:accumulate;stop-color:#000000;stop-opacity:1"></path></g></svg>