<svg width="847" height="847" viewBox="0 0 847 847" fill="none" xmlns="http://www.w3.org/2000/svg">
<path fill-rule="evenodd" clip-rule="evenodd" d="M611.736 351.596C622.881 353.253 633.774 355.685 644.357 358.835L644.518 165.142C644.567 141.282 682.461 141.325 682.411 165.177L682.238 373.778C694.303 379.787 705.785 386.792 716.576 394.686L716.783 168.699C716.846 99.3388 611.966 99.2331 611.903 168.603L611.736 351.596ZM369.716 469.597C339.254 452.063 290.581 466.69 290.538 513.539L290.386 679.61C290.339 731.277 349.493 743.862 378.23 717.296C371.12 706.541 364.863 695.173 359.553 683.289C358.857 704.501 323.358 704.279 323.405 682.663L323.545 511.487C323.582 492.788 345.897 488.796 355.448 499.48C359.52 489.145 364.295 479.164 369.716 469.597ZM554.347 350.02L554.352 344.22C554.415 276.01 451.275 275.916 451.212 344.126L451.175 384.72C461.708 378.164 472.791 372.41 484.34 367.543L484.36 342.24C484.359 317.5 520.515 317.533 520.516 342.273L520.505 355.639C531.507 352.98 542.807 351.087 554.347 350.02ZM233.045 648.088L233.016 679.568C232.954 747.778 129.814 747.684 129.876 679.474L129.905 647.994C129.967 579.784 233.107 579.878 233.045 648.088Z" fill="black"/>
<path d="M576.5 375C459.823 375 365 469.823 365 586.5C365 703.177 459.823 798 576.5 798C693.177 798 788 703.177 788 586.5C788 469.823 693.177 375 576.5 375ZM576.5 714.987C559.58 714.987 545.656 701.062 545.656 684.143C545.656 667.046 559.58 653.299 576.5 653.299C593.42 653.299 607.344 667.046 607.344 684.143C607.344 701.062 593.42 714.987 576.5 714.987ZM601.527 603.597C600.47 616.639 589.542 626.862 576.5 626.862C563.458 626.862 552.53 616.639 551.473 603.597L541.426 476.52C540.193 461.891 551.825 449.378 566.454 449.378H586.546C601.175 449.378 612.807 461.891 611.574 476.52L601.527 603.597Z" fill="black"/>
</svg>
