<svg xmlns="http://www.w3.org/2000/svg" xmlns:xlink="http://www.w3.org/1999/xlink" version="1.1" x="0px" y="0px" viewBox="0 0 32 32" enable-background="new 0 0 32 32" xml:space="preserve"><g><path d="M10.499999,12h5.0000019C15.7761431,12,16,11.7761431,16,11.500001V11.499999C16,11.2238569,15.7761431,11,15.500001,11   H10.499999C10.2238569,11,10,11.2238569,10,11.499999v0.0000019C10,11.7761431,10.2238569,12,10.499999,12z"></path><path d="M10.499999,15H21.5c0.2761421,0,0.5-0.2238579,0.5-0.499999V14.499999C22,14.2238579,21.7761421,14,21.5,14H10.499999   C10.2238569,14,10,14.2238569,10,14.499999v0.0000019C10,14.7761431,10.2238569,15,10.499999,15z"></path><path d="M10.499999,18H21.5c0.2761421,0,0.5-0.2238579,0.5-0.5l0,0c0-0.2761421-0.2238579-0.5-0.5-0.5H10.499999   C10.2238569,17,10,17.2238579,10,17.5l0,0C10,17.7761421,10.2238569,18,10.499999,18z"></path><path d="M10.499999,21H21.5c0.2761421,0,0.5-0.2238579,0.5-0.5l0,0c0-0.2761421-0.2238579-0.5-0.5-0.5H10.499999   C10.2238569,20,10,20.2238579,10,20.5l0,0C10,20.7761421,10.2238569,21,10.499999,21z"></path><path d="M10.499999,24H21.5c0.2761421,0,0.5-0.2238579,0.5-0.5l0,0c0-0.2761421-0.2238579-0.5-0.5-0.5H10.499999   C10.2238569,23,10,23.2238579,10,23.5l0,0C10,23.7761421,10.2238569,24,10.499999,24z"></path><path d="M27,2H9C8.4476929,2,8,2.4476929,8,3v1H7C6.4476929,4,6,4.4476929,6,5v24c0,0.5522461,0.4476929,1,1,1h18   c0.5523071,0,1-0.4477539,1-1v-1h1c0.5523071,0,1-0.4477539,1-1V3C28,2.4476929,27.5523071,2,27,2z M7,29V5h14v3   c0,0.5522461,0.4476929,1,1,1h3v20H7z M22,5.4141846L24.5858154,8H22V5.4141846z M27,27h-1V8l-4-4H9V3h18V27z"></path></g></svg>