<svg width="126" height="126" viewBox="0 0 126 126" fill="none" xmlns="http://www.w3.org/2000/svg">
<path fill-rule="evenodd" clip-rule="evenodd" d="M27.166 19C28.1182 13.3246 33.0541 9 39.0001 9H97.0001C103.628 9 109 14.3726 109 21V95C109 100.946 104.676 105.882 99.0001 106.834V97.4722C100.228 96.3736 101 94.777 101 93V23C101 19.6863 98.3138 17 95.0001 17H41.0001C39.2231 17 37.6265 17.7725 36.5279 19H27.166Z" fill="black"/>
<path d="M27.166 19L26.6729 18.9173L26.5751 19.5H27.166V19ZM99.0001 106.834H98.5001V107.425L99.0828 107.327L99.0001 106.834ZM99.0001 97.4722L98.6666 97.0996L98.5001 97.2487V97.4722H99.0001ZM36.5279 19V19.5H36.7514L36.9005 19.3335L36.5279 19ZM39.0001 8.5C32.8059 8.5 27.6648 13.005 26.6729 18.9173L27.6591 19.0827C28.5715 13.6442 33.3024 9.5 39.0001 9.5V8.5ZM97.0001 8.5H39.0001V9.5H97.0001V8.5ZM109.5 21C109.5 14.0964 103.904 8.5 97.0001 8.5V9.5C103.351 9.5 108.5 14.6487 108.5 21H109.5ZM109.5 95V21H108.5V95H109.5ZM99.0828 107.327C104.995 106.335 109.5 101.194 109.5 95H108.5C108.5 100.698 104.356 105.429 98.9174 106.341L99.0828 107.327ZM98.5001 97.4722V106.834H99.5001V97.4722H98.5001ZM99.3336 97.8448C100.663 96.6553 101.5 94.9251 101.5 93H100.5C100.5 94.6289 99.7926 96.0918 98.6666 97.0996L99.3336 97.8448ZM101.5 93V23H100.5V93H101.5ZM101.5 23C101.5 19.4101 98.59 16.5 95.0001 16.5V17.5C98.0377 17.5 100.5 19.9624 100.5 23H101.5ZM95.0001 16.5H41.0001V17.5H95.0001V16.5ZM41.0001 16.5C39.075 16.5 37.3448 17.3376 36.1553 18.6665L36.9005 19.3335C37.9083 18.2075 39.3712 17.5 41.0001 17.5V16.5ZM27.166 19.5H36.5279V18.5H27.166V19.5Z" fill="black"/>
<path d="M26 120H84C90.6274 120 96 114.627 96 108V53.5C96 52 95.5 51 94.6369 49.9444L81.125 36.5312L75.7812 42.2812L79.7929 46.2929C80.4229 46.9229 79.9767 48 79.0858 48L75 48V56.0715H88V106C88 109.314 85.3137 112 82 112H28C24.6863 112 22 109.314 22 106V36C22 32.6863 24.6863 30 28 30H62V50.0715C62 53.3852 64.6863 56.0715 68 56.0715H74.99V48L71 48C70.4477 48 70 47.5523 70 47V38.9142C70 38.0233 71.0771 37.5772 71.7071 38.2071L75.75 42.25L81.0946 36.5L68 23.5C67 22.5 65.5 22 64 22H26C19.3726 22 14 27.3726 14 34V108C14 114.627 19.3726 120 26 120Z" fill="black" stroke="black"/>
<path d="M50 49H34.5C33 49 31.5 50.2763 31.5 52C31.5 53.7237 33 55 34.5 55H50C51.5 55 53 53.6813 53 52C53 50.3187 51.5 49 50 49Z" fill="black" stroke="black"/>
<path d="M76 68H34.5C33 68 31.5 69.2763 31.5 71C31.5 72.7237 33 74 34.5 74H76C77.5 74 79 72.6813 79 71C79 69.3187 77.5 68 76 68Z" fill="black" stroke="black"/>
<path d="M76.5 87H35C33.5 87 32 88.2763 32 90C32 91.7237 33.5 93 35 93H76.5C78 93 79.5 91.6813 79.5 90C79.5 88.3187 78 87 76.5 87Z" fill="black" stroke="black"/>
</svg>
