<svg width="94" height="94" viewBox="0 0 94 94" fill="none" xmlns="http://www.w3.org/2000/svg">
<path d="M50.5449 85.354C66.9512 85.354 77.8887 79.4947 77.8887 70.7544C77.8887 63.1861 71.4434 61.2329 71.4434 57.0337C71.4434 51.5161 93.6602 49.7095 93.6602 34.0357C93.6602 18.2154 77.4004 7.76611 53.377 7.76611C21.8828 7.76611 0.544922 23.5864 0.544922 47.2193C0.544922 70.022 20.8086 85.354 50.5449 85.354ZM50.5449 77.8345C24.8613 77.8345 8.06448 65.5786 8.06448 47.2193C8.06448 28.0298 25.9356 15.2857 53.377 15.2857C73.2012 15.2857 86.1406 22.9029 86.1406 34.0357C86.1406 47.1216 63.7774 45.3638 63.7774 57.0825C63.7774 63.6743 70.3692 65.9204 70.3692 70.2661C70.3692 74.8072 62.459 77.8345 50.5449 77.8345ZM47.3711 69.0943C53.084 69.0943 57.7227 64.4068 57.7227 58.6939C57.7227 53.0298 53.084 48.3423 47.3711 48.3423C41.707 48.3423 37.0195 53.0298 37.0195 58.6939C37.0195 64.4068 41.707 69.0943 47.3711 69.0943ZM47.3711 64.1138C44.3926 64.1138 42 61.7212 42 58.6939C42 55.2759 44.5879 53.4204 47.2735 53.3716C50.0567 53.3228 52.791 55.1294 52.791 58.6939C52.791 61.7212 50.3985 64.1138 47.3711 64.1138Z" fill="black"/>
<path d="M20.3692 52.7368C24.0313 52.7368 26.961 49.7095 26.961 46.0474C26.961 42.3853 24.0313 39.4556 20.3692 39.4556C16.707 39.4556 13.7285 42.3853 13.7285 46.0474C13.7285 49.7095 16.707 52.7368 20.3692 52.7368Z" fill="black"/>
<path d="M34.334 40.2857C38.7774 40.2857 42.3906 36.77 42.3906 32.1802C42.3906 27.688 38.7774 24.1724 34.334 24.1724C29.793 24.1724 26.1309 27.688 26.1309 32.1802C26.1309 36.77 29.793 40.2857 34.334 40.2857Z" fill="black"/>
<path d="M53.7188 34.231C57.3809 34.231 60.3594 31.2525 60.3594 27.5904C60.3594 23.9282 57.3809 20.9497 53.7188 20.9497C50.0567 20.9497 47.0293 23.9282 47.0293 27.5904C47.0293 31.2525 50.0567 34.231 53.7188 34.231Z" fill="black"/>
<path d="M71.1991 36.7212C74.1777 36.7212 76.5702 34.2798 76.5702 31.2525C76.5702 28.274 74.1777 25.7837 71.1991 25.7837C68.1718 25.7837 65.6816 28.274 65.6816 31.2525C65.6816 34.2798 68.1718 36.7212 71.1991 36.7212Z" fill="black"/>
</svg>
