<svg width="847" height="847" viewBox="0 0 847 847" fill="none" xmlns="http://www.w3.org/2000/svg">
<path d="M649.11 655.37L646.11 639.88L761.92 462.58V110.02C761.92 78.13 710.03 122.82 710.03 142.18V391.39L630.27 513.15L603.04 495.34L677.41 381.8V358.13C628.86 371.87 507.27 416.74 507.27 521.71V655.37H649.11ZM197.55 655.37L200.55 639.88L84.7401 462.58V110.02C84.7401 78.13 136.63 122.82 136.63 142.18V391.39L216.39 513.15L243.62 495.34L169.25 381.8V358.13C217.8 371.87 339.39 416.74 339.39 521.71V655.37H197.55ZM372.02 655.37V521.71C372.02 471.15 349.97 432.4 319.95 403.16V297.84C319.95 248.48 272.73 233.28 247 228.7C247 181.01 210.53 154.89 169.25 140.93C167.45 77.22 52.1201 27.23 52.1201 110.02V472.17L166.08 646.51L164.38 655.37H113.17C113.17 696.95 113.17 738.47 113.17 780.05H414.83C414.83 738.47 414.83 696.95 414.83 655.37H372.02ZM145.8 687.99H382.21V747.43H145.8V687.99ZM247 261.5C263.74 265 287.33 274.17 287.33 297.84V376.61C274.1 367.54 260.36 359.8 247 353.2V261.5ZM214.38 338.98C195.8 331.84 179.74 327.12 169.25 324.39V175.44C188.26 183.15 214.38 198.55 214.38 225.41V338.98ZM474.64 655.37V521.71C474.64 471.15 496.69 432.4 526.7 403.16V297.84C526.7 248.48 573.92 233.28 599.65 228.7C599.65 181.01 636.13 154.89 677.41 140.93C679.2 77.22 794.54 27.23 794.54 110.02V472.17L680.57 646.51L682.28 655.37H733.49C733.49 696.95 733.49 738.47 733.49 780.05H431.83C431.83 738.47 431.83 696.95 431.83 655.37H474.64ZM700.86 687.99H464.45V747.43H700.86V687.99ZM599.65 261.5C582.92 265 559.33 274.17 559.33 297.84V376.61C572.55 367.54 586.3 359.8 599.65 353.2V261.5ZM632.28 338.98C650.86 331.84 666.91 327.12 677.41 324.39V175.44C658.39 183.15 632.28 198.55 632.28 225.41V338.98Z" fill="black"/>
</svg>
