<svg width="22" height="22" viewBox="0 0 22 22" fill="none" xmlns="http://www.w3.org/2000/svg">
<g clip-path="url(#clip0_828_20)">
<path d="M1.26855 3.51465C1.26855 7.54785 3.19238 10.0576 7.05957 11.249C7.56738 11.8936 8.14355 12.4014 8.69043 12.7627V16.9619H7.47949C6.10253 16.9619 5.38964 17.7529 5.38964 19.0518V20.9561C5.38964 21.3955 5.73144 21.6982 6.1416 21.6982H15.4971C15.9073 21.6982 16.2491 21.3955 16.2491 20.9561V19.0518C16.2491 17.7529 15.5264 16.9619 14.1495 16.9619H12.9483V12.7725C13.4952 12.4111 14.0811 11.8936 14.5889 11.249C18.4463 10.0479 20.3702 7.54785 20.3702 3.51465C20.3702 2.50879 19.7452 1.89355 18.7002 1.89355H16.8057C16.6495 0.897461 15.9463 0.291992 14.7647 0.291992H6.87402C5.70214 0.291992 4.98925 0.887695 4.833 1.89355H2.93847C1.89355 1.89355 1.26855 2.50879 1.26855 3.51465ZM2.66503 3.65137C2.66503 3.49511 2.78222 3.36816 2.94824 3.36816H4.78417V5.28222C4.78417 6.77637 5.1748 8.16308 5.78027 9.35449C3.73925 8.3291 2.66503 6.43457 2.66503 3.65137ZM6.25878 5.55566V2.38183C6.25878 2.02051 6.51269 1.7666 6.87402 1.7666H14.7647C15.126 1.7666 15.3799 2.02051 15.3799 2.38183V5.55566C15.3799 9.03222 12.1768 12.1475 10.8193 12.1475C9.46192 12.1475 6.25878 9.03222 6.25878 5.55566ZM6.86425 20.2236V19.0518C6.86425 18.6807 7.10839 18.4365 7.47949 18.4365H14.1495C14.5303 18.4365 14.7745 18.6807 14.7745 19.0518V20.2236H6.86425ZM10.165 16.9619V13.5147C10.3994 13.583 10.6143 13.6123 10.8193 13.6123C11.0244 13.6123 11.2393 13.583 11.4737 13.5147V16.9619H10.165ZM15.8584 9.35449C16.4639 8.16308 16.8545 6.77637 16.8545 5.28222V3.36816H18.6905C18.8565 3.36816 18.9737 3.49511 18.9737 3.65137C18.9737 6.43457 17.8995 8.3291 15.8584 9.35449Z" fill="black" fill-opacity="0.85"/>
</g>
<defs>
<clipPath id="clip0_828_20">
<rect width="19.4629" height="21.416" fill="white" transform="translate(1.26855 0.291992)"/>
</clipPath>
</defs>
</svg>
