<?xml version="1.0" encoding="UTF-8"?>
<svg width="1200pt" height="1200pt" version="1.1" viewBox="0 0 1200 1200" xmlns="http://www.w3.org/2000/svg">
 <path d="m741.04 633.98c20.09-12.938 52.105-3.2031 62.734 1.6328 3.5625 1.6445 62.426 27.996 108.52-1.3906 31.66-20.188 47.715-59.594 47.715-117.13v-152c0-13.246-10.754-24-24-24h-122.18c-47.953 0-79.98-9.5508-90.203-26.891-11.195-18.984 4.0547-47.617 4.1523-47.785 1.2109-2.1133 29.172-52.246 4.0078-95.508-19.633-33.781-63.973-50.906-131.77-50.906s-112.14 17.125-131.77 50.902c-25.164 43.262 2.7969 93.395 3.9375 95.398 0.16797 0.28906 15.406 28.922 4.2227 47.902-10.223 17.34-42.254 26.891-90.203 26.891l-122.18 0.007812c-13.246 0-24 10.754-24 24v690.9c0 13.246 10.754 24 24 24h672c13.246 0 24-10.754 24-24v-152c0-57.539-16.055-96.949-47.723-117.13-46.57-29.664-106.08-2.5195-108.5-1.3906-10.633 4.8359-42.672 14.578-62.746 1.6328-20.988-13.5-25.391-49.094-25.391-76.57 0.007812-27.473 4.4102-63.051 25.398-76.551zm-25.68 193.69c46.586 29.688 106.09 2.5195 108.6 1.3555 0.37109-0.17969 38.723-16.836 62.531-1.6797 21.082 13.441 25.512 49.105 25.512 76.645v128h-624v-642.91h98.184c67.801 0 112.15-17.125 131.77-50.902 25.164-43.273-2.8086-93.406-3.9375-95.398-0.16797-0.27734-15.406-28.922-4.2227-47.902 10.223-17.336 42.262-26.887 90.203-26.887s79.98 9.5508 90.203 26.891c11.195 18.984-4.0547 47.617-4.1523 47.785-1.1992 2.1133-29.172 52.246-4.0078 95.52 19.633 33.77 63.973 50.902 131.77 50.902l98.184 0.003906v128c0 27.48-4.4023 63.059-25.391 76.559-20.074 12.949-52.066 3.2148-62.723-1.6328-3.4336-1.5703-62.352-28.02-108.53 1.3906-31.668 20.184-47.723 59.594-47.723 117.13 0.007812 57.531 16.062 96.938 47.719 117.12z"/>
</svg>
