<svg width="100" height="101" viewBox="0 0 100 101" fill="none" xmlns="http://www.w3.org/2000/svg">
<path d="M97.1 42.6C91.7 37 86.1 36.1 80.7 35.3C75.7 34.5 71 33.8 66.5 29.4L67.6 27.1C68 26.4 67.6 25.5 66.9 25.1C66.5 24.9 66.1 24.9 65.8 25C65.4 25.1 65.1 25.4 65 25.8L50 56.6L35.1 25.7C34.7 25 33.9 24.6 33.1 25C32.7 25.2 32.5 25.5 32.3 25.8C32.2 26.2 32.2 26.6 32.4 26.9L33.5 29.2C28.9 33.7 24.2 34.4 19.3 35.1C13.9 35.9 8.3 36.8 2.9 42.4C2.5 42.8 2.4 43.5 2.6 44.1L12.9 65.4C13.1 65.8 13.5 66.1 14 66.2C14.5 66.3 15 66.1 15.3 65.8C20 60.9 24.9 60.2 30 59.4C33.3 58.9 36.7 58.3 40.1 56.7C41.8 55.9 43.5 54.7 45.1 53.3L48.3 59.9L41.6 73.8C41.4 74.2 41.4 74.6 41.5 74.9C41.6 75.3 41.9 75.6 42.3 75.7C42.5 75.8 42.7 75.8 42.9 75.8C43.1 75.8 43.2 75.8 43.4 75.7C43.8 75.6 44.1 75.3 44.3 74.9L50 63.5L55.7 75.3C56 75.8 56.5 76.1 57 76.1C57.2 76.1 57.4 76.1 57.6 76C58 75.8 58.2 75.5 58.4 75.1C58.5 74.7 58.5 74.3 58.3 74L51.6 60.1L54.8 53.5C56.4 54.9 58.1 56 59.8 56.9C63.2 58.5 66.6 59.1 69.9 59.6C75.1 60.4 79.9 61.2 84.6 66C84.9 66.4 85.4 66.5 85.9 66.4C86.4 66.3 86.8 66 87 65.6L97.3 44.3C97.6 43.8 97.5 43.1 97.1 42.6ZM92 48.6L89.8 53.1C88.4 51.9 87.4 51.3 85.8 50.5L88 45.9C89.6 46.7 90.6 47.3 92 48.6ZM83.1 43.8L85.3 39.2C87.1 39.6 88.6 40.2 90.1 41L87.9 45.6C86.1 44.7 85 44.4 83.1 43.8ZM87.4 58.2L85.3 62.5C84.1 61.4 82.8 60.6 81.4 59.8L83.4 55.6C85 56.4 85.9 56.9 87.4 58.2ZM63 36.5L65.1 32.2C66.4 33.4 67.8 34.4 69.2 35.1L67.2 39.3C65.5 38.5 64.5 37.9 63 36.5ZM76.9 42.3C75.3 42 74.3 41.7 72.6 41.2L74.6 37.1C76.4 37.6 78.2 37.9 79.7 38.1L77.5 42.5L76.9 42.3ZM78.4 43C80 43.3 81 43.6 82.7 44.1L80.5 48.7C78.8 48.2 77.7 48 76.1 47.6L75.5 47.5L77.7 43H78.4ZM72.1 41.5L69.9 46.1C68 45.5 67 45.1 65.1 44.3L67.3 39.7C69.2 40.6 70.2 40.9 72.1 41.5ZM70.1 46.3C71.9 46.8 72.9 47 74.5 47.4L75.1 47.5L72.9 52.1L72.2 51.9C70.6 51.6 69.6 51.3 67.9 50.8L70.1 46.3ZM73.1 52.4L73.8 52.5C75.4 52.8 76.4 53.1 78.2 53.6L76.2 57.7C74.5 57.2 72.7 57 71.1 56.7L73.1 52.4ZM80.7 48.9C82.6 49.4 83.6 49.8 85.5 50.6L83.3 55.2C81.5 54.3 80.4 54 78.5 53.4L80.7 48.9ZM67.5 51.1L65.3 55.7C63.6 55.3 62 54.7 60.5 53.9L62.7 49.4C64.5 50.2 65.6 50.5 67.5 51.1ZM64.8 44.4L62.6 49C60.8 48.1 59.9 47.6 58.4 46.2L60.6 41.7C62.1 43 63 43.5 64.8 44.4ZM37.3 49.3L39.5 53.8C38.1 54.6 36.5 55.2 34.7 55.6L32.5 51C34.4 50.5 35.5 50.2 37.3 49.3ZM41.6 46.1C40.1 47.5 39.1 48.1 37.4 48.9L35.2 44.3C37 43.4 37.9 42.9 39.4 41.5L41.6 46.1ZM16.6 55.6L18.6 59.8C17.2 60.6 15.9 61.5 14.7 62.5L12.6 58.2C14.1 56.9 15 56.4 16.6 55.6ZM14.5 50.6C16.3 49.7 17.3 49.4 19.3 48.9L21.5 53.5C19.6 54 18.6 54.4 16.7 55.3L14.5 50.6ZM32.8 39.3L30.8 35.1C32.2 34.3 33.6 33.3 34.9 32.2L37 36.5C35.5 37.9 34.5 38.5 32.8 39.3ZM34.9 44.3C33 45.1 32 45.5 30.1 46L27.9 41.5C29.8 41 30.8 40.6 32.7 39.7L34.9 44.3ZM22.5 42.5L20.4 38.2C22 38 23.8 37.7 25.5 37.2L27.5 41.3C25.8 41.8 24.7 42 23.2 42.4L22.5 42.5ZM22.3 42.8L24.5 47.3L23.9 47.5C22.3 47.8 21.2 48.1 19.5 48.6L17.3 44C19 43.5 20.1 43.3 21.6 42.9L22.3 42.8ZM26.3 52.6L27 52.5L29.1 56.8C27.5 57.1 25.7 57.4 24 57.8L22 53.7C23.6 53.2 24.7 52.9 26.3 52.6ZM27.1 52.1L24.9 47.5L25.5 47.4C27.1 47.1 28.1 46.8 29.9 46.3L32.1 50.9C30.4 51.4 29.3 51.6 27.8 52L27.1 52.1ZM12.1 45.6L9.9 41C11.3 40.2 12.9 39.6 14.7 39.2L16.9 43.8C15 44.4 13.9 44.7 12.1 45.6ZM14.2 50.5C12.6 51.3 11.6 51.8 10.2 53.1L8 48.6C9.4 47.3 10.4 46.8 12 46L14.2 50.5Z" fill="black"/>
</svg>
