<svg width="21" height="21" viewBox="0 0 21 21" fill="none" xmlns="http://www.w3.org/2000/svg">
<g clip-path="url(#clip0_963_34)">
<path d="M10.5 21C9.25 21 8.07917 20.7625 6.9875 20.2875C5.89583 19.8125 4.94583 19.1708 4.1375 18.3625C3.32917 17.5542 2.6875 16.6042 2.2125 15.5125C1.7375 14.4208 1.5 13.25 1.5 12H3.5C3.5 13.95 4.17917 15.6042 5.5375 16.9625C6.89583 18.3208 8.55 19 10.5 19C12.45 19 14.1042 18.3208 15.4625 16.9625C16.8208 15.6042 17.5 13.95 17.5 12C17.5 10.05 16.8208 8.39583 15.4625 7.0375C14.1042 5.67917 12.45 5 10.5 5H10.35L11.9 6.55L10.5 8L6.5 4L10.5 0L11.9 1.45L10.35 3H10.5C11.75 3 12.9208 3.2375 14.0125 3.7125C15.1042 4.1875 16.0542 4.82917 16.8625 5.6375C17.6708 6.44583 18.3125 7.39583 18.7875 8.4875C19.2625 9.57917 19.5 10.75 19.5 12C19.5 13.25 19.2625 14.4208 18.7875 15.5125C18.3125 16.6042 17.6708 17.5542 16.8625 18.3625C16.0542 19.1708 15.1042 19.8125 14.0125 20.2875C12.9208 20.7625 11.75 21 10.5 21ZM12 15C11.7167 15 11.4792 14.9042 11.2875 14.7125C11.0958 14.5208 11 14.2833 11 14V10C11 9.71667 11.0958 9.47917 11.2875 9.2875C11.4792 9.09583 11.7167 9 12 9H14C14.2833 9 14.5208 9.09583 14.7125 9.2875C14.9042 9.47917 15 9.71667 15 10V14C15 14.2833 14.9042 14.5208 14.7125 14.7125C14.5208 14.9042 14.2833 15 14 15H12ZM12.5 13.5H13.5V10.5H12.5V13.5Z" fill="black"/>
<path fill-rule="evenodd" clip-rule="evenodd" d="M10 10C10 9.44772 9.55228 9 9 9H6.5C5.94772 9 5.5 9.44772 5.5 10V11.6C5.5 12.1523 5.94772 12.6 6.5 12.6H8.5V13.8H6.5V15H9C9.55228 15 10 14.5523 10 14V10ZM7 10.2H8.5V11.4H7V10.2Z" fill="black"/>
</g>
<defs>
<clipPath id="clip0_963_34">
<rect width="21" height="21" fill="white"/>
</clipPath>
</defs>
</svg>
