<svg xmlns="http://www.w3.org/2000/svg" xmlns:xlink="http://www.w3.org/1999/xlink" version="1.1" x="0px" y="0px" viewBox="0 0 100 100" style="enable-background:new 0 0 100 100;" xml:space="preserve"><path d="M73.06,21.73c0.89-0.78,1.67-1.11,2.37-1.02c0.43,0.05,0.75,0.27,0.94,0.49c0.5,0.39,0.93,0.57,1.22,0.49  c0.55-0.14,0.95-1.17,1.2-1.78c0,0,0-0.01,0-0.01c0.35-0.87,0.59-1.79,0.73-2.72l0.02-0.13c0.24-0.84,0.54-1.68,0.64-1.95  c0.25-0.68,0.36-1.32,0.32-1.93c-0.01-0.26-0.04-0.55-0.07-0.85c-0.17-1.52-1.07-2.88-2.4-3.64C75.76,7.39,74,7.16,72.83,7.98  c-1.63,1.14-1.91,4.12-1.74,5.12c0.28,1.71-0.56,3.27-0.96,3.88C70.61,20.41,72.33,21.44,73.06,21.73z"></path><path d="M85.65,26.3c-0.11-0.05-0.4,0.06-0.8,0.45c-0.68,0.66-1.48,1.88-2.38,3.63c0,0.01-0.01,0.02-0.02,0.03  c-0.09,0.16-1.85,3.23-4.54,5.05c1.31-6.55-4.17-11.45-5.01-12.16c-0.83-0.23-3.58-1.32-4.3-5.94C66.66,16.71,58.6,14.21,51.98,15  c-5.41,0.64-6.77,1.12-7.07,1.26c-0.01,0.02-0.03,0.03-0.04,0.05c-0.06,0.07-6.42,6.94-8.89,14.65c-0.05,0.15-0.14,0.28-0.26,0.37  c-0.03,0.02-2.95,2.36-2.88,5.1c0.02,0.92,0.74,1.26,1.35,1.28c1.63,0.04,3.52-1.8,3.84-5.96c0.01-0.11,0.04-0.21,0.09-0.31  c0.02-0.03,1.54-2.82,3.34-5.65c3.34-5.26,4.71-6.16,5.53-6.35c0.19-0.05,0.4-0.01,0.57,0.09c0.03,0.02,3.33,1.89,9.41,1.67  c0.17-0.01,0.32,0.04,0.45,0.12c-1.21,3.24-4.28,11.54-5.93,16.93c-0.8,2.62-1.77,5.33-2.94,8.27c-0.74,1.86-1.32,4.58,0.18,7.01  c0.9,1.46,2.46,2.68,4.63,3.63c2.64,1.15,6.2,1.92,10.59,2.29L70.54,60c0.25,0.02,0.48,0.16,0.61,0.38  c0.13,0.22,0.14,0.49,0.03,0.72c-0.02,0.05-2.44,5.18-4.06,10.03c-1.06,3.18-2.42,6.23-4.06,9.07c-1.85,3.22-2.22,4.15-2.26,4.41  c0.05,0.41,1,1.82,3.08,3.39c2.85,2.15,5.85,3.12,8.05,2.6c0.66-0.16,1.05-0.29,1.28-0.39c-0.23-0.18-0.56-0.41-0.83-0.59  c-1.05-0.72-2.49-1.7-3.14-3.14c-0.22-0.5-0.48-0.95-0.72-1.39c-0.62-1.12-1.27-2.29-1.27-3.95c0-1.76,0.71-3.89,2.25-6.73  c1.39-2.55,3.24-5.15,5.02-7.68c1.59-2.24,3.1-4.36,4.01-6.1c0.86-1.63,1.1-2.76,0.71-3.27c-0.88-1.14-3.95-3.32-7.84-5.56  c-3.78-2.18-7.21-3.78-8.55-3.98c-0.01,0-0.03-0.01-0.04-0.01c-0.01,0-0.02,0-0.03-0.01c-0.03-0.01-0.06-0.02-0.08-0.03  c0,0-0.01,0-0.01,0c-0.03-0.01-0.05-0.02-0.07-0.03c0,0,0,0-0.01,0c-0.01,0-0.01-0.01-0.02-0.01c-0.01-0.01-0.03-0.02-0.04-0.03  c-0.01-0.01-0.02-0.01-0.03-0.02c-0.01-0.01-0.02-0.02-0.03-0.03c-0.01-0.01-0.02-0.02-0.03-0.02c-0.01-0.01-0.02-0.02-0.03-0.02  c-0.01-0.01-0.02-0.02-0.03-0.03c-0.01-0.01-0.01-0.02-0.02-0.02c-0.01-0.01-0.02-0.02-0.03-0.03c-0.01-0.01-0.01-0.02-0.02-0.03  c-0.01-0.01-0.02-0.02-0.02-0.03c-0.01-0.01-0.01-0.02-0.02-0.03c-0.01-0.01-0.01-0.02-0.02-0.03c-0.01-0.01-0.01-0.02-0.02-0.04  c0-0.01-0.01-0.02-0.01-0.03c-0.01-0.01-0.01-0.03-0.01-0.04c0-0.01-0.01-0.02-0.01-0.03c0-0.01-0.01-0.03-0.01-0.04  c0-0.01,0-0.02-0.01-0.03c0-0.01-0.01-0.03-0.01-0.04c0-0.01,0-0.02,0-0.03c0-0.01,0-0.03,0-0.04c0-0.01,0-0.03,0-0.04  c0-0.01,0-0.02,0-0.03c0-0.02,0-0.03,0-0.05c0-0.01,0-0.01,0-0.02c0,0,0-0.01,0-0.01c0-0.02,0.01-0.03,0.01-0.05  c0-0.01,0-0.02,0.01-0.03c0-0.01,0.01-0.03,0.01-0.04c0-0.01,0.01-0.03,0.01-0.04c0-0.01,0.01-0.02,0.01-0.03  c0.01-0.01,0.01-0.03,0.02-0.04c0,0,0-0.01,0-0.01c0.23-0.43,4.85-9.21,9.44-15.37c0.71,3.23,2.35,8.83,3.62,9.45  c0.19,0.09,0.46,0.17,0.89-0.06c1.97-1.07,4.85-4.45,6.96-6.91c1.88-2.2,2.66-3.07,3.23-3.36c0.07-0.37,0.12-1.21-0.01-2.17  C86.22,26.91,85.83,26.38,85.65,26.3z"></path><path d="M47.42,54.36c-0.25-0.41-0.46-0.83-0.62-1.24c-1.04,3.09-2.92,7.89-5.59,11.84c-1.2,1.77-2.89,3.13-4.89,3.94  c-1.94,0.78-5.03,2.44-8.68,5.91c-2.34,2.22-4.29,3.54-5.98,4.03c-1.57,0.46-2.69,0.15-3.59-0.1c-0.4-0.11-0.74-0.21-1.08-0.23  c-0.25,0.15-0.99,1.06-1.92,3.86c-0.75,2.25-1.32,4.91-1.5,6.94c-0.2,2.26,0.15,3.03,0.28,3.12c0.2,0.08,0.35,0.1,0.46,0.05  c0.37-0.17,0.73-1.13,1.01-1.91c0.43-1.18,0.93-2.53,1.97-3.25c1.16-0.8,1.75-1.9,2.19-2.69c0.3-0.54,0.53-0.97,0.88-1.24  c0.03-0.02,0.09-0.08,0.16-0.14c0.84-0.79,3.06-2.87,16.99-8.93c0.6-0.26,1.25-0.41,1.92-0.44c1.4-0.07,3.93-0.6,5.24-3.36  c0.96-2.03,2.62-3.22,4.38-4.48c2.17-1.55,4.41-3.15,5.98-6.6C51.35,58.28,48.8,56.58,47.42,54.36z"></path></svg>