<svg width="102" height="102" viewBox="0 0 102 102" fill="none" xmlns="http://www.w3.org/2000/svg">
<path fill-rule="evenodd" clip-rule="evenodd" d="M85.05 44.8C85.35 46.6 85.55 48.5 85.55 50.5C85.55 52.4999 85.35 54.3999 85.15 56.2998L85.15 56.3L93.75 64.2C95.25 65.5 95.55 67.8 94.55 69.5L88.95 79.1C87.95 80.8 85.85 81.6 83.95 81L72.85 77.5C69.85 80 66.55 81.9 62.85 83.3L60.35 94.7C59.95 96.7 58.15 98.1 56.15 98.1H45.05C43.05 98.1 41.25 96.7 40.85 94.7L38.35 83.3C34.65 81.9 31.25 79.9 28.35 77.5L17.25 80.9C15.35 81.6 13.25 80.8 12.25 79L6.65003 69.4C5.65003 67.7 5.95003 65.5 7.45003 64.1L16.05 56.2C15.75 54.4 15.55 52.5 15.55 50.5C15.55 48.5 15.75 46.6 15.95 44.8L7.35003 36.9C5.85003 35.6 5.55003 33.3 6.55003 31.6L12.15 22C13.15 20.3 15.25 19.5 17.15 20.1L28.25 23.6C31.25 21.1 34.55 19.2 38.25 17.8L40.75 6.4C41.15 4.4 42.95 3 44.95 3H56.15C58.15 3 59.95 4.4 60.35 6.4L62.75 17.7C66.45 19.1 69.85 21.1 72.75 23.5L83.85 20.1C85.75 19.4 87.85 20.2 88.85 22L94.45 31.6C95.45 33.3 95.15 35.5 93.65 36.9L85.05 44.8ZM50.5 59C55.1944 59 59 55.1944 59 50.5C59 45.8056 55.1944 42 50.5 42C45.8056 42 42 45.8056 42 50.5C42 55.1944 45.8056 59 50.5 59Z" fill="black"/>
</svg>
