<svg width="105" height="85" viewBox="0 0 105 85" fill="none" xmlns="http://www.w3.org/2000/svg">
<path d="M0.015625 16.5509C0.015625 32.1271 14.2246 55.8087 27.7988 55.8087H29.7031C43.2773 55.8087 57.4375 32.1271 57.4375 16.5509C57.4375 7.85948 53.0918 3.31848 44.791 3.31848H40.2988V10.3497H44.9375C48.5508 10.3497 50.4062 12.4493 50.4062 16.4532C50.4062 27.9278 39.6152 48.7774 28.7266 48.7774C17.8379 48.7774 7.0469 27.9278 7.0469 16.4532C7.0469 12.4493 8.9023 10.3497 12.5156 10.3497H17.1543V3.31848H12.6621C4.3613 3.31848 0.015625 7.85948 0.015625 16.5509ZM45.2793 84.7149C56.9004 84.7149 63.248 74.9981 66.666 56.3946C69.3027 42.088 72.6719 38.0353 77.9941 38.0353C84.5371 38.0353 87.5645 44.6271 88.0527 58.006H95.084C93.863 40.086 88.9805 31.004 77.9941 31.004C68.4238 31.004 63.0527 37.4005 59.7324 54.9298C56.9004 69.7735 53.2871 77.6837 44.791 77.6837C36.7832 77.6837 32.1445 68.5528 32.1445 52.9278H25.1133C25.1133 72.9962 32.3887 84.7149 45.2793 84.7149Z" fill="black"/>
<path d="M18.8633 13.084C22.3301 13.084 25.1621 10.252 25.1621 6.78523C25.1621 3.31843 22.3301 0.486328 18.8633 0.486328C15.3965 0.486328 12.5156 3.31843 12.5156 6.78523C12.5156 10.252 15.3965 13.084 18.8633 13.084ZM38.541 13.084C42.0078 13.084 44.8398 10.252 44.8398 6.78523C44.8398 3.31843 42.0078 0.486328 38.541 0.486328C35.0742 0.486328 32.1934 3.31843 32.1934 6.78523C32.1934 10.252 35.0742 13.084 38.541 13.084ZM91.91 79.1973C98.6 79.1973 104.068 73.7285 104.068 66.9414C104.068 60.252 98.6 54.7832 91.91 54.7344C85.123 54.6855 79.6543 60.252 79.6543 66.9414C79.6543 73.7285 85.123 79.1973 91.91 79.1973ZM91.91 73.0938C88.4922 73.0938 85.7578 70.3106 85.7578 66.9414C85.7578 63.5234 88.4922 60.8379 91.91 60.8379C95.279 60.8379 98.014 63.5234 98.014 66.9414C98.014 70.3106 95.279 73.0938 91.91 73.0938Z" fill="black"/>
</svg>
