<svg xmlns="http://www.w3.org/2000/svg" xmlns:xlink="http://www.w3.org/1999/xlink" version="1.1" x="0px" y="0px" viewBox="0 0 100 100" style="enable-background:new 0 0 100 100;" xml:space="preserve"><g><path d="M67.5,21c-4.6-4.6-10.7-7.1-17.1-7.1c-6.4,0-12.6,2.5-17.1,7.1l2.9,2.9c3.8-3.8,8.9-6,14.3-6s10.5,2.1,14.3,6L67.5,21z"></path><path d="M50.4,5.6c-8.7,0-16.9,3.4-23,9.5l2.9,2.9c5.4-5.4,12.6-8.4,20.2-8.4s14.8,3,20.2,8.4l2.9-2.9C67.3,8.9,59,5.6,50.4,5.6z"></path><path d="M38.7,26.4l2.9,2.9c2.4-2.4,5.5-3.6,8.8-3.6c3.3,0,6.5,1.3,8.8,3.6l2.9-2.9c-3.2-3.2-7.3-4.8-11.7-4.8   C46,21.6,41.9,23.3,38.7,26.4z"></path><path d="M50.5,61.9c-0.8,0-1.5,0.7-1.5,1.5v9.5h3v-3.1H50v-1.4H52v-2H50V65H52v-1.6C52,62.6,51.4,61.9,50.5,61.9z"></path><path d="M63.8,54.7H52.4V44.6c2.7-0.9,4.7-3.4,4.7-6.4c0-3.7-3-6.7-6.7-6.7c-3.7,0-6.7,3-6.7,6.7c0,3,2,5.6,4.7,6.4v10.2H37   c-3.6,0-6.4,2.9-6.4,6.4V88c0,3.6,2.9,6.4,6.4,6.4h26.8c3.6,0,6.4-2.9,6.4-6.4V61.2C70.3,57.5,67.4,54.7,63.8,54.7z M50.5,89.4   c-3.1,0-5.6-2.5-5.6-5.6c0-2,1-3.7,2.6-4.7V63c0-1.7,1.4-3,3-3s3,1.4,3,3v16.1c1.5,1,2.6,2.7,2.6,4.7   C56.1,86.9,53.6,89.4,50.5,89.4z"></path></g></svg>