<svg width="80" height="80" viewBox="0 0 80 80" fill="none" xmlns="http://www.w3.org/2000/svg">
<path d="M39.8203 79.1504C61.5977 79.1504 79.2735 61.5234 79.2735 39.7461C79.2735 17.9688 61.5977 0.341797 39.8203 0.341797C18.0918 0.341797 0.416016 17.9688 0.416016 39.7461C0.416016 61.5234 18.0918 79.1504 39.8203 79.1504ZM39.8203 67.7734C24.3418 67.7734 11.793 55.2246 11.793 39.7461C11.793 24.2676 24.3418 11.7188 39.8203 11.7188C55.3477 11.7188 67.8965 24.2676 67.8965 39.7461C67.8965 55.2246 55.3477 67.7734 39.8203 67.7734ZM36.0117 16.0156C28.3457 17.2363 21.9004 22.1191 18.4824 28.7109L32.3985 34.0332C33.4727 32.5684 34.9863 31.4941 36.7442 30.8594L36.0117 16.0156ZM16.0899 36.1328C15.8946 37.3047 15.7969 38.5254 15.7969 39.7461C15.7969 46.3379 18.4824 52.3438 22.7793 56.6895L32.1055 45.1172C31.0801 43.6523 30.4942 41.8945 30.3965 39.9902L16.0899 36.1328ZM29.0781 61.2305C32.3008 62.8906 35.9629 63.8184 39.8203 63.8184C43.7754 63.8184 47.4375 62.8906 50.6602 61.2305L42.5059 48.7793C41.6758 49.0234 40.7481 49.1699 39.8203 49.1699C38.8926 49.1699 38.0625 49.0234 37.1836 48.7793L29.0781 61.2305ZM56.959 56.6895C61.2559 52.3438 63.8926 46.3379 63.8926 39.7461C63.8926 38.5254 63.8438 37.3047 63.5996 36.1328L49.293 39.9902C49.2442 41.8945 48.6094 43.6523 47.6328 45.1172L56.959 56.6895ZM61.2071 28.7109C57.8379 22.1191 51.3926 17.2363 43.7266 16.0156L42.9942 30.8594C44.752 31.4941 46.2656 32.5684 47.3399 34.0332L61.2071 28.7109ZM39.8203 43.75C42.0664 43.75 43.8731 41.9922 43.8731 39.7461C43.8731 37.5 42.0664 35.7422 39.8203 35.7422C37.6231 35.7422 35.8164 37.5 35.8164 39.7461C35.8164 41.9922 37.6231 43.75 39.8203 43.75Z" fill="black"/>
</svg>
