<svg width="24" height="24" viewBox="0 0 24 24" fill="none" xmlns="http://www.w3.org/2000/svg">
<path d="M19.31 5.59986C18.09 5.55986 16.88 6.49986 16.5 7.99986C16 9.99986 16 9.99986 15 10.9999C13 12.9999 10 13.9999 4 14.9999C3 15.1599 2.5 15.4999 2 15.9999C4 15.9999 6 15.9999 4.5 17.4999L3 18.9999H6L8 16.9999C10 17.9999 11.33 17.9999 13.33 16.9999L14 18.9999H17L16 15.9999C16 15.9999 17 11.9999 18 10.9999C19 9.99986 19 10.9999 20 10.9999C21 10.9999 22 9.99986 22 8.49986C22 7.99986 22 6.99986 20.5 5.99986C20.15 5.75986 19.74 5.61986 19.31 5.59986ZM9 5.99986C7.4087 5.99986 5.88258 6.632 4.75736 7.75722C3.63214 8.88244 3 10.4086 3 11.9999C3 12.5999 3.13 13.0799 3.23 13.5999C9.15 12.6199 12.29 11.5899 13.93 9.93986L14.43 9.43986C13.44 7.33986 11.32 5.99986 9 5.99986Z" fill="black"/>
</svg>
