<svg width="1024" height="1024" viewBox="0 0 1024 1024" fill="none" xmlns="http://www.w3.org/2000/svg">
<g id="tragedy">
<g id="Group 29">
<g id="Group 28">
<path id="Vector" d="M468.9 758.6C481.5 790.3 498.1 819 520.5 844.8C536.6 863.3 555.6 879.4 576.1 892.8C589.8 901.7 604.3 908.9 619.5 914.9C631.9 919.9 645.3 919.9 658.6 920C701 920.3 742.8 911 780.7 891.8C813.4 875.2 842.4 850.6 865.7 822.4C889.9 793.1 909.4 760.8 925 726.2C940.5 691.7 952.9 656 962.5 619.4C970.6 588.6 976.8 557.2 981.5 525.7C985.4 499.4 988.6 473 990.6 446.5C991.4 435.4 992 424.2 992.4 413.1C992.7 402.5 992.1 391.4 988.2 381.4C983.2 368.4 975.4 357.3 963.2 350.1C951.7 343.3 937.4 340.8 924.2 342.1C904.8 344 887.8 350.2 869.9 357.9C872.3 356.9 874.7 355.9 877.1 354.9C866.1 359.5 854.5 362.2 842.8 363.8C845.5 363.4 848.1 363.1 850.8 362.7C827.5 365.8 803.8 364.7 780.5 361.6C783.2 362 785.8 362.3 788.5 362.7C755.2 358.2 722.3 349.4 691.3 336.4C693.7 337.4 696.1 338.4 698.5 339.4C685.5 333.9 672.8 327.7 660.9 320.2C658.4 318.6 655.9 317 653.4 315.2C652.2 314.3 650.9 313.4 649.7 312.5C646 309.8 655.2 316.9 653 315.1C652.5 314.7 652 314.3 651.5 313.9C647.2 310.4 643.1 306.6 639.4 302.4C628.9 290.7 607.5 290.9 597 302.4C585.5 314.9 585.8 332.3 597 344.8C609 358.2 624.6 368.8 640.2 377.6C659.4 388.3 680 396.8 700.8 403.7C720.8 410.4 741.3 415.5 762 418.9C784.7 422.6 807.7 425.1 830.7 424.3C843.5 423.8 856.4 422.4 868.9 419.9C880.9 417.5 891.8 413.3 903 408.5C900.6 409.5 898.2 410.5 895.8 411.5C906.8 406.9 918.1 402.9 930 401.2C927.3 401.6 924.7 401.9 922 402.3C926.7 401.7 931.4 401.5 936.1 402.1C933.4 401.7 930.8 401.4 928.1 401C931 401.4 933.9 402.1 936.6 403.2C934.2 402.2 931.8 401.2 929.4 400.2C931.1 400.9 932.7 401.9 934.3 402.8C937.7 404.8 927.2 396.6 930.8 400.1C931.3 400.6 931.9 401.1 932.4 401.7C934.4 403.6 935 406.9 929.5 397.8C929.9 398.5 930.5 399.1 930.9 399.8C931.8 401.2 932.5 402.7 933.1 404.2C932.1 401.8 931.1 399.4 930.1 397C931.5 400.4 932.4 403.9 932.9 407.6C932.5 404.9 932.2 402.3 931.8 399.6C932.9 407.5 932.2 415.8 931.8 423.8C931.1 438.2 930 452.6 928.6 467C927.4 478.8 926.1 490.7 924.5 502.5C924.9 499.8 925.2 497.2 925.6 494.5C918.7 545.8 908.1 596.8 891.9 646.1C886.8 661.6 881.2 676.8 874.9 691.9C875.9 689.5 876.9 687.1 877.9 684.7C865.9 713.2 851.5 740.7 833.7 766C831.5 769.2 829.2 772.3 826.9 775.4C826.4 776.1 825.8 776.7 825.3 777.4C825.8 776.8 830.7 770.4 827.9 774C826.7 775.6 825.4 777.1 824.2 778.7C819.5 784.5 814.5 790.2 809.3 795.6C804.1 801.1 798.6 806.4 792.9 811.4C790.2 813.8 787.4 816.2 784.5 818.5C783.7 819.1 783 819.7 782.2 820.3C778.6 823.1 785 818.1 785.6 817.7C784 818.8 782.5 820.1 780.9 821.2C767.1 831.2 752.3 839.7 736.6 846.4C739 845.4 741.4 844.4 743.8 843.4C725.5 851.1 706.3 856.2 686.7 858.9C689.4 858.5 692 858.2 694.7 857.8C675.1 860.4 655.3 860.6 635.6 859C638.3 859.4 640.9 859.7 643.6 860.1C639.8 859 636.1 857.5 632.5 855.9C634.9 856.9 637.3 857.9 639.7 858.9C624.6 852.5 610.4 844.2 597.1 834.6C596 833.8 595 833 593.9 832.2C589 828.5 598.8 836.1 595.9 833.8C593.5 831.9 591.2 830 588.9 828.1C584.3 824.2 579.8 820.1 575.5 815.8C570.7 811.1 566.1 806.1 561.7 801C559.6 798.5 557.6 796 555.6 793.5C553.4 790.8 560 799.2 557.9 796.4C557.4 795.7 556.8 795 556.3 794.3C555.1 792.7 553.9 791 552.7 789.4C542.2 774.5 533.4 758.4 526.3 741.6C527.3 744 528.3 746.4 529.3 748.8C528.5 746.8 527.7 744.8 526.9 742.8C523.9 735.3 520.4 729.1 513.1 724.9C506.7 721.1 497.2 719.5 490 721.9C482.7 724.2 475.7 728.7 472.1 735.7C468.4 742.2 466 751.2 468.9 758.6Z" fill="black"/>
<path id="Vector_2" d="M614.8 545.7C602.1 536 591.571 525.96 581.871 513.26C579.413 510.091 578.634 505.434 581 502C581.115 501.833 581.23 501.666 581.346 501.5C591.635 486.756 606.502 475.963 624.4 472.7C630.4 471.6 636.5 471 642.6 471.4C645 471.5 647.3 471.8 649.7 472.2C650 472.2 652.4 472.6 650.9 472.4C648.6 472.1 654.4 472.9 655 473C655.9 473.2 656.7 473.3 657.6 473.5C659.4 473.8 661.3 474.3 663.1 474.8C666.5 475.8 669.9 477.1 673.1 478.6C679 481.3 684.5 485.2 689.1 489.8C696.7 497.6 701.9 507.6 704.6 518.1C706.3 524.9 707.3 532.2 707 539.2C706.5 550.7 692.8 558.4 683.1 562.3C659.4 571.8 633.8 560.2 614.8 545.7Z" fill="black"/>
<path id="Vector_3" d="M668.583 704.338C711.883 718.738 757.483 713.938 800.083 697.038C804.962 695.086 810.794 699.039 812.281 703.691C813.256 706.093 813.201 708.931 811.483 711.838C802.183 726.438 789.583 739.838 776.483 751.138C754.383 770.038 727.883 784.038 698.383 786.138C667.283 788.238 635.683 775.738 613.483 754.038C587.783 728.938 572.283 690.838 569.783 655.038C569.483 650.738 573.083 646.538 577.083 645.438C581.738 644.151 585.608 646.394 588.305 649.935C585.344 646.017 588.891 650.548 589.883 651.738C592.583 654.938 595.483 658.038 598.483 660.938C602.283 664.738 606.283 668.338 610.483 671.838C611.683 672.838 612.983 673.838 614.183 674.838L615.383 675.738C615.343 675.698 615.111 675.514 614.905 675.353C614.897 675.348 614.89 675.343 614.883 675.338C614.343 674.918 614.595 675.11 614.905 675.353C615.5 675.75 616.19 676.244 616.783 676.738C619.583 678.838 622.383 680.838 625.283 682.738C631.883 687.238 638.783 691.238 645.883 694.838C654.083 699.038 659.683 701.338 668.583 704.338Z" fill="black"/>
<path id="Vector_4" d="M811.3 599.8C786.9 600.9 765 589.4 754.9 566.6C754.764 566.291 754.639 565.979 754.526 565.665C753.692 563.987 753.375 561.983 753.83 559.723C753.939 558.972 754.131 558.241 754.411 557.541C756.289 551.245 759.472 545.085 763 539.7C770.2 528.7 779.9 520 792.2 515.1C805.3 509.9 819.1 511 832.6 513.9C858.5 519.6 879.2 539 885.6 564.9C886.7 569.3 884.9 573.8 881 576.2C877.2 578.6 873.1 580.7 869.1 582.7C851.1 591.6 831.5 598.8 811.3 599.8Z" fill="black"/>
</g>
<path id="Subtract" fill-rule="evenodd" clip-rule="evenodd" d="M498.6 141.5C493.3 130.1 483.8 121.7 471.1 120.2C459 118.7 446.8 124 436.8 130.4C423.4 138.9 412.4 150.1 401.7 161.7C394.9 169 389.5 173.1 381.4 178.3C345 201.3 298.7 210.3 255.9 213.7C233 215.5 209.9 215.7 187 213.6C169.9 212 151.5 209.1 134.2 202.5C133.8 202.35 133.425 202.2 133.05 202.05C132.902 201.991 132.754 201.932 132.604 201.872C132.952 202.002 132.491 201.808 131.919 201.568L131.919 201.568L131.918 201.567L131.917 201.567L131.915 201.566C131.385 201.343 130.762 201.081 130.6 201L130.6 201L130.6 201L130.6 201L130.599 201C126.7 199.3 122.8 197.6 118.7 196.2C112.6 194.1 106.5 192.6 100.1 191.8C90.9999 190.7 81.6999 191.7 73.4999 196C62.6999 201.7 56.1999 213.4 54.2999 225.2C53.5806 229.516 53.5889 233.508 53.5979 237.832C53.5989 238.317 53.5999 238.806 53.5999 239.3C53.7999 255.1 54.1999 270.9 54.9999 286.6C56.3999 314.7 58.6999 342.8 62.1999 370.7C68.1999 417.4 77.2 463.8 91.9 508.6C103.3 543.2 117.8 577 137 608C152.2 632.6 170.3 655.7 191.4 675.6C208.8 691.9 228.2 706.2 249.2 717.5C266.6 726.8 285.1 734.3 304.1 739.4C319 743.4 334.3 746.1 349.7 747.4C359 748.2 368.3 748.4 377.6 747.9C390.95 747.143 403.045 741.365 414.988 735.66L415.081 735.615C415.721 735.31 416.361 735.004 417 734.7C450.9 718.8 481.7 695.7 505.1 666.3C527.1 638.7 542.8 606.8 552.6 572.9C562.5 538.8 566.8 503 567.4 467.5C568.1 431.7 565 396 559.7 360.6C554.9 328.6 548.2 296.9 539.9 265.6C533.3 240.5 525.7 215.7 517.3 191.2C512.4 177.1 507.3 163.1 501.6 149.3C500.8 146.7 499.7 144.1 498.6 141.5ZM343.802 534.121C371.302 527.821 397.602 534.821 420.802 549.921C430.502 556.221 438.802 563.221 447.402 572.021C448.943 573.604 450.483 575.206 452 576.833C414.539 566.271 375.204 564.552 337.102 575.821C310.756 583.59 286.05 596.778 264.67 614C264.813 613.573 264.957 613.147 265.102 612.721C268.702 602.021 272.002 594.421 278.302 583.821C285.102 572.421 291.902 563.821 302.302 554.821C313.702 545.021 328.402 537.821 343.802 534.121ZM363 376.6L363 376.596C363.1 375.598 363.2 374.599 363.3 373.7C363.307 373.608 363.313 373.524 363.319 373.446C363.323 373.388 363.327 373.333 363.33 373.283L363.335 373.219C363.351 373.148 363.373 373.044 363.4 372.9L363.492 372.392L363.492 372.392C363.862 370.347 364.246 368.231 364.8 366.2C365.34 364.129 366.042 361.977 366.834 359.963C366.855 359.935 366.976 359.68 367.134 359.348C367.382 358.825 367.721 358.113 367.9 357.8C368.6 356.5 369.3 355.2 370 354C370.56 353.066 371.207 352.132 371.861 351.199L372.008 351.022C372.5 350.432 373.46 349.28 373.7 349.1C374.7 348 375.7 347 376.8 346C378.2 344.7 378.9 344.2 379.5 343.8C385.2 339.9 390.3 337.7 397 336.1C398.857 335.618 400.761 335.232 402.68 334.842L402.683 334.841C403.553 334.664 404.427 334.487 405.3 334.3C405.45 334.25 405.625 334.225 405.8 334.2C405.884 334.188 405.968 334.176 406.049 334.161C406.834 334.074 407.629 333.987 408.5 333.9C411.1 333.7 413.8 333.6 416.4 333.7C422.4 333.9 428.4 335 434.5 337.6C440.217 340.05 445.146 343.612 449.478 347.876C449.464 347.896 449.451 347.916 449.439 347.937C449.425 347.958 449.413 347.979 449.4 348C449.219 348.301 449 348.5 449 348.5C444.1 354.6 439.1 360.5 433.6 366C426.3 373.3 420.1 378.6 412.1 383.6L412.098 383.601C410.099 384.801 408.099 386 406.1 387.1C405.6 387.35 405.075 387.6 404.55 387.85C404.025 388.1 403.5 388.35 403 388.6L403 388.6L402.999 388.6C402.399 388.9 401.8 389.2 401.2 389.4C402.2 389 401.4 389.3 400.9 389.5L400.899 389.5L400.899 389.5L400.898 389.5C398.599 390.3 396.299 391.1 394 391.7C392.9 392 391.8 392.2 390.7 392.4L390.7 392.4C390.4 392.45 390.074 392.5 389.749 392.55C389.556 392.58 389.362 392.61 389.174 392.639C389.04 392.65 388.863 392.668 388.665 392.692L388.6 392.7C385.9 392.9 383.2 392.9 380.5 392.7C380.378 392.69 380.282 392.682 380.208 392.675C380.057 392.663 379.997 392.658 379.997 392.659C379.997 392.659 380.022 392.662 380.064 392.667C380.235 392.688 380.688 392.744 380.8 392.8C380 392.7 379.2 392.5 378.401 392.3L378.4 392.3C376.9 392 375.5 391.6 374.1 391.1C373.73 390.977 373.458 390.887 373.249 390.819C372.864 390.692 372.692 390.636 372.525 390.569C372.39 390.516 372.258 390.455 372.02 390.346C371.93 390.305 371.825 390.257 371.7 390.2C370.4 389.6 369.1 388.9 367.9 388.2C365.968 387.105 364.452 386.052 362.949 384.854C362.802 382.12 362.819 379.319 363 376.6ZM388.8 392.7C389.591 392.628 389.554 392.608 389.174 392.639C389.046 392.66 388.921 392.68 388.8 392.7ZM406.049 334.161L405.705 334.199L405.7 334.2C404.3 334.3 408.3 333.6 406.3 334.1C406.222 334.126 406.137 334.145 406.049 334.161ZM372 351C371.634 351.465 371.655 351.444 371.861 351.199L372 351ZM366.834 359.963C366.824 359.977 366.837 359.936 366.882 359.824C366.925 359.718 366.995 359.549 367.1 359.3C367.01 359.519 366.922 359.74 366.834 359.963ZM266.578 392.028L266.58 392.03C268.017 394.346 269.347 396.811 270.5 399.295C269.736 401.058 268.891 402.7 267.699 404.573C266.969 405.754 266.149 406.983 265.283 408.123C264.975 408.523 264.857 408.684 264.728 408.837C264.548 409.049 264.348 409.244 263.587 410.044C262.585 411.143 261.537 412.153 260.353 413.122C259.741 413.675 259.128 414.227 258.469 414.691C258.559 414.565 259.113 414.192 259.111 414.189C259.11 414.188 258.999 414.261 258.687 414.462C256.397 415.906 254.013 417.173 251.535 418.264C251.324 418.345 251.137 418.421 251 418.48C250.517 418.647 250 418.831 249.54 418.985L249.539 418.985C248.475 419.325 247.41 419.665 246.298 419.917C243.985 420.466 241.579 420.84 239.173 421.213L239.172 421.213C238.637 421.272 237.79 421.382 238.861 421.266C238.237 421.371 237.566 421.388 236.896 421.405C236.337 421.419 235.756 421.444 235.176 421.47C234.595 421.496 234.013 421.522 233.454 421.536C231.173 421.503 228.844 421.383 226.516 421.262L226.514 421.262C217.103 420.603 209.14 418.834 199.268 415.816C191.829 413.542 184.645 410.68 177.454 407.594C177.454 407.594 177.167 407.521 176.866 407.34C176.824 407.315 176.782 407.291 176.739 407.267C178.562 401.469 181.242 396.01 185.14 391.163C189.305 386.003 194.087 382.215 199.29 379.222C201.539 377.913 203.97 376.733 206.359 375.689C207.169 375.358 207.912 375.061 208.646 374.77C208.725 374.744 208.804 374.716 208.884 374.687C209.051 374.627 209.217 374.567 209.373 374.54C210.232 374.295 211.087 374.042 211.94 373.789C213.817 373.232 215.68 372.68 217.546 372.233C224.213 370.5 229.749 370.048 236.613 370.816C237.33 370.887 238.183 371 240.03 371.491C241.47 371.857 242.823 372.271 244.222 372.773C244.518 372.819 245.907 373.386 246.619 373.676C246.699 373.709 246.771 373.738 246.831 373.762C247.846 374.28 248.856 374.801 249.789 375.362C250.97 376.093 252.198 376.911 253.426 377.73L253.428 377.731C253.732 377.924 254.365 378.394 254.83 378.738C255.125 378.957 255.352 379.126 255.384 379.141C257.029 380.548 258.659 382.118 260.108 383.693C261.551 385.226 262.883 386.915 264.17 388.546C264.277 388.682 264.383 388.817 264.49 388.951C264.582 389.066 264.649 389.148 264.697 389.202C264.766 389.314 264.851 389.449 264.954 389.611C265.464 390.358 266.021 391.192 266.578 392.028ZM254.838 378.68C255.02 378.832 255.202 378.985 255.384 379.141C255.414 379.155 255.268 379.031 254.838 378.68ZM246.615 373.652L246.831 373.762C247.128 373.883 247.156 373.891 246.615 373.652ZM208.646 374.77C208.561 374.797 208.477 374.82 208.396 374.833C206.395 375.331 210.256 374.071 208.973 374.64L208.968 374.642L208.646 374.77ZM251.358 418.358C251.242 418.397 251.122 418.438 251 418.48C250.649 418.631 250.626 418.666 251.358 418.358Z" fill="black"/>
</g>
</g>
</svg>
