<svg xmlns="http://www.w3.org/2000/svg" xmlns:xlink="http://www.w3.org/1999/xlink" version="1.1" x="0px" y="0px" viewBox="0 0 100 100" style="enable-background:new 0 0 100 100;" xml:space="preserve"><g><path d="M31.2,35.6c1.5,0,2.9-0.6,4.1-1.7l14.7-14.7l14.5,14.5c2.2,2.2,5.9,2.2,8.1,0c2.2-2.2,2.2-5.9,0-8.1L54,7.1   c-2.2-2.2-5.9-2.2-8.1,0L27.1,25.9c-2.2,2.2-2.2,5.9,0,8.1C28.3,35.1,29.7,35.6,31.2,35.6z M73.4,66.4c-2.2-2.2-5.9-2.2-8.1,0   L50.8,80.9L36.2,66.4c-2.2-2.2-5.9-2.2-8.1,0c-2.2,2.2-2.2,5.9,0,8.1l18.6,18.6c1.1,1.1,2.5,1.7,4.1,1.7c1.5,0,3-0.6,4.1-1.7   l18.6-18.6C75.6,72.3,75.6,68.7,73.4,66.4z M63.7,44H36.9c-3.2,0-5.7,2.3-5.7,5.5s2.6,5.5,5.7,5.5h26.8c3.2,0,5.7-2.3,5.7-5.5   S66.8,44,63.7,44z"></path></g></svg>