<svg width="100" height="100" viewBox="0 0 100 100" fill="none" xmlns="http://www.w3.org/2000/svg">
<path d="M17.4512 85.1914H83.125C91.4746 85.1914 95.5764 81.0899 95.5764 72.8867V26.3047C95.5764 18.1016 91.4746 14 83.125 14H17.4512C9.15038 14 5 18.1016 5 26.3047V72.8867C5 81.0899 9.15038 85.1914 17.4512 85.1914ZM17.5489 78.1113C14.0332 78.1113 12.0313 76.207 12.0313 72.5449V26.6465C12.0313 22.9356 14.0332 21.0801 17.5489 21.0801H83.0274C86.543 21.0801 88.5449 22.9356 88.5449 26.6465V72.5449C88.5449 76.207 86.543 78.1113 83.0274 78.1113H17.5489Z" fill="black"/>
<path d="M12.0313 53.2578H21.5039C23.2129 53.2578 24.043 52.4278 24.6289 51.0117L28.877 40.5625L37.1778 67.5156C37.8614 69.8106 41.6699 69.7617 42.4024 67.3692L46.8457 53.2578H55.3906C57.0996 53.2578 57.9297 52.4278 58.5156 51.0117L63.0078 40.5625L71.2598 67.5156C71.9922 69.8106 75.752 69.7617 76.5332 67.3692L80.9766 53.2578H88.5449V47.6914H79.3653C77.6563 47.6914 76.7774 48.5215 76.2403 49.9375L73.8477 56.4805L65.5957 31.334C64.8633 29.0391 61.3965 29.0879 60.4199 31.4805L53.7793 47.6914H45.2344C43.5254 47.6914 42.6465 48.5215 42.1582 49.9375L39.7656 56.4805L31.5137 31.334C30.7324 29.0391 27.2656 29.0879 26.2891 31.4805L19.6485 47.6914H12.0313V53.2578Z" fill="black"/>
</svg>
