<svg width="535" height="535" viewBox="0 0 535 535" fill="none" xmlns="http://www.w3.org/2000/svg">
<rect width="535" height="535" fill="white"/>
<path fill-rule="evenodd" clip-rule="evenodd" d="M105 1H315.5C325.5 1 342 8.5 349 15.5L471 138.5C477.5 145 482.5 155.5 482.5 168V481.5C482.5 508.5 462.5 532.5 434 532.5H102C76 532.5 53 512 53 482V50.5C53 26 73.5 1 105 1ZM145 45H102.5C99.5 45 97 47.3 97 50.5V485.5C97 488.5 99 490 102.5 490H433C436.5 490 438 488 438 484V195.5H340.5C310 195.5 288 168.5 288 143.5V45H192.5V92H145V45ZM192.5 138.5H239.5V92H192.5V138.5ZM192.5 185V138.5H145.5V185H192.5ZM192.5 232H239.5V185H192.5V232ZM192.5 279V232H145.5V279H192.5ZM192.5 326H239.5V279H192.5V326ZM192.5 372.5V326H145.5V372.5H192.5ZM192.5 372.5V419H239.5V372.5H192.5Z" fill="black"/>
</svg>
